<?xml version="1.0" standalone="no"?>
<!DOCTYPE svg PUBLIC "-//W3C//DTD SVG 1.1//EN" "http://www.w3.org/Graphics/SVG/1.1/DTD/svg11.dtd" >
<svg xmlns="http://www.w3.org/2000/svg" xmlns:xlink="http://www.w3.org/1999/xlink" version="1.1">
<metadata>
Created by FontForge 20170731 at Sat Jul 20 23:01:40 2019
 By Aleksey,,,
Copyright (c) 2019 by Fontastica. All rights reserved.
</metadata>
<defs>
<font id="Qartella-ExtraBoldItalic" horiz-adv-x="682" >
  <font-face 
    font-family="Qartella ExtraBold Italic"
    font-weight="800"
    font-style="italic"
    font-stretch="normal"
    units-per-em="1000"
    panose-1="0 0 9 0 0 0 0 0 0 0"
    ascent="800"
    descent="-200"
    x-height="513"
    cap-height="775"
    bbox="-106.091 -262 1094.36 824"
    underline-thickness="50"
    underline-position="-200"
    unicode-range="U+0020-2212"
  />
<missing-glyph horiz-adv-x="637" 
d="M596 764l1 -2v-759l-557 -2v759l1 2zM551 44v679l-465 -2v-679zM182 559l138 -141l142 142l39 -39l1 -2l-143 -142l141 -139v-3l-36 -36l-140 140l-142 -142l-40 39l140 145l-139 140v2l36 36h3z" />
    <glyph glyph-name=".notdef" horiz-adv-x="637" 
d="M596 764l1 -2v-759l-557 -2v759l1 2zM551 44v679l-465 -2v-679zM182 559l138 -141l142 142l39 -39l1 -2l-143 -142l141 -139v-3l-36 -36l-140 140l-142 -142l-40 39l140 145l-139 140v2l36 36h3z" />
    <glyph glyph-name=".null" horiz-adv-x="0" 
 />
    <glyph glyph-name="nonmarkingreturn" horiz-adv-x="333" 
 />
    <glyph glyph-name="space" unicode=" " horiz-adv-x="276" 
 />
    <glyph glyph-name="exclam" unicode="!" horiz-adv-x="334" 
d="M171 198h54q19 0 31.5 10t14.5 24l82 507q2 14 -7 25t-27 11h-59q-18 0 -30.5 -11t-14.5 -25l-79 -507q-2 -14 7.5 -24t27.5 -10zM190 144q-40 0 -65 -22.5t-30 -53.5t13 -54.5t57 -23.5t65 23.5t30 54.5q6 31 -12.5 53.5t-57.5 22.5z" />
    <glyph glyph-name="quotedbl" unicode="&#x22;" horiz-adv-x="448" 
d="M139 543q-13 -12 -16 -25q-3 -15 13 -36.5t36 -21.5q12 0 22 6q54 26 96 81.5t58 111.5q11 -18 34 -27q-9 -23 -28 -43q-15 -15 -23 -22q-9 -8 -29 -24q-13 -12 -16 -25q-2 -15 13 -36.5t36 -21.5q9 0 23 6q61 30 105.5 95.5t53.5 123.5q1 22 0.5 46.5t-20.5 44t-56 19.5
q-59 0 -89 -50q-15 50 -74 50q-43 0 -70 -25.5t-32 -59.5q-4 -25 6.5 -47t36.5 -31q-16 -37 -53 -69q-3 -3 -12.5 -9.5t-14.5 -10.5z" />
    <glyph glyph-name="numbersign" unicode="#" horiz-adv-x="760" 
d="M109 53q-3 -6 -7 -20q-2 -13 6.5 -23t26.5 -10h46q16 0 29 9t18 21l80 186h109l-34 -78l-30 -69q0 -1 -3 -7t-4 -10q-6 -12 -7 -20q-2 -13 7.5 -22.5t26.5 -9.5h46q34 0 46 30l81 186h102q26 0 42 20q2 2 10 16q1 1 1.5 3t1.5 3.5t1.5 3t1.5 2.5l6 13q5 10 5 15
q2 13 -6.5 22.5t-25.5 9.5h-92l49 114h88q25 0 41 20q4 5 10 15l6 12q4 6 7 12q6 14 6 16q2 13 -7 22.5t-26 9.5h-80l38 85q15 35 32 73q2 6 8 18q6 11 7 21q2 13 -7 23t-26 10h-47q-33 0 -46 -30l-87 -200h-108l37 85l31 73q2 6 8 18q6 14 7 21q2 13 -7 23t-26 10h-46
q-16 0 -29 -9t-18 -21l-85 -200h-88q-27 0 -43 -20q-4 -5 -10 -15q-6 -11 -7 -13l-6 -13q-4 -10 -5 -15q-2 -12 6.5 -21.5t24.5 -9.5h81l-49 -114h-75q-26 0 -43 -21q-4 -5 -10 -15l-6 -14q-2 -2 -6 -12l-4 -7q0 -3 -2 -7q-2 -14 7.5 -23t25.5 -9h65l-33 -78l-30 -68
q0 -1 -3 -7t-4 -10zM404 438h109l-48 -114h-110z" />
    <glyph glyph-name="dollar" unicode="$" horiz-adv-x="662" 
d="M101 61q69 -55 174 -68l-12 -74q-2 -14 6.5 -24.5t27.5 -10.5q3 0 9.5 -0.5t9.5 -0.5q15 0 23 2q33 5 37 34l12 74q110 11 177 72t82 154q8 46 -3 82.5t-39.5 61.5t-63 42t-83.5 31l34 218q27 -6 46 -16l25 -16q8 -6 26 -20q10 -8 24 -8q15 0 27 10q11 8 28.5 35.5
t19.5 39.5q3 17 -9 30l-10 10l-11 9q-57 42 -145 53q2 11 -1 19q-4 24 -33 24h-23q-50 0 -57 -42v-2q-100 -15 -170.5 -74.5t-83.5 -142.5q-27 -173 183 -235l-34 -209q-83 19 -124 68l-3 5h-7q-3 0 -4 1h-9q-21 0 -49 -34t-30 -48q-2 -16 11 -31q5 -6 11 -11q10 -8 11 -8z
M379 653l-29 -184q-41 16 -58.5 37t-11.5 57q5 32 32 56t67 34zM407 117l29 181q40 -15 60.5 -33.5t15.5 -48.5q-13 -80 -105 -99z" />
    <glyph glyph-name="percent" unicode="%" horiz-adv-x="855" 
d="M219 0h59q26 0 41 21l543 735q7 10 8 18q2 13 -7 21.5t-25 8.5h-58q-26 0 -40 -22l-542 -734q-8 -10 -9 -19q-2 -12 6.5 -20.5t23.5 -8.5zM361 784q-93 0 -152.5 -54.5t-71.5 -131.5t30 -131t135 -54t152 54.5t71 130.5q12 77 -29.5 131.5t-134.5 54.5zM342 663
q30 0 43 -17.5t8 -46.5q-10 -64 -72 -64q-30 0 -43.5 18t-8.5 46q4 28 24 46t49 18zM732 362q-93 0 -153 -55t-72 -131q-11 -77 31 -131.5t135 -54.5t152.5 54.5t71.5 131.5q12 76 -30.5 131t-134.5 55zM711 239q31 0 44.5 -17.5t8.5 -45.5q-5 -30 -23.5 -47.5t-49.5 -17.5
q-30 0 -43 18t-8 47q5 28 23.5 45.5t47.5 17.5z" />
    <glyph glyph-name="ampersand" unicode="&#x26;" horiz-adv-x="776" 
d="M224 445q-131 -64 -152 -201q-19 -115 59.5 -187.5t217.5 -72.5q124 0 227 79l45 -48q13 -15 38 -15h69q15 0 27.5 7.5t14.5 22.5v9l-3 6q-7 13 -51 59q-19 20 -52 53q76 110 100 253q2 13 -7.5 24.5t-27.5 11.5h-53q-34 0 -46 -33q-2 -9 -6 -27.5t-6 -27.5
q-14 -58 -42 -107l-157 167l-34 37q-21 23 -34 41q-33 49 -28 87q6 35 28 58.5t58 23.5q31 0 50 -25q1 -1 6 -9t8 -11q10 -14 28 -14q15 0 54.5 25t42.5 43q1 8 -2 16q-16 46 -59 70t-103 24q-101 0 -166 -58t-78 -141q-11 -72 34 -140zM296 359l197 -209q-59 -46 -126 -46
q-78 0 -124.5 38.5t-36.5 101.5q6 36 29.5 66.5t60.5 48.5z" />
    <glyph glyph-name="quotesingle" unicode="'" horiz-adv-x="286" 
d="M139 543q-13 -12 -16 -25q-3 -15 13 -36.5t36 -21.5q12 0 22 6q61 30 105.5 95t54.5 124q1 22 0.5 46.5t-20.5 44t-56 19.5q-43 0 -70 -25.5t-32 -59.5q-4 -25 6.5 -47t37.5 -31q-18 -38 -54 -69q-3 -3 -12.5 -9.5t-14.5 -10.5z" />
    <glyph glyph-name="parenleft" unicode="(" horiz-adv-x="371" 
d="M192 -167h51q15 0 26.5 8t13.5 21q1 4 -1 10q0 4 -3 8q-42 88 -55.5 200t4.5 212q37 228 188 437q7 13 7 16q2 13 -7 21.5t-24 8.5h-51q-25 0 -45 -22q-14 -15 -27 -35q-8 -12 -22 -36q-120 -191 -149 -380q-32 -195 28 -380l12 -34q7 -21 16 -34q15 -21 38 -21z" />
    <glyph glyph-name="parenright" unicode=")" horiz-adv-x="371" 
d="M76 -167h51q19 0 34 12q11 8 23 22q11 14 30 45q124 186 156 390q30 195 -33 391q-12 39 -15 46q-8 16 -16 23q-11 13 -30 13h-51q-15 0 -27 -8.5t-14 -21.5q-2 -11 3 -18q87 -202 50 -435q-32 -195 -146 -361q-10 -14 -25 -32q-10 -14 -13 -19q-1 -2 -2.5 -4.5
t-2.5 -4.5q-3 -3 -3 -9q-2 -13 7 -21t24 -8z" />
    <glyph glyph-name="asterisk" unicode="*" horiz-adv-x="506" 
d="M155 437q-12 -12 -13 -24q-3 -14 8 -25l32 -35q10 -10 27 -10q21 0 36 17l80 88l51 -88q8 -17 30 -17q16 0 29 10l44 35q15 11 16 25q2 11 -5 24l-60 83l116 59q20 10 24 30q1 4 -2 17q-2 5 -8 17q-3 6 -8.5 15.5t-6.5 12.5q-9 17 -31 17q-2 0 -4.5 -0.5t-3.5 -0.5h-3h-5
l-82 -50q18 86 20 101q2 14 -7 24.5t-27 10.5h-53q-18 0 -31 -10.5t-15 -24.5q-3 -19 -6.5 -54.5t-4.5 -46.5l-66 50h-5h-3q-2 0 -4 0.5t-4 0.5q-23 0 -37 -18q-21 -25 -23 -28q-1 -1 -13 -16q-6 -12 -7 -18q-4 -19 14 -29l98 -59z" />
    <glyph glyph-name="plus" unicode="+" horiz-adv-x="651" 
d="M311 77h54q19 0 31.5 10.5t14.5 24.5l25 158h157q18 0 30.5 11.5t15.5 24.5l8 48q2 14 -7.5 25t-27.5 11h-157l25 157q2 14 -7.5 25t-27.5 11h-54q-18 0 -30.5 -11.5t-15.5 -24.5l-25 -157h-156q-18 0 -31 -11t-15 -25l-8 -48q-2 -14 7.5 -25t27.5 -11h156l-25 -158
q-2 -14 7 -24.5t28 -10.5z" />
    <glyph glyph-name="comma" unicode="," horiz-adv-x="308" 
d="M55 -80q-18 -14 -20 -29q-3 -14 13 -36t36 -22q10 0 22 5q61 30 105.5 95.5t53.5 124.5q2 22 1.5 46.5t-20.5 43.5t-56 19q-42 0 -69.5 -25t-32.5 -58q-4 -25 6.5 -47.5t36.5 -31.5q-17 -39 -53 -69l-10 -7q-5 -3 -13 -9z" />
    <glyph glyph-name="hyphen" unicode="-" horiz-adv-x="488" 
d="M145 271h284q18 0 31 11t15 25l7 48q2 14 -7 25t-27 11h-284q-18 0 -31 -11t-15 -25l-7 -48q-2 -14 7 -25t27 -11z" />
    <glyph glyph-name="period" unicode="." horiz-adv-x="346" 
d="M197 156q-42 0 -69 -24.5t-32 -57.5q-6 -33 13.5 -58.5t61.5 -25.5t69.5 25t32.5 59q6 34 -13.5 58t-62.5 24z" />
    <glyph glyph-name="slash" unicode="/" horiz-adv-x="460" 
d="M36 0h52q27 0 46 24q2 3 14 22q5 10 11 19l209 348l114 187q98 162 101 173q2 14 -7 22.5t-25 8.5h-51q-26 0 -45 -23q-10 -14 -14 -22q-2 -3 -6 -10.5t-5 -9.5l-55 -90l-155 -257q-35 -57 -113 -187q-101 -163 -102 -174q-2 -12 6.5 -21.5t24.5 -9.5z" />
    <glyph glyph-name="zero" unicode="0" horiz-adv-x="931" 
d="M586 765q-91 0 -168.5 -35t-128 -92t-82 -122.5t-42.5 -133.5q-6 -53 -3.5 -106.5t24.5 -103.5t56 -88.5t92 -61.5t131 -23q91 0 168.5 35t128.5 91.5t83 122.5t43 134q9 44 5 89.5t-14.5 88t-36 80t-59.5 65.5t-84.5 44t-112.5 16zM569 658q58 0 100 -26t60 -66.5
t25.5 -89.5t-2.5 -94q-7 -47 -28 -94t-53.5 -88.5t-82 -67t-106.5 -25.5q-76 0 -122 45t-58 105t-2 125q8 47 28 94t52.5 88.5t81.5 67.5t107 26z" />
    <glyph glyph-name="one" unicode="1" horiz-adv-x="479" 
d="M259 12h41q19 0 34.5 13t17.5 28l105 660q0 17 -2 22q-7 18 -27 18q-13 0 -20 -3l-221 -79q-20 -7 -29 -24q-2 -3 -4 -13l-3 -12q-2 -22 3 -33q10 -21 37 -21l7 1q2 0 6 2l16 4l41 14q7 3 23 8.5t23 8.5l-88 -553q-2 -15 9 -28t31 -13z" />
    <glyph glyph-name="two" unicode="2" horiz-adv-x="756" 
d="M143 12h466q28 0 43 23q6 9 11 33q2 19 -3 31q-7 20 -35 20h-299l243 190q67 53 104 101.5t47 111.5q16 106 -48.5 174.5t-192.5 68.5q-77 0 -151 -27.5t-124 -78.5q-13 -13 -14 -25q-3 -17 20.5 -38.5t43.5 -21.5q18 0 37 15l15 13l15 12q61 44 138 44q70 0 102.5 -36
t23.5 -97q-7 -40 -32 -70.5t-72 -66.5l-345 -271q-19 -15 -24 -25q-2 -3 -4 -13l-3 -14q-2 -20 2 -32q10 -21 36 -21z" />
    <glyph glyph-name="three" unicode="3" horiz-adv-x="795" 
d="M726 222q18 111 -95 170q52 26 84 67.5t40 89.5q16 103 -66.5 159.5t-207.5 56.5q-71 0 -141 -19t-116 -61q-15 -12 -18 -28q-2 -17 12 -31q11 -11 19 -16q12 -7 14 -8q10 -5 17 -5q14 0 35 13q64 48 161 48q75 0 120 -28t36 -83q-6 -36 -34 -60.5t-66.5 -34.5t-85.5 -10
h-96q-29 0 -44 -23q-9 -14 -11 -34q-4 -17 2 -31q9 -20 36 -20h100q78 0 128 -27.5t41 -82.5q-9 -59 -69.5 -88t-141.5 -29q-91 0 -140 32q-2 1 -8 7l-11 9q-15 13 -33 13q-22 0 -49 -22t-30 -39q-1 -17 10 -30q34 -38 105 -58t139 -20q131 0 238.5 58t125.5 165z" />
    <glyph glyph-name="four" unicode="4" horiz-adv-x="783" 
d="M138 172h333l-18 -119q-2 -15 8 -28t30 -13h23q17 0 26 2q37 7 41 39l19 119h94q29 0 44 23q7 9 12 33q2 18 -3 31q-9 19 -36 19h-94l31 196q2 16 -8 28.5t-30 12.5h-23q-17 0 -26 -2q-37 -7 -42 -39l-31 -196h-216l314 408q8 10 11 23q2 17 -9.5 30.5t-33.5 13.5h-39
q-27 0 -42 -20l-361 -472q-7 -9 -9 -20q-1 -5 -4 -17q-2 -19 3 -32q9 -20 36 -20z" />
    <glyph glyph-name="five" unicode="5" horiz-adv-x="784" 
d="M196 188q-21 0 -48 -23.5t-29 -39.5q-2 -14 9 -31q3 -4 10 -11l10 -10q77 -74 224 -74q134 0 235.5 65t119.5 175q17 110 -64 174.5t-215 64.5q-49 0 -88 -8l37 177h306q30 0 45 22q6 9 11 33q2 20 -3 31q-9 20 -36 20h-387q-19 0 -34 -11.5t-18 -26.5l-65 -295
q-3 -16 7 -28q8 -12 25 -29q12 -10 18 -14q16 -8 23 -8q6 0 21 5q60 23 121 23q79 0 125 -34t36 -96q-10 -63 -66.5 -97.5t-136.5 -34.5q-91 0 -137 42q-2 1 -3.5 3t-4 4.5l-3.5 3.5q-2 2 -5.5 6.5t-5.5 6.5q-15 15 -34 15z" />
    <glyph glyph-name="six" unicode="6" horiz-adv-x="819" 
d="M205 380q-50 -60 -60 -121q-18 -116 56 -188t214 -72q141 0 238 73t115 190q16 103 -58.5 173.5t-200.5 70.5q-27 0 -40 -2l150 180q8 10 12 24q2 18 -9.5 31.5t-34.5 13.5h-39q-23 0 -40 -19zM479 388q76 0 119.5 -34t34.5 -94q-11 -71 -64 -112t-137 -41
q-83 0 -123.5 41t-29.5 111q9 60 66 94.5t134 34.5z" />
    <glyph glyph-name="seven" unicode="7" 
d="M164 78q-6 -9 -8 -20q-3 -17 8.5 -31.5t34.5 -14.5h17q9 -2 20 0q27 2 42 22l459 629q4 4 6 10q0 2 0.5 4.5t0.5 3.5q3 13 4 18q1 7 1 22q-4 32 -39 32h-498q-30 0 -45 -23q-6 -10 -11 -34q-6 -49 39 -49h384z" />
    <glyph glyph-name="eight" unicode="8" horiz-adv-x="864" 
d="M795 222q18 112 -97 169q110 52 126 157q16 103 -65 160t-207 57q-80 0 -151 -23t-123.5 -73.5t-63.5 -119.5q-8 -50 10.5 -92t64.5 -66q-131 -55 -149 -168q-9 -55 13 -99.5t65.5 -71t98.5 -40t117 -13.5q82 0 158 23t134 75.5t69 124.5zM535 658q75 0 119.5 -28
t35.5 -83t-61 -79.5t-128 -24.5q-75 0 -118.5 25t-34.5 80t60.5 82.5t126.5 27.5zM487 334q80 0 131.5 -26.5t42.5 -83.5q-10 -59 -69.5 -88t-140.5 -29t-133 28.5t-43 87.5q6 39 40 65t77 36t95 10z" />
    <glyph glyph-name="nine" unicode="9" horiz-adv-x="817" 
d="M318 68q-11 -12 -12 -24q-2 -18 9.5 -31.5t34.5 -13.5h36q28 2 43 19l304 354q50 59 60 122q18 116 -57 187.5t-214 71.5q-141 0 -238.5 -73.5t-115.5 -190.5q-16 -103 59.5 -173.5t201.5 -70.5q13 0 39 2zM505 646q83 0 123.5 -41.5t29.5 -111.5q-9 -60 -65.5 -94.5
t-133.5 -34.5q-76 0 -120.5 33.5t-35.5 93.5q11 72 64 113.5t138 41.5z" />
    <glyph glyph-name="colon" unicode=":" horiz-adv-x="318" 
d="M250 571q-45 0 -75 -26t-36 -62q-6 -37 15.5 -63.5t67.5 -26.5q45 0 74 27t35 63t-15 62t-66 26zM186 169q-45 0 -74.5 -26t-35.5 -62q-6 -37 15 -63.5t67 -26.5t75 27t35 63t-15.5 62t-66.5 26z" />
    <glyph glyph-name="semicolon" unicode=";" horiz-adv-x="336" 
d="M261 571q-45 0 -74.5 -26t-35.5 -62q-6 -37 15.5 -63.5t66.5 -26.5q46 0 75 26.5t35 63.5t-15 62.5t-67 25.5zM57 -82q-17 -13 -18 -27q-2 -9 8 -27.5t18 -24.5q11 -6 23 -6t22 5q60 27 105 95t54 126q2 22 1.5 46t-20.5 43t-56 19q-42 0 -70 -25t-33 -58q-9 -60 44 -79
q-19 -42 -56 -71q-4 -4 -10 -7z" />
    <glyph glyph-name="less" unicode="&#x3c;" horiz-adv-x="640" 
d="M101 369l-11 -67q-5 -23 19 -36q23 -13 231 -106q221 -101 232 -101q18 0 28 10.5t12 21.5l9 56q4 27 -20 37l-342 152l390 151q28 12 32 38l9 57q2 12 -5.5 22t-24.5 10q-13 0 -264 -101q-256 -102 -264 -106q-28 -12 -31 -38z" />
    <glyph glyph-name="equal" unicode="=" horiz-adv-x="626" 
d="M182 364h378q19 0 31 11.5t15 25.5l7 46q2 13 -7 24.5t-27 11.5h-378q-19 0 -31.5 -11t-14.5 -25l-8 -46q-2 -14 7 -25.5t28 -11.5zM157 208h378q18 0 31 11t15 25l8 47q2 13 -7.5 24.5t-27.5 11.5h-378q-18 0 -30.5 -11.5t-15.5 -24.5l-7 -47q-2 -14 6.5 -25t27.5 -11z
" />
    <glyph glyph-name="greater" unicode="&#x3e;" horiz-adv-x="640" 
d="M87 59h12l9 5q1 1 3.5 1.5t3.5 0.5q6 4 8 4q37 15 111 44.5t111 44.5l179 71q81 31 91 36q26 12 31 36l10 67q5 24 -19 38q-3 2 -230 106q-221 101 -233 101q-17 0 -27.5 -10t-12.5 -22l-9 -57q-4 -26 21 -38l342 -151l-390 -152q-28 -10 -33 -37l-9 -56
q-2 -11 5.5 -21.5t25.5 -10.5z" />
    <glyph glyph-name="question" unicode="?" horiz-adv-x="576" 
d="M258 193h60q32 0 45 31l9 28l12 24q16 24 63 65q50 43 75 68.5t47.5 65t30.5 88.5q14 92 -37 156.5t-161 64.5q-138 0 -235 -100q-11 -13 -12 -22q-3 -15 19.5 -44.5t42.5 -29.5q17 0 32 13q29 23 44 34t39.5 20.5t51.5 9.5q47 0 67.5 -29t13.5 -73q-7 -42 -30.5 -72
t-65.5 -64l-36 -30q-4 -4 -11.5 -10.5t-13.5 -12t-11 -10.5q-40 -40 -58 -84q-12 -30 -16 -51q-2 -14 7 -25t28 -11zM284 144q-39 0 -64.5 -22.5t-30.5 -53.5t13.5 -54.5t57.5 -23.5t65 23.5t31 54.5t-14 53.5t-58 22.5z" />
    <glyph glyph-name="at" unicode="@" horiz-adv-x="1035" 
d="M664 784q-223 0 -369.5 -125t-176.5 -311q-19 -121 19.5 -218t139 -157t249.5 -60q180 0 314 110q14 12 15 25q2 14 -22.5 44t-43.5 30q-15 0 -31 -12q-102 -76 -213 -76q-162 0 -241.5 89t-57.5 226t129.5 227t269.5 90q139 0 209 -86.5t51 -206.5q-7 -44 -26 -77
q-25 -42 -57 -42q-46 0 -38 46q11 73 35 221q3 22 -20 29q-4 1 -10 2t-7 1h-15q-38 0 -54 -20q-47 39 -122 39q-56 0 -103 -20t-78 -53t-50 -72t-26 -80q-9 -56 5 -106t60.5 -85.5t119.5 -35.5q99 0 167 63q40 -42 108 -42q37 0 75 15q71 27 111 88.5t51 128.5
q13 81 -3.5 154t-59.5 131t-121.5 92t-182.5 34zM577 453q50 0 69 -30t11 -77q-6 -45 -35.5 -75.5t-77.5 -30.5q-49 0 -69 30t-13 76t37 76.5t78 30.5z" />
    <glyph glyph-name="A" unicode="A" horiz-adv-x="751" 
d="M214 387q-200 -345 -201 -355q-2 -14 7.5 -23t25.5 -9h55q29 0 43 23l120 210h296l54 -210q2 -9 12.5 -16t22.5 -7h56q16 0 28.5 9t14.5 23q1 8 -40 166l-47 179l-65 246l-22 86l-4.5 18t-6.5 21q-8 26 -36 26h-57q-29 0 -45 -26q-5 -8 -211 -361zM470 587l60 -238h-198z
" />
    <glyph glyph-name="B" unicode="B" horiz-adv-x="697" 
d="M135 0h246q125 0 207.5 66.5t98.5 170.5q20 131 -83 194q77 55 90 139q16 99 -50.5 152t-186.5 53h-198q-19 0 -32 -10.5t-15 -25.5l-111 -703q-2 -14 7 -25t27 -11zM333 658h109q61 0 93 -21.5t24 -67.5q-15 -98 -136 -98h-120zM247 117l40 249q25 0 77 0.5t77 0.5
q64 0 92 -36.5t19 -93.5q-9 -56 -51.5 -87.5t-108.5 -31.5q-24 0 -72.5 -0.5t-72.5 -0.5z" />
    <glyph glyph-name="C" unicode="C" horiz-adv-x="794" 
d="M402 750q-128 -50 -201 -147t-92 -216q-12 -77 2.5 -147.5t54.5 -126.5t114.5 -89.5t174.5 -33.5q81 0 164.5 27t141.5 76q13 13 15 25q2 15 -20.5 40t-37.5 28q-3 1 -10 1q-16 0 -29 -8q-2 -1 -20 -14q-12 -8 -18 -11q-74 -42 -167 -42q-132 0 -190.5 79t-40.5 195
q19 117 103 197t216 80q111 0 184 -66q11 -11 26 -11q17 0 51.5 27.5t36.5 41.5q1 15 -8 24q-47 51 -118 78t-153 27q-95 0 -179 -34z" />
    <glyph glyph-name="D" unicode="D" horiz-adv-x="784" 
d="M135 0h192q197 0 321.5 111t150.5 276q12 79 -3 148t-56 123t-116 85.5t-175 31.5h-191q-19 0 -31 -11t-15 -25l-111 -703q-2 -14 7 -25t27 -11zM333 658h98q135 0 193 -76t40 -195q-19 -119 -101 -194t-218 -75h-98z" />
    <glyph glyph-name="E" unicode="E" horiz-adv-x="615" 
d="M135 0h398q18 0 30 11t14 24l8 47q2 14 -7 25t-28 11h-303l35 218h269q18 0 31 11t15 24l7 47q2 13 -7 24t-27 11h-270l33 205h293q20 0 32 10.5t14 25.5l7 45q2 14 -6.5 25t-27.5 11h-387q-19 0 -31 -11t-15 -25l-111 -703q-2 -14 7 -25t27 -11z" />
    <glyph glyph-name="F" unicode="F" horiz-adv-x="593" 
d="M135 0h54q18 0 30.5 11t14.5 25l48 300h269q18 0 31 11t15 24l7 47q2 13 -7 24t-27 11h-270l33 205h292q19 0 32 10.5t15 25.5l7 45q2 14 -6.5 25t-27.5 11h-386q-19 0 -32 -10.5t-15 -25.5l-111 -703q-2 -14 7 -25t27 -11z" />
    <glyph glyph-name="G" unicode="G" horiz-adv-x="868" 
d="M584 784q-101 0 -186.5 -33t-143.5 -89t-95 -126t-50 -149q-12 -76 1 -145.5t50.5 -126t110.5 -90.5t172 -34q101 0 182 34.5t132 93t82 126.5t43 144q3 13 -6 24.5t-27 11.5h-327q-18 0 -30.5 -11.5t-15.5 -24.5l-7 -46q-2 -13 7 -24.5t27 -11.5h230q-71 -195 -271 -195
q-128 0 -182.5 80.5t-36.5 194.5q18 117 103 196.5t219 79.5q109 0 181 -66l4 -4q1 -1 5 -3q7 -4 17 -4q16 0 51 28.5t37 41.5q3 13 -8 24q-99 104 -268 104z" />
    <glyph glyph-name="H" unicode="H" horiz-adv-x="784" 
d="M101 36q-2 -14 7 -25t27 -11h55q18 0 30 11.5t14 24.5l48 300h325l-47 -300q-2 -14 6.5 -25t27.5 -11h55q18 0 30.5 11t14.5 25l112 704q2 13 -7 24t-27 11h-55q-19 0 -31 -11t-15 -25l-45 -286h-326l46 287q2 13 -7 24t-27 11h-54q-19 0 -31 -11t-15 -25z" />
    <glyph glyph-name="I" unicode="I" horiz-adv-x="324" 
d="M135 0h55q17 0 29.5 11t14.5 24l112 704q2 14 -7.5 25t-27.5 11h-54q-19 0 -30.5 -11t-14.5 -25l-111 -704q-2 -14 7 -24.5t27 -10.5z" />
    <glyph glyph-name="J" unicode="J" horiz-adv-x="484" 
d="M22 35q-3 -25 14 -35t43 -10q3 0 8 0.5t7 0.5q81 0 145 28t103.5 75t63 100.5t32.5 113.5l69 431q2 14 -7.5 25t-27.5 11h-55q-19 0 -31 -11t-15 -25l-68 -431q-32 -196 -190 -196q-3 0 -9 0.5t-10 0.5q-31 0 -48 -28l-13 -23q-9 -21 -11 -27z" />
    <glyph glyph-name="K" unicode="K" horiz-adv-x="662" 
d="M135 0h55q17 0 29.5 11t14.5 24l43 271l230 -291q12 -15 34 -15h77q16 0 29 8t15 22q2 12 -8 24l-272 334l345 335q12 10 14 22q2 14 -8 22t-25 8h-72q-23 0 -39 -16l-293 -285l42 265q2 14 -7.5 25t-27.5 11h-54q-19 0 -30.5 -11t-14.5 -25l-111 -704q-2 -14 7 -24.5
t27 -10.5z" />
    <glyph glyph-name="L" unicode="L" horiz-adv-x="538" 
d="M135 0h333q18 0 30 11t14 24l8 47q2 14 -7.5 25t-27.5 11h-238l99 621q2 14 -7.5 25t-27.5 11h-54q-19 0 -30.5 -11t-14.5 -25l-111 -704q-2 -14 7 -24.5t27 -10.5z" />
    <glyph glyph-name="M" unicode="M" horiz-adv-x="976" 
d="M211 734l-109 -693q-3 -16 6.5 -28.5t31.5 -12.5h49q18 0 30.5 11t14.5 25l68 425l120 -436q7 -25 38 -25h56q31 0 45 25l260 438l-68 -427q-2 -14 7.5 -25t27.5 -11h54q18 0 31 11t15 25l111 703q2 14 -7 25t-27 11h-69q-30 0 -44 -24l-334 -560l-155 559q-7 25 -47 25
h-53q-22 0 -36 -12.5t-16 -28.5z" />
    <glyph glyph-name="N" unicode="N" horiz-adv-x="827" 
d="M212 739l-111 -703q-2 -14 7 -25t27 -11h54q18 0 30.5 11t14.5 25l81 509l275 -527q10 -18 34 -18h68q18 0 31 11t15 25l111 703q3 13 -5.5 24.5t-27.5 11.5h-54q-19 0 -31.5 -11t-14.5 -25l-81 -510l-274 526q-11 20 -34 20h-69q-19 0 -31 -11t-15 -25z" />
    <glyph glyph-name="O" unicode="O" horiz-adv-x="917" 
d="M584 784q-101 0 -186.5 -33t-143.5 -89t-95 -126t-50 -149q-12 -79 2.5 -149t55 -125.5t115.5 -88.5t176 -33t186.5 33t143.5 89t95 126t49 148q13 78 -2 148.5t-55.5 126.5t-115.5 89t-175 33zM565 663q133 0 191.5 -79.5t40.5 -196.5t-102.5 -196t-217.5 -79t-192.5 79
t-41.5 196t103 196.5t219 79.5z" />
    <glyph glyph-name="P" unicode="P" horiz-adv-x="648" 
d="M135 0h55q18 0 30.5 11t14.5 25l44 276h139q127 0 207.5 63t97.5 168t-44 168.5t-188 63.5h-232q-19 0 -32 -10.5t-15 -25.5l-111 -703q-2 -14 7 -25t27 -11zM334 658h141q132 0 113 -116q-17 -112 -150 -112h-140z" />
    <glyph glyph-name="Q" unicode="Q" horiz-adv-x="906" 
d="M458 -9q62 0 120 13q87 -148 219 -148q52 0 113 22q3 1 9 3.5t9 3.5q5 1 20 9q25 16 29 35q2 10 -10 34q-9 15 -19 25q-12 14 -32 14q-9 0 -24 -5l-8 -3q-1 -1 -5 -3q-35 -10 -58 -10q-63 0 -112 74q97 56 152.5 144.5t70.5 187.5q13 78 -2 148.5t-55.5 126.5t-115.5 89
t-175 33q-101 0 -186.5 -33t-143.5 -89t-95 -126t-50 -149q-12 -79 2.5 -149t55 -125.5t115.5 -88.5t176 -33zM477 202l44 -87q-23 -3 -44 -3q-133 0 -192.5 79t-41.5 196t103 196.5t219 79.5q133 0 191.5 -79.5t40.5 -196.5q-25 -152 -143 -226l-86 178q-9 20 -32 20
q-9 0 -37.5 -10.5t-35.5 -13.5q-25 -13 -27 -33q-2 -2 0 -8q2 -4 3 -8l9 -22q2 -4 12.5 -26.5t16.5 -35.5z" />
    <glyph glyph-name="R" unicode="R" horiz-adv-x="657" 
d="M135 0h55q18 0 30.5 11t14.5 25l44 276h60l137 -293q9 -19 33 -19h71q16 0 29 8.5t15 22.5q1 11 -67 147l-73 143q94 21 149 80.5t68 141.5q17 106 -43.5 169t-187.5 63h-212q-19 0 -31 -11t-15 -25l-111 -703q-2 -14 7 -25t27 -11zM334 658h119q133 0 114 -116
q-18 -112 -150 -112h-119z" />
    <glyph glyph-name="S" unicode="S" horiz-adv-x="662" 
d="M169 190h-6q-10 2 -16 2q-20 0 -48.5 -33.5t-30.5 -47.5q-3 -12 6 -24q35 -47 109.5 -72t150.5 -25q131 0 213.5 60t99.5 169q7 45 -2.5 80t-34.5 59t-53 39t-67 28q-21 7 -65.5 20t-65.5 20q-63 23 -76 53q-8 17 -3 45q7 44 52.5 71.5t102.5 27.5q82 0 142 -49l2 -3
l4 -4q8 -8 16 -9q1 0 2.5 -0.5t2.5 -1.5h8q23 0 39 20q10 12 21 29q14 22 17 35q3 15 -8 27q-34 38 -95 58t-126 20q-118 0 -209 -62t-106 -160q-16 -99 41.5 -156t172.5 -87q42 -10 55 -14q27 -7 53 -20q52 -27 45 -69q-8 -50 -49.5 -77t-104.5 -27q-117 0 -185 74z" />
    <glyph glyph-name="T" unicode="T" horiz-adv-x="632" 
d="M154 658h199l-98 -623q-2 -13 6.5 -24t26.5 -11h55q17 0 30 11t15 24l99 623h199q18 0 31 11t15 25l7 45q2 14 -7 25t-27 11h-532q-19 0 -31 -11.5t-14 -24.5l-7 -46q-2 -13 6.5 -24t26.5 -11z" />
    <glyph glyph-name="U" unicode="U" horiz-adv-x="779" 
d="M212 739l-68 -430q-8 -38 -6 -76t9 -73.5t26.5 -66t47 -53.5t70.5 -36t98 -13q81 0 144.5 28t103.5 75t63 100.5t33 113.5l68 431q2 14 -7 25t-28 11h-54q-19 0 -31 -11t-15 -25l-68 -431q-6 -39 -18.5 -72t-34 -62t-56.5 -45.5t-80 -16.5q-87 0 -116 56t-16 140l69 431
q2 13 -7 24t-27 11h-56q-19 0 -30.5 -11t-13.5 -24z" />
    <glyph glyph-name="V" unicode="V" horiz-adv-x="746" 
d="M168 774q-40 0 -45 -33q-2 -9 39 -168l47 -177l68 -257l19 -74q1 -3 2.5 -9.5t2.5 -9.5q1 -12 6 -21q11 -25 38 -25h55q27 0 46 24q5 6 11 18q6 10 8 15l197 339q16 29 103 178q91 159 92 168q2 15 -7.5 23.5t-26.5 8.5h-63q-30 0 -43 -25l-314 -559l-138 559
q-5 25 -36 25h-61z" />
    <glyph glyph-name="W" unicode="W" horiz-adv-x="982" 
d="M165 775q-17 0 -28.5 -9.5t-13.5 -22.5q-2 -5 0 -11l106 -705q2 -11 12 -19t25 -8h45q15 0 27.5 8t17.5 20l220 515l56 -515q1 -11 10.5 -19.5t24.5 -8.5h49q27 0 44 26q4 7 19 40l40 86l116 246q82 174 122 260q1 3 4 9t7.5 16t7.5 17q6 10 12 25q1 2 2.5 5.5t1.5 4.5
l2 8q2 13 -7 22.5t-26 9.5h-59q-30 0 -41 -27l-227 -499l-55 497q-2 12 -12 20.5t-26 8.5h-59q-33 0 -45 -29l-211 -493l-67 493q-4 29 -37 29h-57z" />
    <glyph glyph-name="X" unicode="X" horiz-adv-x="672" 
d="M42 0h70q25 0 41 18l225 257l135 -257q9 -18 36 -18h72q15 0 27.5 8t14.5 22q2 12 -90 181q-81 145 -98 176l301 338q7 7 9 19q2 14 -8 22t-25 8h-69q-27 0 -43 -19l-224 -258l-134 259q-10 19 -34 19h-74q-16 0 -28.5 -8t-14.5 -22q-2 -11 90 -182q65 -120 98 -177
q-150 -167 -155 -173q-68 -76 -102 -115q-32 -35 -44 -51l-4 -6q-5 -9 -5 -11q-1 -13 8.5 -21.5t24.5 -8.5z" />
    <glyph glyph-name="Y" unicode="Y" horiz-adv-x="661" 
d="M168 774q-16 0 -29.5 -9t-16.5 -23q-1 -8 3 -18l126 -281q4 -8 9.5 -19.5t13.5 -26t13 -23.5q24 -46 25 -66q0 -2 -2 -16q-1 -4 -2.5 -11t-1.5 -8l-14 -92q-4 -24 -11.5 -72.5t-11.5 -72.5q-2 -14 7.5 -25t27.5 -11h54q18 0 31 11t15 25l42 266v6q7 19 46 65
q8 10 29.5 35t28.5 35l215 281q6 8 8 18q2 14 -7.5 23t-26.5 9h-63q-29 0 -45 -23l-231 -313l-132 313q-10 23 -37 23h-63z" />
    <glyph glyph-name="Z" unicode="Z" horiz-adv-x="657" 
d="M69 0h518q18 0 31 11t15 25l7 46q2 14 -7 25t-27 11h-358l474 601q9 12 10 21q2 15 -8.5 25t-28.5 10h-494q-18 0 -30.5 -11t-14.5 -25l-8 -46q-2 -14 7.5 -24.5t27.5 -10.5h333l-475 -605q-8 -9 -9 -20q-3 -16 8.5 -24.5t28.5 -8.5z" />
    <glyph glyph-name="bracketleft" unicode="[" horiz-adv-x="419" 
d="M97 -168h193q19 0 31 10.5t15 24.5l6 42q2 13 -7 24.5t-27 11.5h-104l114 718h104q18 0 30.5 11t14.5 24l7 41q2 14 -7.5 25t-27.5 11h-192q-19 0 -31 -11t-15 -25l-138 -872q-2 -14 6.5 -24.5t27.5 -10.5z" />
    <glyph glyph-name="backslash" unicode="\" horiz-adv-x="450" 
d="M371 0h49q17 0 29.5 9.5t14.5 23.5q2 12 -46 173q-50 175 -53 187l-74 257l-26 90q-1 3 -5 18t-7 23q-9 23 -35 23h-51q-16 0 -29 -9.5t-15 -23.5q-1 -8 46 -174l54 -187l78 -270l22 -77q1 -6 5 -20q1 -9 7 -22q11 -21 36 -21z" />
    <glyph glyph-name="bracketright" unicode="]" horiz-adv-x="419" 
d="M76 -168h192q19 0 31.5 10.5t14.5 24.5l138 872q2 14 -7 25t-28 11h-191q-19 0 -31 -11t-15 -25l-6 -41q-2 -13 7 -24t27 -11h103l-114 -717h-102q-18 0 -31 -11t-15 -25l-7 -42q-2 -14 6.5 -25t27.5 -11z" />
    <glyph glyph-name="asciicircum" unicode="^" horiz-adv-x="684" 
d="M146 270h56q29 0 43 23l194 321l93 -321q5 -23 35 -23h56q17 0 30 9.5t15 23.5q1 11 -63 222q-58 195 -68 224q-9 25 -39 25h-67q-29 0 -46 -25q-10 -15 -140 -225q-132 -209 -133 -221q-2 -14 7.5 -23.5t26.5 -9.5z" />
    <glyph glyph-name="underscore" unicode="_" horiz-adv-x="686" 
d="M81 -140h480q18 0 31 11t15 25l6 39q2 13 -7 24t-27 11h-481q-18 0 -30.5 -11t-14.5 -24l-7 -39q-2 -14 7 -25t28 -11z" />
    <glyph glyph-name="a" unicode="a" 
d="M480 40q0 -5 1 -8q2 -32 38 -32q4 0 12 -0.5t12 -0.5q60 0 66 42l68 431q4 26 -20 36q-16 6 -41 6q-44 0 -60 -25q-5 -8 -6 -16q-57 50 -156 50q-66 0 -122.5 -23t-94.5 -61t-62 -85t-32 -97q-8 -51 1 -97.5t35 -85t75 -61.5t116 -23q96 0 170 50zM383 407
q72 0 106.5 -43t24.5 -107q-9 -63 -58 -106.5t-121 -43.5t-104 43t-22 107t56 107t118 43z" />
    <glyph glyph-name="b" unicode="b" 
d="M214 40q59 -50 154 -50q130 0 212.5 79t99.5 188q8 51 -1 97.5t-35 84.5t-75 61t-116 23q-97 0 -171 -50l41 261q4 26 -20 36q-13 5 -41 5q-60 0 -67 -41l-109 -693q-4 -27 20 -37q13 -5 43 -5q44 0 59 26q4 7 6 15zM428 407q72 0 103.5 -43t21.5 -107t-55.5 -107
t-117.5 -43q-71 0 -106 43.5t-26 106.5q10 63 59 106.5t121 43.5z" />
    <glyph glyph-name="c" unicode="c" horiz-adv-x="596" 
d="M404 524q-132 0 -218 -78.5t-103 -188.5q-11 -70 9 -129.5t78 -98.5t147 -39q154 0 249 111q9 11 10 20t-5 19q-5 8 -12 15q-14 16 -25 23q-9 9 -25 9q-13 0 -24 -7q-7 -3 -9 -7l-4 -4q-54 -62 -137 -62q-72 0 -104 43t-22 107q10 63 56 106t118 43q81 0 117 -62
q0 -2 2 -4q2 -4 5 -6q11 -9 24 -9q4 0 13 3q3 1 11 5l22 14q29 23 33 27q8 9 9 18q1 10 -4 20q-25 52 -82.5 82t-128.5 30z" />
    <glyph glyph-name="d" unicode="d" 
d="M481 39q0 -5 1 -8q2 -32 38 -32h22q18 0 27 2q34 7 40 39l110 693q4 26 -20 36q-16 6 -41 6q-60 0 -66 -42l-41 -260q-59 49 -155 49q-130 0 -212.5 -78.5t-99.5 -187.5q-11 -69 7.5 -128t75.5 -99t145 -40q95 0 169 50zM384 406q72 0 106.5 -43.5t24.5 -106.5
q-9 -63 -58 -106.5t-121 -43.5t-104.5 43t-22.5 107t56.5 107t118.5 43z" />
    <glyph glyph-name="e" unicode="e" horiz-adv-x="637" 
d="M401 523q-132 0 -216.5 -78t-101.5 -188q-18 -112 46.5 -189.5t198.5 -77.5q138 0 230 83q11 9 14 23q2 14 -23 41t-43 27q-8 0 -18 -4q-5 -2 -13 -8q-4 -2 -13 -8.5t-15 -10.5q-42 -26 -100 -26q-56 0 -92 25t-45 69h378q18 0 30.5 11.5t14.5 24.5q5 43 4.5 84t-17 77.5
t-42.5 64.5t-71.5 44t-105.5 16zM509 312h-282q21 44 61.5 69.5t94.5 25.5q53 0 85.5 -25.5t40.5 -69.5z" />
    <glyph glyph-name="f" unicode="f" horiz-adv-x="378" 
d="M138 0h48q18 0 31 11t15 25l58 367h92q18 0 31 11t15 24l6 39q2 14 -7 25t-27 11h-93l17 102q5 33 17 55q15 29 36 29q16 0 38 -11l15 -9l8 -3q4 -2 10 -2q21 0 37 18l23 26q2 3 6 8.5t5 6.5q7 12 7 17q4 16 -12 28q-51 38 -121 38q-47 0 -84 -18.5t-59.5 -49t-35.5 -62
t-18 -63.5l-17 -110h-52q-18 0 -30.5 -11t-14.5 -25q-6 -38 -6 -41q0 -20 11 -27t35 -7q23 0 39 1l-57 -367q-2 -14 7 -25t27 -11z" />
    <glyph glyph-name="g" unicode="g" 
d="M550 473q-57 50 -156 50q-66 0 -122.5 -23t-94.5 -61t-62 -85t-32 -97q-8 -51 1 -97.5t35 -85t75 -61.5t116 -23q96 0 171 51q-1 -4 -2 -13t-2 -14q-11 -66 -56.5 -105.5t-121.5 -39.5q-73 0 -130 37q-11 7 -26 8h-4l-4 -2q-16 -6 -38.5 -34t-24.5 -42q-3 -19 13 -30
q31 -24 88.5 -38.5t106.5 -14.5q134 0 221 77.5t105 189.5l71 452q4 26 -20 36q-16 6 -41 6q-44 0 -60 -25q-4 -7 -6 -16zM383 407q72 0 106.5 -43t24.5 -107q-9 -63 -58 -106.5t-121 -43.5t-104 43t-22 107t56 107t118 43z" />
    <glyph glyph-name="h" unicode="h" horiz-adv-x="646" 
d="M119 0h49q18 0 30.5 11t14.5 25l34 212q9 58 54 108.5t104 50.5q56 0 73 -30t9 -85l-41 -257q-2 -14 7.5 -24.5t27.5 -10.5h48q18 0 31 10.5t15 24.5l41 257q9 42 2.5 83.5t-24.5 74.5t-60 53t-103 20q-85 0 -150 -47l39 258q4 27 -20 36q-16 6 -42 6q-23 0 -42.5 -10
t-22.5 -32l-109 -699q-2 -14 8 -24.5t27 -10.5z" />
    <glyph glyph-name="i" unicode="i" horiz-adv-x="294" 
d="M266 743q-39 0 -65 -22.5t-31 -54.5q-6 -32 13 -55t59 -23t64.5 23.5t29.5 54.5t-13 54t-57 23zM124 0h47q18 0 31 10.5t15 24.5l70 443q2 14 -7.5 24.5t-27.5 10.5h-48q-18 0 -30 -11t-15 -24l-70 -443q-2 -14 7.5 -24.5t27.5 -10.5z" />
    <glyph glyph-name="j" unicode="j" horiz-adv-x="316" 
d="M285 743q-39 0 -65 -23.5t-31 -54.5t13.5 -54t57.5 -23q40 0 65.5 23t30.5 54t-13.5 54.5t-57.5 23.5zM-29 -107q-22 0 -48 -30t-29 -46q-1 -16 9 -25q3 -3 9 -7l10 -6q49 -28 105 -28q46 0 83 18.5t59.5 49t36 62t18.5 63.5l83 533q2 14 -6.5 25t-27.5 11h-47
q-19 0 -32 -11t-15 -25l-83 -524q-5 -33 -17 -55q-15 -29 -35 -29q-13 0 -37 10q-12 6 -17 9q-10 5 -19 5z" />
    <glyph glyph-name="k" unicode="k" horiz-adv-x="547" 
d="M119 0h49q17 0 30 11t15 24l26 160l159 -181q12 -14 34 -14h72q16 0 29.5 8t15.5 23q2 14 -9 25l-194 220l223 181q16 14 18 26q2 15 -9 22.5t-27 7.5h-73q-21 0 -37 -13l-178 -151l66 421q2 14 -7 24t-27 10h-49q-17 0 -30 -10t-15 -24l-116 -735q-2 -13 7.5 -24
t26.5 -11z" />
    <glyph glyph-name="l" unicode="l" horiz-adv-x="295" 
d="M124 0h48q17 0 30 11t15 24l112 705q2 14 -7.5 24t-27.5 10h-48q-18 0 -30.5 -10t-14.5 -24l-111 -705q-2 -14 7 -24.5t27 -10.5z" />
    <glyph glyph-name="m" unicode="m" horiz-adv-x="951" 
d="M277 478q0 8 -3 15q-9 20 -54 20q-58 0 -64 -41l-69 -437q-3 -13 5.5 -24t26.5 -11h46q18 0 31 11t15 25l33 212q10 56 51 107.5t96 51.5q67 0 74 -60q2 -23 0 -33l-14 -93l-30 -185q-2 -13 7.5 -24.5t27.5 -11.5h46q18 0 30 11t14 24l25 160l13 80q3 11 4 14l7 16
q46 102 125 102q88 0 69 -115l-40 -256q-2 -14 7 -25t27 -11h49q18 0 31 11t15 25l39 256q9 39 4 80t-20 74.5t-54.5 55t-98.5 21.5q-101 0 -179 -73q-43 73 -153 73q-78 0 -139 -45z" />
    <glyph glyph-name="n" unicode="n" horiz-adv-x="647" 
d="M281 476q0 10 -4 18q-9 20 -57 20q-60 0 -66 -42l-69 -437q-2 -13 7.5 -24t26.5 -11h49q18 0 30.5 11t14.5 25l34 212q9 58 54 108.5t104 50.5q56 0 73 -30t9 -85l-41 -257q-2 -14 7.5 -24.5t27.5 -10.5h48q18 0 31 10.5t15 24.5l41 257q9 42 2.5 83.5t-24.5 74.5t-60 53
t-103 20q-86 0 -150 -47z" />
    <glyph glyph-name="o" unicode="o" horiz-adv-x="637" 
d="M401 523q-132 0 -216.5 -78t-101.5 -188q-11 -70 9 -129.5t78 -98.5t147 -39q132 0 217 78.5t102 188.5q18 109 -42.5 187.5t-192.5 78.5zM383 407q72 0 104 -42.5t22 -107.5t-56 -107.5t-118 -42.5t-104 43t-22 107t56 107t118 43z" />
    <glyph glyph-name="p" unicode="p" 
d="M284 474q2 10 -3 21q-10 20 -59 20q-23 0 -43 -10t-23 -32l-110 -693q-4 -26 20 -36q13 -6 42 -6q58 0 65 42l41 261q59 -50 156 -50q66 0 122.5 23t94.5 61t62 84.5t32 97.5t-1 97.5t-35 85t-75 61.5t-116 23q-96 0 -170 -50zM429 407q72 0 103.5 -43t21.5 -107
t-55.5 -107t-117.5 -43t-106 43t-25 107q10 63 58.5 106.5t120.5 43.5z" />
    <glyph glyph-name="q" unicode="q" 
d="M550 474q-59 50 -153 50q-130 0 -213 -79t-100 -188t40.5 -187.5t187.5 -78.5q98 0 170 50l-41 -261q-3 -15 7 -28t31 -13h23q17 0 26 2q34 7 40 39l110 693q3 27 -21 37q-13 5 -42 5q-44 0 -59 -26q-4 -7 -6 -15zM384 407q72 0 106.5 -43.5t24.5 -106.5
q-9 -63 -58 -106.5t-121 -43.5t-104 43t-22 107t56 107t118 43z" />
    <glyph glyph-name="r" unicode="r" horiz-adv-x="415" 
d="M280 476v6q-4 31 -39 31h-35q-20 0 -35 -13t-17 -28l-69 -437q-2 -13 7.5 -24t26.5 -11h49q18 0 30.5 11t14.5 25l34 212q9 58 54 108.5t104 50.5h7q3 1 9 1q11 3 18 10q11 9 20.5 30t11.5 33q3 14 -8.5 28t-30.5 14q-85 0 -152 -47z" />
    <glyph glyph-name="s" unicode="s" horiz-adv-x="485" 
d="M137 146q-6 3 -15 3q-23 0 -47 -29.5t-26 -44.5q-3 -17 9 -29q8 -6 11 -9l11 -6q66 -40 159 -40q88 0 154 41.5t78 115.5q11 67 -23.5 102t-97.5 56q-26 8 -48 14q-32 11 -40 14q-32 14 -29 37q6 36 76 36q51 0 93 -28l8 -4q8 -4 13 -4q22 0 37 19q17 22 20 27
q11 17 14 32t-10 26q-25 24 -68 36.5t-87 12.5q-85 0 -149.5 -42.5t-75.5 -112.5q-11 -67 24 -102t98 -56l49 -15q26 -7 40 -14q33 -14 29 -36q-3 -19 -28 -29.5t-58 -10.5q-66 0 -113 35q-1 1 -2 1t-2 1z" />
    <glyph glyph-name="t" unicode="t" horiz-adv-x="394" 
d="M115 403h51l-34 -218q-7 -27 -5 -61t10.5 -64t38 -50t77.5 -20q60 0 123 43q16 12 18 26q1 7 -3 16q-6 15 -7 17q-11 19 -17 26q-10 15 -30 15q-12 0 -22 -6l-16 -10q-18 -10 -25 -10q-14 0 -17 28q-1 11 1 29t3 24l34 215h93q17 0 30.5 10.5t15.5 23.5l6 40q2 14 -7 25
t-27 11h-94l22 137q2 13 -7.5 23.5t-26.5 10.5h-49q-19 0 -30.5 -11t-14.5 -25l-21 -135h-53q-18 0 -30.5 -11t-14.5 -25l-7 -40q-2 -13 8 -23.5t27 -10.5z" />
    <glyph glyph-name="u" unicode="u" horiz-adv-x="647" 
d="M449 38v-6q4 -32 39 -32q3 0 10.5 -0.5t11.5 -0.5q60 0 66 42l69 437q2 13 -7.5 24t-26.5 11h-49q-19 0 -31 -11t-15 -25l-33 -213q-9 -57 -54.5 -107.5t-104.5 -50.5q-55 0 -72.5 30t-8.5 84l41 258q2 14 -7.5 24.5t-27.5 10.5h-50q-18 0 -30 -11t-14 -24l-41 -256
q-9 -43 -2.5 -84.5t24 -74.5t59.5 -53t103 -20q86 0 151 48z" />
    <glyph glyph-name="v" unicode="v" horiz-adv-x="542" 
d="M245 0h52q27 0 45 25q8 11 16 24.5t17.5 30.5t14.5 25l92 154q61 102 67 112q58 96 61 109q2 14 -7.5 23.5t-26.5 9.5h-57q-31 0 -46 -27l-174 -307l-77 308q-6 26 -35 26h-59q-17 0 -29.5 -9.5t-14.5 -23.5t26 -109q6 -22 13 -47t12 -44t6 -21l45 -162l15 -51
q1 -1 1 -4.5t1 -5.5q2 -8 4 -11q10 -25 38 -25z" />
    <glyph glyph-name="w" unicode="w" horiz-adv-x="736" 
d="M126 513q-16 0 -28 -9t-14 -22v-6q0 -4 1 -6q0 -5 2 -17q2 -17 4 -27l24 -164l24 -155q10 -66 13 -80q4 -27 35 -27h58q14 0 28 8.5t19 19.5l125 275l38 -275q4 -28 36 -28h58q15 0 27 8t17 19l207 444q0 2 2 4q0 1 0.5 3.5t1.5 3.5q2 13 -7 22t-25 9h-59q-33 0 -45 -29
l-118 -274l-39 274q-4 29 -36 29h-52q-32 0 -46 -29l-126 -274l-31 274q-1 12 -10 20.5t-25 8.5h-59z" />
    <glyph glyph-name="x" unicode="x" horiz-adv-x="547" 
d="M64 0h64q29 0 47 20l120 132l80 -132q12 -20 40 -20h65q16 0 28.5 8t15.5 22q1 10 -5 22l-129 205l202 204q9 9 12 21q2 14 -8.5 22.5t-26.5 8.5h-64q-27 0 -45 -20l-131 -138l-84 138q-11 20 -39 20h-65q-16 0 -29 -8.5t-15 -22.5q-2 -11 5 -22l130 -209
q-18 -17 -102 -105q-34 -35 -66 -71q-17 -18 -22 -26q-2 -2 -4 -5t-3 -4q-4 -5 -4 -10q-2 -14 7.5 -22t25.5 -8z" />
    <glyph glyph-name="y" unicode="y" horiz-adv-x="548" 
d="M78 -205q-2 -14 8 -23.5t28 -9.5h49q27 0 45 25q16 23 204 345q199 339 201 347q2 14 -8 24t-27 10h-56q-31 0 -46 -26l-175 -303l-75 302q-7 27 -38 27h-56q-17 0 -30 -9t-15 -24q-2 -9 55 -216q46 -166 68 -237q-42 -70 -70 -119q-59 -99 -62 -113z" />
    <glyph glyph-name="z" unicode="z" horiz-adv-x="540" 
d="M92 0h359q19 0 31 11t15 25l6 38q2 15 -6.5 25.5t-28.5 10.5h-206l290 347q9 14 11 22q2 15 -9 24.5t-29 9.5h-342q-19 0 -31 -11t-15 -25l-6 -40q-2 -13 7.5 -23.5t27.5 -10.5h191l-292 -349q-9 -14 -10 -21q-3 -16 8.5 -24.5t28.5 -8.5z" />
    <glyph glyph-name="braceleft" unicode="{" horiz-adv-x="450" 
d="M275 -170h46q18 0 31 11t15 25l6 43q5 31 -31 35q-11 3 -25 1h-22l-1 1q-2 3 -3 10q-2 11 2 40l26 166q14 87 -38 140q69 53 83 140l26 167q4 26 11 39q3 7 6 10l2 1q3 0 10 -0.5t11 -0.5q16 0 25 1q38 6 43 36l7 43q2 14 -7 25t-28 11h-45q-41 0 -72.5 -16t-49.5 -43
t-28 -52.5t-14 -53.5l-27 -172q-10 -58 -52 -76l-2 -1h-3q-6 -2 -8 -2q-30 -9 -33 -32l-8 -45q-3 -25 24 -34q50 -15 39 -80l-27 -171q-6 -24 -3 -53t11.5 -54t35 -42t67.5 -17z" />
    <glyph glyph-name="braceright" unicode="}" horiz-adv-x="450" 
d="M76 -170h46q33 0 60 11.5t44 28.5t30 40.5t19 43.5t10 42l27 171q10 64 66 80q29 8 33 33l7 44q4 23 -21 33l-10 3l-4 1q-37 18 -29 76l28 172q6 24 3 53t-11.5 53.5t-35 41.5t-67.5 17h-45q-19 0 -31 -11t-15 -25l-7 -43q-2 -14 7 -25t27 -11h43q1 -1 1 -2q2 -3 4 -14
q1 -15 -2 -34q-5 -28 -14.5 -83.5t-13.5 -83.5q-12 -86 40 -140q-70 -54 -84 -140q-1 -6 -6.5 -45t-9.5 -64q-13 -83 -20 -96q-3 -7 -6 -10l-2 -1h-43q-18 0 -30.5 -11t-14.5 -25l-7 -44q-2 -14 6.5 -25t27.5 -11z" />
    <glyph glyph-name="asciitilde" unicode="~" horiz-adv-x="664" 
d="M231 259q17 14 36 14q17 0 32 -14q3 -2 17 -16l19 -20q58 -58 131 -58q66 0 119.5 44t82.5 100q2 4 4 12q2 15 -7 27q-3 5 -21 25q-9 9 -14 13q-11 8 -21 8q-19 0 -31 -14q-7 -7 -15 -21q-4 -7 -12 -19q-16 -24 -28 -34q-18 -15 -35 -15t-33 13l-17 17q-6 6 -18 20
q-57 57 -133 57q-66 0 -117.5 -43t-82.5 -100q-4 -8 -5 -13q-1 -6 4 -18q1 -3 10 -16q3 -4 7 -9t8 -9.5t6 -6.5q11 -13 28 -13q18 0 30 12q5 3 8 10l8 11q8 15 12 21q16 24 28 35z" />
    <glyph glyph-name="cent" unicode="&#xa2;" horiz-adv-x="715" 
d="M446 -72l10 64q108 14 177 74q14 13 17 28q2 13 -13 35q-11 14 -24 25q-11 11 -29 11t-33 -11q-38 -25 -65.5 -35t-67.5 -10q-81 0 -120.5 47.5t-27.5 117.5q11 70 65 117t135 47q60 0 98 -29q2 -1 8 -7l4 -4q1 -1 3 -2.5t3 -2.5q13 -9 29 -9q17 0 33 11q20 15 31 25
q22 19 24 35q3 15 -8 27q-47 57 -149 73l10 63q2 15 -9 28t-31 13h-52q-21 0 -36 -13t-17 -28l-11 -68q-114 -25 -188.5 -102.5t-90.5 -173.5q-15 -97 35.5 -174.5t156.5 -102.5l-11 -69q-2 -15 8.5 -28t30.5 -13h53q20 0 35 13t17 28z" />
    <glyph glyph-name="sterling" unicode="&#xa3;" horiz-adv-x="763" 
d="M329 127l28 182h256q20 0 35 12.5t17 28.5l7 45q2 16 -8.5 28.5t-30.5 12.5h-255l9 60q9 59 55 96.5t114 37.5q56 0 92 -27l7 -6q3 -5 8 -8q11 -11 29 -11q7 0 22 5q7 3 21 11q16 8 34 20q23 14 26 33q3 15 -7 27q-29 40 -89 62.5t-123 22.5q-134 0 -228 -76t-112 -187
l-10 -60h-51q-20 0 -34.5 -13t-16.5 -28q-5 -27 -7 -47t10 -30q9 -7 36 -9h43l-29 -182h-51q-21 0 -35 -13t-16 -28l-7 -45q-3 -15 7 -28t31 -13h548q21 0 36 12.5t17 28.5l7 45q2 15 -8.5 28t-30.5 13h-346z" />
    <glyph glyph-name="yen" unicode="&#xa5;" horiz-adv-x="858" 
d="M755 436h-79l219 236q12 12 15 28q2 19 -10 31.5t-35 12.5h-65q-23 0 -39 -16l-263 -294l-170 294q-10 16 -34 16h-64q-23 0 -39.5 -13.5t-19.5 -31.5q-3 -14 5 -27l144 -236h-77q-20 0 -34.5 -13t-16.5 -28q0 -1 -1.5 -7.5t-2.5 -10.5q-2 -20 -2 -24q0 -14 9 -24.5
t29 -10.5h167l11 -18l-5 -30h-180q-21 0 -35 -13t-17 -28q0 -3 -1.5 -9.5t-1.5 -8.5q-3 -12 -3 -24q2 -36 39 -36h181l-18 -110q-2 -16 8.5 -28.5t31.5 -12.5h59q21 0 35 13t16 28l18 110h180q22 0 36.5 13t16.5 29q1 4 3 18q3 11 3 23q-2 36 -40 36h-180l4 30l17 18h167
q21 0 35.5 12t16.5 28q3 13 4 18q2 16 2 24q-2 36 -39 36z" />
    <glyph glyph-name="copyright" unicode="&#xa9;" horiz-adv-x="1074" 
d="M536 757q-196 0 -317 -110.5t-121 -273.5t121 -274t317 -111t317.5 111t121.5 274t-121.5 273.5t-317.5 110.5zM536 647q140 0 224 -78t84 -196t-84 -196.5t-224 -78.5q-141 0 -224 78t-83 197q0 118 84 196t223 78zM541 613q-118 0 -185.5 -71t-67.5 -169t65.5 -169.5
t183.5 -71.5q64 0 121 27t87 74q6 9 6 19q0 15 -26.5 38t-44.5 23q-14 0 -25 -8q-1 -1 -6 -5l-3 -4q-41 -53 -109 -53q-62 0 -96 37t-34 93t33.5 92.5t96.5 36.5q67 0 109 -54l3 -3q1 -3 6 -6q11 -8 25 -8q18 0 44.5 23.5t26.5 37.5q0 10 -6 19q-28 46 -84.5 74t-119.5 28z
" />
    <glyph glyph-name="registered" unicode="&#xae;" horiz-adv-x="1074" 
d="M536 757q-196 0 -317 -110.5t-121 -273.5t121 -274t317 -111t317.5 111t121.5 274t-121.5 273.5t-317.5 110.5zM536 647q140 0 224 -78t84 -196t-84 -196.5t-224 -78.5q-141 0 -224 78t-83 197q0 118 84 196t223 78zM418 136h31q18 0 29 11.5t11 24.5v146h9l100 -162
q14 -20 37 -20h41q17 0 28.5 9t11.5 24q0 4 -2 8q0 1 -1.5 3.5t-1.5 3.5t-4 8t-7 11l-33 53q-23 35 -50 74q49 17 73 54t24 84q0 67 -46 108.5t-127 41.5h-123q-18 0 -29.5 -11t-11.5 -25v-410q0 -14 11 -25t30 -11zM489 519h53q61 0 61 -51t-61 -51h-53v102z" />
    <glyph glyph-name="multiply" unicode="&#xd7;" horiz-adv-x="560" 
d="M144 442l97 -110l-134 -113q-12 -11 -14 -24q-2 -16 6 -25l34 -37q10 -12 27 -12q16 0 32 12l129 108l91 -107q9 -11 28 -11q18 0 31 11l42 35q12 11 14 25q2 15 -7 24l-97 110l134 113q13 11 14 24q3 14 -7 24l-32 37q-9 12 -28 12t-31 -12l-128 -108l-92 108
q-8 11 -28 11q-19 0 -31 -11l-42 -35q-12 -11 -14 -24q-2 -16 6 -25z" />
    <glyph glyph-name="divide" unicode="&#xf7;" horiz-adv-x="651" 
d="M403 270h190q18 0 30.5 11.5t15.5 24.5l8 48q2 14 -7.5 25t-27.5 11h-193q54 16 64 74q5 31 -12.5 54t-57.5 23q-39 0 -65 -23t-32 -54q-4 -24 7.5 -45t36.5 -29h-196q-18 0 -31 -11t-15 -25l-8 -48q-2 -14 7.5 -25t27.5 -11h192q-25 -8 -42 -28t-21 -44q-5 -31 14 -54
t59 -23q39 0 64 23t30 54q9 54 -38 72z" />
    <glyph glyph-name="endash" unicode="&#x2013;" horiz-adv-x="685" 
d="M167 270h438q18 0 30.5 11.5t14.5 24.5l8 48q2 14 -7.5 25t-27.5 11h-437q-18 0 -31 -11t-15 -25l-8 -48q-2 -14 7.5 -25t27.5 -11z" />
    <glyph glyph-name="emdash" unicode="&#x2014;" horiz-adv-x="971" 
d="M167 269h722q19 0 31 11t15 25l8 48q2 14 -7.5 25t-27.5 11h-722q-18 0 -31 -11t-15 -25l-8 -48q-2 -14 7 -25t28 -11z" />
    <glyph glyph-name="quoteleft" unicode="&#x2018;" horiz-adv-x="285" 
d="M260 795q-28 0 -50 -11t-34 -29.5t-18.5 -35.5t-9.5 -35q-9 -60 14.5 -123.5t75.5 -94.5q10 -6 21 -6q21 0 43 21.5t25 36.5q1 14 -8 25q-3 4 -11 11t-10 9q-26 31 -31 69q58 19 68 78q5 34 -13.5 59.5t-61.5 25.5z" />
    <glyph glyph-name="quoteright" unicode="&#x2019;" horiz-adv-x="286" 
d="M139 543q-13 -12 -16 -25q-3 -15 13 -36.5t36 -21.5q12 0 22 6q61 30 105.5 95t54.5 124q1 22 0.5 46.5t-20.5 44t-56 19.5q-43 0 -70 -25.5t-32 -59.5q-4 -25 6.5 -47t37.5 -31q-18 -38 -54 -69q-3 -3 -12.5 -9.5t-14.5 -10.5z" />
    <glyph glyph-name="quotedblleft" unicode="&#x201c;" horiz-adv-x="448" 
d="M424 795q-60 0 -91 -50q-11 50 -72 50q-53 0 -79 -34.5t-33 -76.5q-9 -60 14.5 -123.5t75.5 -94.5q10 -6 21 -6q21 0 43 21.5t25 36.5q1 14 -8 25q-3 4 -11 11t-10 9q-26 30 -32 69q26 8 44 28q-2 -57 22 -113.5t70 -80.5q10 -6 20 -6q20 0 42.5 21.5t25.5 35.5
q3 15 -10 26q-45 45 -50 89q58 19 68 78q5 33 -14 59t-61 26z" />
    <glyph glyph-name="quotedblright" unicode="&#x201d;" horiz-adv-x="448" 
d="M139 543q-13 -12 -16 -25q-3 -15 13 -36.5t36 -21.5q12 0 22 6q54 26 96 81.5t58 111.5q11 -18 34 -27q-9 -23 -28 -43q-15 -15 -23 -22q-9 -8 -29 -24q-13 -12 -16 -25q-2 -15 13 -36.5t36 -21.5q9 0 23 6q61 30 105.5 95.5t53.5 123.5q1 22 0.5 46.5t-20.5 44t-56 19.5
q-59 0 -89 -50q-15 50 -74 50q-43 0 -70 -25.5t-32 -59.5q-4 -25 6.5 -47t36.5 -31q-16 -37 -53 -69q-3 -3 -12.5 -9.5t-14.5 -10.5z" />
    <glyph glyph-name="Euro" unicode="&#x20ac;" horiz-adv-x="906" 
d="M197 231q23 -108 111 -175.5t223 -67.5q81 0 161 28t135 80q13 13 16 26q3 17 -11 31q-7 9 -24 24q-9 9 -17 13q-9 7 -22 7q-17 0 -36 -13q-46 -36 -86.5 -51.5t-95.5 -15.5q-70 0 -118.5 30t-69.5 84h281q34 0 47 27q6 14 7 20l3 17q2 21 -2 33q-10 21 -36 21h-316
q0 12 3 24q2 16 4 24h316q20 0 35 12t18 28q0 3 1.5 10t1.5 9q3 13 2 24q0 35 -39 35h-280q39 53 96.5 84t126.5 31q80 0 130 -47l6 -6q1 -1 5 -7q12 -12 15 -14q13 -11 30 -11t35 12q1 1 4 3t6 4.5t6 4.5q8 6 20 16q25 23 27 39q3 16 -14 36q-8 10 -13 14q-10 8 -13 11
q-87 72 -222 72t-244.5 -67t-167.5 -175h-66q-20 0 -34.5 -12.5t-16.5 -28.5l-6 -37q-2 -15 8.5 -27.5t30.5 -12.5h42q-2 -8 -4 -24q-3 -12 -3 -24q-11 1 -29 1q-20 0 -34 -5q-17 -6 -25 -22q-6 -12 -11 -38q-2 -21 2 -32q7 -22 35 -22h66z" />
    <glyph glyph-name="trademark" unicode="&#x2122;" horiz-adv-x="622" 
d="M217 694v-187q0 -36 50 -36q18 0 30.5 9t12.5 26v32l1 -1l6 -12l-6 4l20 -40q10 -18 41 -18q8 0 12 1q9 0 13 2q17 5 23 19l19 43v-30q0 -35 50 -35q19 0 31 9.5t12 25.5v239q0 34 -51 34q-36 0 -46 -22l-61 -140l-61 141q-4 12 -25 19q-9 2 -26 2q-13 0 -24 -4
q-8 2 -13 2h-180q-25 0 -34 -18q-5 -9 -5 -26q0 -14 9 -26t30 -12h42v-191q0 -35 51 -35q18 0 31 9t13 26v190h18h17z" />
    <glyph glyph-name="minus" unicode="&#x2212;" horiz-adv-x="651" 
d="M612 390h-448q-18 0 -31 -11t-15 -25l-8 -48q-2 -14 7.5 -25t27.5 -11h448q18 0 30.5 11.5t15.5 24.5l8 48q2 14 -7.5 25t-27.5 11z" />
    <glyph glyph-name="_FSHallmark" horiz-adv-x="980" 
d="M92 688v96h819v-96h-819zM904 505h-99q0 10 -7 22q-9 10 -18 17q-16 8 -23 10q-3 0 -11.5 1.5t-12.5 1.5q-25 0 -47 -12q-20 -13 -20 -29q0 -30 18 -40q25 -13 44 -17l65 -15q17 -6 29 -7q5 -1 24 -6q3 -2 10.5 -5.5t10.5 -5.5q21 -13 31 -27q11 -18 12 -43
q1 -26 -10 -49q-25 -41 -72 -58q-48 -15 -93 -15q-39 0 -67 9q-26 7 -57 27q-25 18 -42 47q-15 27 -15 64l95 -2q0 -5 4 -14q2 -15 14 -26q11 -11 25 -17q17 -9 46 -9q32 0 52 12q20 9 20 25q0 30 -78 46q-74 18 -120 43q-49 26 -49 82q0 48 32 74q31 25 72 39q34 8 68 8
q48 0 93 -18q44 -18 65 -65q11 -27 11 -48zM200 360v-132h-108v407h345v-93h-237v-91h197v-91h-197zM428 277q0 21 14 35q13 13 35 13q20 0 39 -14q16 -13 16 -34q0 -19 -16 -34q-17 -13 -39 -13q-19 0 -34 15q-15 13 -15 32zM90 80v97h820v-97h-820z" />
    <glyph glyph-name="_Fontastica" horiz-adv-x="980" 
d="M283 338v-191h-113q-1 2 -1 5v664h497v-102h-383v-273h384v-103h-384zM355 523v103h385v190h113v-667h-498v101h385v273h-385zM740 82q-7 -4 -7 -10q0 -9 5 -14q4 -6 12 -6q9 0 18 6l6 -6q-9 -11 -24 -11q-10 0 -21 6q-6 7 -9 21q-1 13 8 22q10 10 22 10q14 0 24 -10
l-6 -8q-1 1 -3 2.5t-3 2.5q-1 2 -9 2h-3q-9 -4 -10 -7zM170 42v57h42v-10h-27v-16h26v-9h-26v-22h-15zM264 99q18 0 29 -15q8 -11 2 -26q-6 -16 -25 -17l-7 -3q-8 0 -12 4q-18 8 -18 25q0 15 9 23q6 9 22 9zM374 99v-57h-3q-2 -1 -4 -1q-5 0 -9 6l-6 8q0 2 -2 4.5t-3 3.5
l-12 14v-35h-13v57h11q4 -1 6 -8q9 -9 13 -14q1 -2 5 -8l6 -9v39h11zM399 89v10h48v-10h-18v-47h-12v47h-18zM577 72q12 -2 12 -13q1 -12 -10 -17q-2 -1 -11 -1q-19 0 -27 9q1 1 1 2l1 2q0 2 2 4l18 -6h8q4 6 4 3q0 9 -13 12q-2 0 -3 1t-5 1q-9 3 -9 13q-3 9 8 15q6 2 13 2
q14 0 23 -5l-5 -10q-2 1 -4 1q-1 0 -3 1q-1 1 -4 1q-1 0 -2 2h-8q-4 0 -4 -4q-2 -2 4 -8q6 -1 14 -5zM608 89v10h50v-10h-18v-47h-13v47h-19zM681 42v57h15v-57h-15zM816 99h16l12 -27q0 -2 6 -16q4 -10 7 -14h-13l-5 12h-28l-5 -12h-13q15 29 23 57zM484 97h13q2 -6 6 -13
q2 -2 4 -7t3 -6q0 -2 2 -7t3 -8t3 -7.5t2 -6.5h-13q-1 1 -1 5l-1 2q-1 1 -1.5 2t-0.5 3h-26q-1 -2 -1 -7q-1 -1 -1 -2l-3 -3h-12zM281 69v2q0 8 -4 13q-7 5 -14 5q-2 -2 -4 -2q-6 -1 -11 -9q-6 -7 -1 -14q4 -13 17 -13q4 0 5 1q12 3 12 17zM480 64h19q-1 0 -1 2t-1 3t-2 3
l-1 2q-1 2 -1 6q-1 1 -2 3l-1 2zM815 64h18q-1 1 -1 5q-2 5 -3 5q-1 1 -1 3t-1 3l-1 2q-1 2 -2 3z" />
    </font>
</defs>
</svg>
