<?xml version="1.0" standalone="no"?>
<!DOCTYPE svg PUBLIC "-//W3C//DTD SVG 1.1//EN" "http://www.w3.org/Graphics/SVG/1.1/DTD/svg11.dtd" >
<svg xmlns="http://www.w3.org/2000/svg" xmlns:xlink="http://www.w3.org/1999/xlink" version="1.1">
<metadata>
Created by FontForge 20170731 at Sat Jul 20 23:03:04 2019
 By Aleksey,,,
Copyright (c) 2019 by Fontastica. All rights reserved.
</metadata>
<defs>
<font id="Qartella-HeavyItalic" horiz-adv-x="704" >
  <font-face 
    font-family="Qartella Heavy Italic"
    font-weight="900"
    font-style="italic"
    font-stretch="normal"
    units-per-em="1000"
    panose-1="0 0 10 0 0 0 0 0 0 0"
    ascent="800"
    descent="-200"
    x-height="523"
    cap-height="779"
    bbox="-103.537 -255 1110.58 827"
    underline-thickness="50"
    underline-position="-200"
    unicode-range="U+0020-2212"
  />
<missing-glyph horiz-adv-x="637" 
d="M596 764l1 -2v-759l-557 -2v759l1 2zM551 44v679l-465 -2v-679zM182 559l138 -141l142 142l39 -39l1 -2l-143 -142l141 -139v-3l-36 -36l-140 140l-142 -142l-40 39l140 145l-139 140v2l36 36h3z" />
    <glyph glyph-name=".notdef" horiz-adv-x="637" 
d="M596 764l1 -2v-759l-557 -2v759l1 2zM551 44v679l-465 -2v-679zM182 559l138 -141l142 142l39 -39l1 -2l-143 -142l141 -139v-3l-36 -36l-140 140l-142 -142l-40 39l140 145l-139 140v2l36 36h3z" />
    <glyph glyph-name=".null" horiz-adv-x="0" 
 />
    <glyph glyph-name="nonmarkingreturn" horiz-adv-x="333" 
 />
    <glyph glyph-name="space" unicode=" " horiz-adv-x="276" 
 />
    <glyph glyph-name="exclam" unicode="!" horiz-adv-x="361" 
d="M184 192h54q24 0 41.5 14t20.5 32l80 494q2 19 -10.5 33t-36.5 14h-58q-24 0 -41.5 -14.5t-20.5 -32.5l-76 -494q-3 -18 10 -32t37 -14zM290 78q5 35 -16.5 60.5t-66.5 25.5t-75 -25.5t-36 -60.5q-5 -35 16.5 -61.5t66.5 -26.5t75 26.5t36 61.5z" />
    <glyph glyph-name="quotedbl" unicode="&#x22;" horiz-adv-x="473" 
d="M174 703q-8 -58 40 -82q-16 -30 -45 -53q-4 -3 -13 -9.5t-13 -10.5q-18 -16 -20 -32q-3 -19 16 -43t46 -24q15 0 29 7q39 18 70 49q3 -20 20.5 -38t40.5 -18q15 0 31 7q63 29 109.5 96.5t55.5 127.5q4 28 0.5 52t-25.5 45.5t-63 21.5q-51 0 -86 -35q-23 35 -75 35
q-49 0 -80 -29t-38 -67zM343 581q12 22 22 46q6 -4 10 -6q-9 -17 -26 -34z" />
    <glyph glyph-name="numbersign" unicode="#" horiz-adv-x="781" 
d="M128 210h45q-2 -3 -13 -28.5t-18 -41.5q-36 -83 -39 -96q-2 -18 10 -31t35 -13q18 0 27 -1q10 0 30 2q39 7 52 38l74 171h77l-31 -70q-38 -86 -40 -97q-2 -18 10.5 -30.5t35.5 -12.5q19 0 28 -1q9 0 29 2q38 7 51 37l75 172h89q43 0 66 44q1 3 3 6t4.5 6.5t3.5 6.5
q5 13 8 23q2 18 -10.5 30.5t-35.5 12.5h-72l38 87h75q29 0 50 21q5 6 13 18l9 16q4 7 8 13q5 14 6 17q2 18 -10.5 31t-34.5 13h-61l34 75q42 94 44 105q2 18 -10.5 31t-35.5 13h-28q-20 0 -29 -2q-37 -5 -51 -37l-81 -185h-76q3 8 8 19.5t12.5 28.5t12.5 28q40 88 43 104
q2 17 -10.5 30.5t-35.5 13.5h-27q-19 0 -29 -2q-38 -5 -52 -37l-79 -185h-75q-44 0 -68 -43l-11 -20q-7 -17 -8 -23q-2 -18 10 -30.5t34 -12.5h61l-38 -87h-62q-44 0 -67 -43l-3 -6t-4 -7.5t-3 -6.5q-8 -13 -9 -23q-3 -18 10 -30.5t36 -12.5zM425 426h78l-38 -87h-77z" />
    <glyph glyph-name="dollar" unicode="$" horiz-adv-x="684" 
d="M397 781q-101 -18 -170 -79t-83 -142q-27 -172 180 -237l-28 -179q-66 19 -102 62l-3 4h-7q-12 2 -20 2q-27 0 -59.5 -36.5t-35.5 -55.5q-3 -18 11 -35q9 -12 26 -23q64 -51 166 -67l-10 -62q-3 -20 9 -31.5t26 -13.5t34 -2q65 0 73 47l9 61q111 14 177 77t81 154
q13 87 -36 138t-150 82l29 188q16 -6 23 -10q14 -8 25 -16q9 -6 25 -18q16 -11 32 -11q20 0 38 14q13 10 32 38.5t21 42.5q4 31 -34 57q-56 40 -138 53q-2 42 -47 43q-7 1 -23 1q-60 0 -71 -46zM373 630l-23 -142q-51 24 -43 73q8 46 66 69zM437 143l22 141q54 -24 49 -61
q-10 -61 -71 -80z" />
    <glyph glyph-name="percent" unicode="%" horiz-adv-x="874" 
d="M232 0h57q37 0 55 27l535 716q9 11 10 23q3 17 -10 29t-35 12h-56q-34 0 -55 -28l-533 -715q-10 -14 -11 -23q-3 -17 9 -29t34 -12zM549 595q13 78 -31.5 135.5t-143.5 57.5t-162 -57t-76 -136q-12 -80 33 -136.5t144 -56.5q98 0 161 57t75 136zM296 596q3 22 18 36
t37 14q47 0 38 -50q-8 -51 -54 -51q-23 0 -33 14t-6 37zM917 183q12 79 -33 136t-143 57t-162 -57.5t-76 -135.5q-12 -79 33 -136t143 -57q99 0 162.5 57t75.5 136zM664 183q3 22 17 36t36 14q47 0 39 -50q-7 -51 -55 -51q-22 0 -31.5 14t-5.5 37z" />
    <glyph glyph-name="ampersand" unicode="&#x26;" horiz-adv-x="796" 
d="M189 582q-11 -65 28 -133q-122 -65 -145 -200q-18 -116 62.5 -190.5t224.5 -74.5q122 0 223 71l36 -37q18 -18 48 -18h67q22 0 39 11.5t20 29.5q2 9 -4 21q-12 20 -49 57q-10 11 -28 28t-21 20q73 108 95 244q2 18 -10.5 32.5t-36.5 14.5h-53q-47 0 -61 -43
q-2 -9 -5.5 -26.5t-6.5 -26.5q-10 -41 -30 -82l-140 147l-32 34q-23 25 -32 39q-33 45 -28 80q5 29 22 48t45 19q27 0 42 -23l7 -10q3 -7 9 -11q13 -13 33 -13q24 0 66.5 29.5t46.5 49.5q1 9 -2 19q-16 47 -63 73.5t-111 26.5q-105 0 -174 -61t-82 -145zM304 346l179 -188
q-48 -32 -102 -32q-71 0 -113 34t-33 89q10 65 69 97z" />
    <glyph glyph-name="quotesingle" unicode="'" horiz-adv-x="313" 
d="M174 703q-8 -58 40 -82q-15 -29 -44 -53q-3 -3 -12.5 -9.5t-14.5 -10.5q-18 -16 -20 -32q-3 -19 16 -43t46 -24q15 0 29 7q64 30 110 96.5t56 126.5q4 28 0.5 52.5t-25.5 46t-63 21.5q-49 0 -80 -29t-38 -67z" />
    <glyph glyph-name="parenleft" unicode="(" horiz-adv-x="398" 
d="M205 -163h50q21 0 37.5 11.5t19.5 28.5q1 11 -5 23q-85 180 -50 397q34 214 182 420q8 12 9 21q3 17 -9.5 29t-34.5 12h-50q-33 0 -58 -27q-15 -18 -27 -36q-5 -6 -13 -19t-10 -16q-118 -189 -147 -375q-31 -190 29 -375l8 -24q5 -18 12 -30q21 -40 57 -40z" />
    <glyph glyph-name="parenright" unicode=")" horiz-adv-x="398" 
d="M91 -163h51q34 0 65 35q12 14 21 27l14 22q124 188 155 385q30 188 -33 385q-5 18 -7 23q-4 13 -11 28q-20 37 -55 37h-51q-22 0 -38 -12t-19 -29q-1 -13 3 -23q24 -60 29 -77q49 -161 21 -341q-31 -188 -141 -348q-3 -4 -12 -15.5t-14 -17.5q-7 -8 -14 -19
q-7 -15 -8 -19q-3 -17 9.5 -29t34.5 -12z" />
    <glyph glyph-name="asterisk" unicode="*" horiz-adv-x="530" 
d="M148 566l85 -51l-75 -71q-14 -12 -17 -29q-3 -18 11 -33l32 -34q14 -14 37 -14q29 0 49 22l63 69l40 -69q14 -22 42 -22q22 0 41 14l43 34q18 15 21 33q3 16 -7 29l-53 71l102 51q27 14 31 39q3 16 -9 36q-6 15 -17 30q-12 23 -42 23q-2 0 -5.5 -0.5t-5.5 -0.5h-10
l-57 -34q10 48 14 72q3 18 -10 32t-37 14h-52q-24 0 -41.5 -14t-20.5 -32q-6 -48 -8 -72l-47 34h-5h-5q-1 0 -5 0.5t-5 0.5q-31 0 -50 -23q-22 -26 -26 -30q-17 -21 -20 -36q-3 -25 19 -39z" />
    <glyph glyph-name="plus" unicode="+" horiz-adv-x="674" 
d="M322 75h54q24 0 41.5 14t20.5 32l22 142h141q24 0 41.5 14.5t19.5 32.5l8 47q2 18 -10.5 32.5t-36.5 14.5h-141l23 141q2 19 -10.5 33t-36.5 14h-54q-24 0 -41.5 -14.5t-20.5 -32.5l-22 -141h-140q-24 0 -41.5 -14.5t-19.5 -32.5l-8 -47q-3 -18 10 -32.5t37 -14.5h140
l-23 -142q-3 -18 10 -32t37 -14z" />
    <glyph glyph-name="comma" unicode="," horiz-adv-x="335" 
d="M89 94q-4 -25 5.5 -48t34.5 -35q-17 -31 -45 -53l-12 -9q-1 -1 -3.5 -2.5t-3.5 -2.5q-3 -2 -7 -6q-19 -15 -21 -32q-3 -19 16 -44t46 -25q16 0 30 7q63 30 109 97t56 127q4 18 1.5 38.5t-9.5 38t-27.5 29.5t-52.5 12q-48 0 -79.5 -27.5t-37.5 -64.5z" />
    <glyph glyph-name="hyphen" unicode="-" horiz-adv-x="513" 
d="M158 264h281q24 0 41.5 14.5t19.5 32.5l8 47q2 19 -10.5 33t-36.5 14h-281q-24 0 -41.5 -14.5t-19.5 -32.5l-8 -47q-2 -19 10.5 -33t36.5 -14z" />
    <glyph glyph-name="period" unicode="." horiz-adv-x="374" 
d="M302 84q6 38 -16.5 65t-71.5 27q-47 0 -79 -27.5t-38 -64.5t17 -65.5t71 -28.5t79.5 28t37.5 66z" />
    <glyph glyph-name="slash" unicode="/" horiz-adv-x="484" 
d="M51 0h50q34 0 59 29q8 10 15 23q3 4 6.5 11t5.5 9l206 338q6 10 22.5 37t45 73t46.5 76q96 158 98 169q3 17 -10 29.5t-35 12.5h-49q-36 0 -59 -29l-15 -22q-1 -2 -5 -9.5t-6 -10.5l-206 -338q-29 -45 -115 -186q-96 -158 -98 -170q-2 -17 10 -29.5t34 -12.5z" />
    <glyph glyph-name="zero" unicode="0" horiz-adv-x="951" 
d="M909 384q6 53 3.5 107t-26 104t-58.5 88.5t-95 62t-136 23.5q-94 0 -173.5 -35t-131 -92.5t-83.5 -123.5t-43 -134q-9 -44 -5 -89t14.5 -88t36.5 -81t60.5 -66t87 -44.5t115.5 -16.5q94 0 173.5 35t132 92.5t85 123t43.5 134.5zM328 384q7 44 25.5 87t48.5 82t75.5 63.5
t99.5 24.5t92.5 -25t54.5 -63t23 -83t-2 -86q-7 -43 -26 -86t-49 -82t-75.5 -63.5t-98.5 -24.5q-54 0 -92 24.5t-54.5 62.5t-23.5 83t2 86z" />
    <glyph glyph-name="one" unicode="1" horiz-adv-x="505" 
d="M271 12h40q26 0 46 16t23 35l101 643q3 18 -6 34.5t-35 16.5q-17 0 -26 -4l-218 -76q-38 -14 -45 -57q-1 -13 0 -27.5t14 -26.5t37 -12q3 0 7 0.5t6 0.5t7 1.5t8 2.5l35 11q6 2 18.5 6.5t17.5 6.5l-82 -520q-3 -20 11.5 -35.5t40.5 -15.5z" />
    <glyph glyph-name="two" unicode="2" horiz-adv-x="778" 
d="M157 12h460q35 0 54 24q12 16 16 42q3 23 -7 42t-43 19h-262l213 166q68 53 105.5 102t48.5 113q17 108 -50 178.5t-201 70.5q-79 0 -156.5 -28.5t-128.5 -79.5q-14 -16 -17 -31q-3 -22 23 -46.5t53 -24.5q26 0 49 19q10 8 15 13q1 0 5.5 4t7.5 6q54 40 126 40
q63 0 91.5 -31.5t19.5 -85.5q-5 -36 -28 -63.5t-68 -62.5l-341 -265q-18 -14 -24.5 -24.5t-9.5 -29.5q-4 -25 3 -42q11 -25 46 -25z" />
    <glyph glyph-name="three" unicode="3" horiz-adv-x="817" 
d="M374 -1q87 0 166 24.5t138 78t71 126.5q17 106 -83 166q47 28 75.5 68t35.5 85q16 104 -68.5 163t-215.5 59q-73 0 -146 -20t-120 -62q-18 -17 -21 -35q-4 -21 14 -39q5 -5 23 -19q24 -12 37 -12q22 0 44 16q38 25 69.5 34t79.5 9q68 0 108.5 -24t32.5 -72
q-7 -47 -53 -69t-113 -22h-95q-36 0 -55 -24q-10 -15 -17 -43q-3 -23 7.5 -42.5t43.5 -19.5h99q71 0 116.5 -23.5t37.5 -71.5q-8 -52 -62.5 -77t-129.5 -25q-83 0 -129 29q-6 3 -10 8l-12 9q-18 14 -38 14q-28 0 -59.5 -25.5t-34.5 -46.5q-3 -19 11 -36q33 -39 107.5 -60
t145.5 -21z" />
    <glyph glyph-name="four" unicode="4" horiz-adv-x="804" 
d="M152 168h314l-17 -105q-3 -19 11 -35t40 -16h23q76 0 83 51l17 105h78q35 0 54 24q13 15 17 42q4 23 -7.5 42t-43.5 19h-78l28 179q3 20 -11 35.5t-40 15.5q-4 0 -11 0.5t-11 0.5q-75 0 -84 -52l-28 -179h-175l296 380q10 14 13 27q3 22 -12 38.5t-43 16.5
q-4 0 -11.5 0.5t-10.5 0.5q-17 0 -24 -1q-31 -3 -48 -26l-356 -459q-8 -9 -10 -21q-2 -5 -4 -19q-1 -13 0 -27t14 -25.5t37 -11.5z" />
    <glyph glyph-name="five" unicode="5" horiz-adv-x="806" 
d="M257 188q-17 19 -44 19t-58.5 -26t-34.5 -47q-3 -22 22 -50q84 -85 242 -85q139 0 243.5 67t122.5 179q18 111 -66 177.5t-223 66.5q-41 0 -71 -5l31 146h288q36 0 55 24q12 16 16 42q4 23 -7 42t-44 19h-382q-25 0 -44 -14t-23 -34l-64 -288l-1 -2q-3 -17 9 -32
q10 -15 30 -32q24 -22 47 -22q14 0 27 5q59 21 113 21q73 0 114 -29.5t32 -84.5q-9 -56 -59.5 -86.5t-124.5 -30.5q-83 0 -125 38q-6 4 -10 10z" />
    <glyph glyph-name="six" unicode="6" horiz-adv-x="840" 
d="M654 702q4 22 -11.5 38.5t-44.5 16.5q-4 0 -11 0.5t-10 0.5q-16 0 -23 -1q-30 -4 -48 -24l-298 -345q-52 -62 -62 -124q-19 -117 57.5 -191t222.5 -74t246 75.5t119 192.5q17 105 -60.5 177.5t-208.5 72.5h-14l132 155q11 14 14 30zM307 264q9 53 60 83.5t121 30.5
t109 -30t31 -83q-10 -63 -57 -100t-124 -37t-113.5 36.5t-26.5 99.5z" />
    <glyph glyph-name="seven" unicode="7" 
d="M207 630h355l-395 -537q-9 -13 -11 -25q-3 -22 12 -39t43 -17q5 0 13 -0.5t13 -0.5q47 0 67 29l453 612q6 9 8 22q1 3 4 18q8 65 -51 65h-491q-37 0 -55 -25q-13 -17 -17 -42q-4 -23 8 -41.5t44 -18.5z" />
    <glyph glyph-name="eight" unicode="8" horiz-adv-x="885" 
d="M444 -1q87 0 165.5 24.5t137.5 78t70 126.5q18 108 -83 165q97 55 111 153q17 105 -66.5 164t-215.5 59q-130 0 -231.5 -59t-117.5 -163q-17 -101 61 -154q-116 -57 -134 -164q-9 -56 13 -101t66.5 -72.5t101.5 -42t122 -14.5zM375 546q8 48 54 71.5t114 23.5t108 -24
t32 -72q-15 -90 -169 -90q-69 0 -108 21.5t-31 69.5zM304 229q8 50 62.5 73t129.5 23q73 0 120 -23t39 -72q-8 -52 -62 -77t-128 -25q-75 0 -122 24.5t-39 76.5z" />
    <glyph glyph-name="nine" unicode="9" horiz-adv-x="838" 
d="M438 239h12l-131 -155q-11 -14 -14 -30q-3 -21 12.5 -38t43.5 -17q5 0 14 -0.5t13 -0.5q44 0 66 26l298 345q53 59 62 124q19 116 -58.5 190t-222.5 74q-146 0 -246.5 -75.5t-119.5 -192.5q-17 -105 62 -177.5t209 -72.5zM331 491q10 64 57 101t125 37q76 0 112.5 -37
t26.5 -100q-9 -53 -59 -83.5t-121 -30.5q-69 0 -109 30t-32 83z" />
    <glyph glyph-name="colon" unicode=":" horiz-adv-x="345" 
d="M359 482q6 40 -18.5 69.5t-75.5 29.5t-85.5 -29.5t-40.5 -69.5t18.5 -69.5t76.5 -29.5q51 0 84.5 29.5t40.5 69.5zM297 91q6 40 -19 68.5t-75 28.5q-51 0 -85.5 -28.5t-40.5 -68.5q-7 -41 18 -70.5t77 -29.5q51 0 84.5 30t40.5 70z" />
    <glyph glyph-name="semicolon" unicode=";" horiz-adv-x="363" 
d="M370 482q6 40 -18 69.5t-76 29.5q-51 0 -85 -29.5t-40 -69.5t18.5 -69.5t75.5 -29.5q52 0 85 29.5t40 69.5zM92 94q-9 -59 41 -83q-20 -34 -48 -56q-3 -3 -11 -9q-3 -1 -8 -4.5t-6 -4.5q-16 -15 -19 -31q-2 -12 9 -32.5t22 -27.5q12 -9 31 -9q14 0 30 7q62 27 109 96.5
t56 128.5q4 29 0.5 52.5t-25.5 44t-63 20.5q-48 0 -80 -27.5t-38 -64.5z" />
    <glyph glyph-name="less" unicode="&#x3c;" horiz-adv-x="662" 
d="M101 372l-10 -66q-5 -26 23 -45q16 -9 38 -18l39 -17l153 -69q4 -2 21.5 -10t46.5 -20.5t50 -22.5l74 -32q22 -9 26 -10l8 -3q5 -2 10 -2q23 0 38 13.5t18 30.5l9 54q5 33 -27 47l-314 137l357 137q36 14 42 48l9 55q2 17 -9 30t-34 13q-5 0 -10 -2q-1 0 -4.5 -1.5
t-5.5 -1.5q-4 -1 -14 -4.5t-15 -5.5q-8 -3 -37 -14t-46 -18q-82 -31 -135 -53l-175 -69q-2 -1 -44 -17q-27 -10 -44 -18q-34 -20 -38 -46z" />
    <glyph glyph-name="equal" unicode="=" horiz-adv-x="650" 
d="M195 355h373q25 0 42 14.5t20 32.5l7 45q3 18 -10 32.5t-37 14.5h-373q-25 0 -42 -14t-20 -33l-7 -45q-3 -19 9 -33t38 -14zM170 203h374q24 0 41.5 14t20.5 32l7 46q3 18 -10 32.5t-37 14.5h-373q-24 0 -42 -14.5t-20 -32.5l-8 -46q-2 -18 10.5 -32t36.5 -14z" />
    <glyph glyph-name="greater" unicode="&#x3e;" horiz-adv-x="662" 
d="M101 57h18l4 3q4 2 11 5t10 5q74 29 209.5 82t185.5 73q8 3 23.5 8.5t21.5 8.5q32 12 46 19q34 17 39 45l10 66q4 28 -24 46q-13 8 -36 18q-7 3 -20 8.5t-16 6.5q-104 48 -157 71q-27 14 -118 53l-74 32q-22 9 -26 10l-9 3q-4 2 -9 2q-23 0 -38.5 -13t-17.5 -30l-9 -55
q-6 -33 27 -48l313 -137l-357 -137q-36 -14 -41 -47l-9 -54q-3 -17 8 -30.5t35 -13.5z" />
    <glyph glyph-name="question" unicode="?" horiz-adv-x="600" 
d="M269 188h60q40 0 60 40q2 4 5.5 13t5.5 14q5 16 9 22q15 23 59 59q75 63 109.5 109t45.5 116q15 93 -39 160t-170 67q-68 0 -135 -28.5t-110 -75.5q-12 -12 -15 -27q-3 -20 22.5 -52t52.5 -32q20 0 41 15l16 12q3 2 9 6.5t9 7.5q42 33 89 33q40 0 56.5 -24.5t10.5 -61.5
q-7 -42 -39 -79q-6 -8 -34 -33l-39 -33q-35 -29 -55 -49t-42 -56t-28 -76q-3 -18 9.5 -32.5t36.5 -14.5zM383 78q6 35 -16.5 60.5t-67.5 25.5t-74.5 -25.5t-35.5 -60.5t16 -61.5t67 -26.5t75 26.5t36 61.5z" />
    <glyph glyph-name="at" unicode="@" horiz-adv-x="1053" 
d="M1049 375q13 81 -3.5 154t-61 131.5t-124.5 93t-187 34.5q-115 0 -214.5 -35t-168.5 -95.5t-113 -139t-58 -167.5t5.5 -167t69.5 -138.5t138 -95.5t203 -35q89 0 174 29t148 83q17 16 20 31q2 15 -18 42.5t-43 37.5q29 3 64 15q51 19 89 58.5t55.5 80t24.5 83.5zM776 139
q-7 -3 -19 -11q-56 -38 -99.5 -55t-100.5 -17q-154 0 -228.5 84t-54.5 212t121.5 212.5t255.5 84.5q67 0 118.5 -23t81 -61.5t41 -87.5t3.5 -102q-5 -34 -21 -66q-20 -38 -44 -38q-30 0 -25 33l35 215q3 24 -13.5 33.5t-42.5 9.5h-18q-10 0 -20 -3q-16 -3 -26 -10
q-49 32 -119 32q-114 0 -184.5 -69.5t-85.5 -161.5q-9 -58 6 -109t64 -87.5t127 -36.5q96 0 164 56q34 -29 84 -34zM488 349q7 39 31.5 65.5t65.5 26.5q42 0 57.5 -26t8.5 -66q-7 -39 -31 -65.5t-64 -26.5q-42 0 -58.5 26t-9.5 66z" />
    <glyph glyph-name="A" unicode="A" horiz-adv-x="771" 
d="M586 745q-12 33 -49 33h-56q-35 0 -59 -32q-5 -8 -13.5 -22.5t-10.5 -17.5l-42 -72l-142 -241q-4 -7 -19.5 -33.5t-41 -70.5t-44.5 -76q-93 -157 -94 -170q-3 -18 10 -30.5t35 -12.5h54q41 0 58 31l114 196h271l52 -196q3 -13 16.5 -22t30.5 -9h55q23 0 40 12.5t19 30.5
q2 13 -18 82q-5 21 -13 51t-9 33l-111 414l-23 84q-6 26 -10 38zM473 547l48 -183h-155z" />
    <glyph glyph-name="B" unicode="B" horiz-adv-x="719" 
d="M149 0h243q131 0 216.5 69t102.5 174q19 124 -75 190q68 55 81 134q16 100 -53.5 156t-194.5 56h-195q-25 0 -42.5 -14t-20.5 -33l-109 -685q-2 -19 10.5 -33t36.5 -14zM358 641h93q55 0 82 -18t21 -57q-13 -83 -118 -83h-103zM278 138l35 219h138q56 0 80 -32t16 -82
q-8 -49 -44.5 -77t-96.5 -28h-128z" />
    <glyph glyph-name="C" unicode="C" horiz-adv-x="815" 
d="M870 681q-44 51 -120 79t-159 28q-96 0 -184 -35q-131 -51 -204.5 -148t-92.5 -216q-12 -77 3 -147t55.5 -127t117 -91t179.5 -34q83 0 170.5 28t143.5 78q16 15 19 31q3 19 -20.5 44.5t-44.5 32.5q-6 2 -9 2h-6q-19 0 -38 -10q-5 -3 -11 -7l-10 -7q-15 -10 -17 -11
q-70 -38 -155 -38q-125 0 -179 74t-37 181t95 182.5t202 75.5q57 0 95 -14t78 -48q17 -13 35 -13q24 0 62.5 30.5t41.5 48.5q2 15 -10 31z" />
    <glyph glyph-name="D" unicode="D" horiz-adv-x="806" 
d="M149 0h189q103 0 190 32t146.5 86.5t96.5 123.5t49 147q13 78 -2.5 147.5t-57 124t-118.5 86.5t-180 32h-189q-25 0 -42 -14t-20 -33l-109 -685q-2 -19 10.5 -33t36.5 -14zM358 641h82q128 0 181.5 -71t36.5 -181q-18 -110 -93.5 -180.5t-204.5 -70.5h-82z" />
    <glyph glyph-name="E" unicode="E" horiz-adv-x="638" 
d="M149 0h393q24 0 41 14t20 32l7 46q3 18 -10 32t-37 14h-285l30 189h251q24 0 41.5 14.5t20.5 32.5l7 45q3 18 -10 32t-37 14h-251l28 176h275q25 0 42 14t20 33l7 44q2 19 -10 33t-37 14h-382q-25 0 -42 -14t-20 -33l-109 -685q-2 -19 10.5 -33t36.5 -14z" />
    <glyph glyph-name="F" unicode="F" horiz-adv-x="617" 
d="M149 0h53q24 0 41.5 14.5t20.5 32.5l44 280h251q24 0 41.5 14.5t20.5 32.5l7 45q3 18 -10 32t-37 14h-251l28 176h274q25 0 42.5 13.5t20.5 33.5l7 44q2 19 -10 33t-37 14h-381q-25 0 -42.5 -14t-20.5 -33l-109 -685q-2 -19 10.5 -33t36.5 -14z" />
    <glyph glyph-name="G" unicode="G" horiz-adv-x="887" 
d="M870 682q-97 106 -276 106q-104 0 -191.5 -33.5t-146.5 -90t-96.5 -127t-49.5 -148.5q-12 -76 1.5 -145t51.5 -126.5t112.5 -92t176.5 -34.5q84 0 155 23.5t120 62t86.5 91.5t58.5 108t30 115q3 18 -9.5 32.5t-36.5 14.5h-322q-24 0 -42 -14.5t-20 -32.5l-5 -23
q-3 -23 -2 -28q2 -41 47 -41h209q-68 -166 -246 -166q-82 0 -133 38.5t-66.5 94.5t-4.5 123q17 108 95.5 182.5t204.5 74.5q56 0 93.5 -14t76.5 -47q16 -14 35 -14q23 0 62 31.5t42 48.5q3 16 -10 31z" />
    <glyph glyph-name="H" unicode="H" horiz-adv-x="806" 
d="M211 732l-109 -685q-2 -19 10.5 -33t36.5 -14h54q24 0 41 14.5t20 32.5l44 280h292l-45 -280q-2 -19 10.5 -33t36.5 -14h54q24 0 41.5 14.5t20.5 32.5l109 686q2 18 -10.5 32t-35.5 14h-55q-25 0 -42 -14t-20 -33l-42 -267h-292l43 268q2 18 -10.5 32t-36.5 14h-29
q-23 0 -34 -2q-47 -7 -52 -45z" />
    <glyph glyph-name="I" unicode="I" horiz-adv-x="352" 
d="M149 0h54q23 0 40.5 14t20.5 32l108 686q3 18 -10 32.5t-37 14.5h-53q-25 0 -42 -14.5t-19 -32.5l-109 -686q-2 -18 11 -32t36 -14z" />
    <glyph glyph-name="J" unicode="J" horiz-adv-x="508" 
d="M36 75q-9 -15 -12 -29q-4 -29 16 -42.5t53 -13.5q3 0 8 0.5t7 0.5q83 0 149.5 28.5t107.5 76.5t65 102t34 114l66 420q3 18 -10 32.5t-37 14.5h-54q-25 0 -42 -14t-20 -33l-67 -420q-27 -179 -169 -179q-3 0 -10 0.5t-10 0.5q-32 0 -52 -22q-4 -4 -14 -19z" />
    <glyph glyph-name="K" unicode="K" horiz-adv-x="684" 
d="M102 46q-2 -18 11 -32t36 -14h54q23 0 40.5 14t20.5 32l36 229l205 -256q16 -19 45 -19h76q22 0 39.5 11.5t20.5 29.5q3 17 -10 31l-263 318l332 319q16 16 17 29q3 17 -10 29t-35 12h-71q-30 0 -51 -21l-258 -247l35 221q3 18 -10 32.5t-37 14.5h-29q-23 0 -34 -2
q-46 -7 -51 -45z" />
    <glyph glyph-name="L" unicode="L" horiz-adv-x="562" 
d="M149 0h329q23 0 40.5 14t19.5 32l8 46q2 18 -10.5 32t-36.5 14h-221l94 594q3 18 -10 32.5t-37 14.5h-53q-25 0 -42 -14.5t-19 -32.5l-109 -686q-2 -18 11 -32t36 -14z" />
    <glyph glyph-name="M" unicode="M" horiz-adv-x="996" 
d="M210 727l-107 -675q-3 -20 10 -36t41 -16h48q24 0 41.5 14.5t20.5 32.5l55 345l101 -360q4 -14 18 -23t32 -9h56q41 0 59 32l216 361l-54 -346q-3 -18 10 -32.5t37 -14.5h53q24 0 41.5 14.5t20.5 32.5l109 685q2 18 -10.5 32.5t-36.5 14.5h-69q-39 0 -58 -32l-309 -514
l-146 513q-9 33 -59 33h-53q-27 0 -45.5 -15.5t-21.5 -36.5z" />
    <glyph glyph-name="N" unicode="N" horiz-adv-x="849" 
d="M211 732l-109 -685q-2 -19 10.5 -33t36.5 -14h53q24 0 41.5 14.5t20.5 32.5l71 450l252 -473q5 -10 18 -17t27 -7h67q24 0 42 14.5t20 32.5l109 685q2 18 -10 32.5t-36 14.5h-30q-23 0 -34 -2q-45 -7 -52 -45l-71 -451l-251 472q-13 26 -45 26h-68q-25 0 -42 -14t-20 -33
z" />
    <glyph glyph-name="O" unicode="O" horiz-adv-x="936" 
d="M952 389q12 78 -3 148t-56.5 127t-118.5 90.5t-180 33.5q-104 0 -191.5 -33.5t-146.5 -90t-96.5 -127t-49.5 -148.5t3 -148t56 -126.5t118 -90t181 -33.5q103 0 190.5 33.5t147 90t97 126.5t49.5 148zM271 389q17 108 95.5 182.5t204.5 74.5q125 0 179.5 -74.5
t37.5 -182.5t-95 -182t-203 -74q-85 0 -139.5 37t-72.5 93.5t-7 125.5z" />
    <glyph glyph-name="P" unicode="P" horiz-adv-x="671" 
d="M149 0h54q24 0 41.5 14.5t20.5 32.5l41 257h122q133 0 217 65.5t100 171.5q17 106 -46.5 172t-195.5 66h-229q-25 0 -42.5 -14t-20.5 -33l-109 -685q-2 -19 10.5 -33t36.5 -14zM359 641h124q116 0 100 -101q-15 -98 -131 -98h-124z" />
    <glyph glyph-name="Q" unicode="Q" horiz-adv-x="924" 
d="M110 389q-12 -78 3 -148t56 -126.5t118 -90t181 -33.5q60 0 111 11q87 -142 223 -142q34 0 83 12t76 28q32 18 36 43q2 14 -9 34.5t-23 31.5q-17 17 -42 17q-8 0 -22 -4l-10.5 -3.5t-11.5 -3.5q-28 -10 -49 -10q-50 0 -93 58q93 57 146.5 143.5t68.5 182.5q12 78 -3 148
t-56.5 127t-118.5 90.5t-180 33.5q-104 0 -191.5 -33.5t-146.5 -90t-96.5 -127t-49.5 -148.5zM466 348q-30 -16 -34 -41v-8q1 -2 1.5 -4.5t0.5 -4.5q6 -15 9 -21q13 -30 26 -57q31 -59 40 -79h-19q-85 0 -139.5 37t-72.5 93.5t-7 125.5q17 108 95.5 182.5t204.5 74.5
q125 0 179.5 -74.5t37.5 -182.5q-20 -130 -118 -201l-78 160q-13 25 -44 25q-11 0 -41 -9.5t-41 -15.5z" />
    <glyph glyph-name="R" unicode="R" horiz-adv-x="679" 
d="M149 0h54q24 0 41.5 14.5t20.5 32.5l41 257h35l133 -279q11 -25 45 -25h70q22 0 39 12t20 30q2 13 -62 139q-46 92 -71 137q92 25 144 85t64 138q17 107 -46 172.5t-195 65.5h-209q-25 0 -42 -14t-20 -33l-109 -685q-2 -19 10.5 -33t36.5 -14zM359 641h103
q116 0 100 -101q-15 -98 -131 -98h-103z" />
    <glyph glyph-name="S" unicode="S" horiz-adv-x="684" 
d="M372 133q-104 0 -190 75h-1q-1 1 -2 1t-3 0.5t-3 0.5q-3 1 -9 1q-27 0 -59.5 -36t-35.5 -54q-2 -15 8 -31q33 -47 112 -73.5t156 -26.5q136 0 222.5 63t103.5 172q7 46 -2.5 81.5t-35 59.5t-53.5 39.5t-67 29.5q-23 8 -67.5 20.5t-62.5 18.5q-61 20 -73 47q-6 15 -3 40
q6 37 46 60.5t91 23.5q72 0 130 -45q2 -1 4 -3q3 -3 4 -5q6 -6 19 -10q7 -3 18 -3q30 0 52 26l22 32q15 23 18 36q3 19 -11 34q-33 39 -97 60t-131 21q-123 0 -217.5 -64.5t-110.5 -163.5q-16 -100 43 -159t178 -89l22 -5.5t28 -7.5q34 -9 50 -17q48 -23 43 -59
q-7 -44 -43.5 -67t-92.5 -23z" />
    <glyph glyph-name="T" unicode="T" horiz-adv-x="654" 
d="M166 641h182l-95 -595q-2 -18 10.5 -32t36.5 -14q4 0 13.5 -0.5t15.5 -0.5q22 0 34 2q47 8 52 45l94 595h182q24 0 41.5 14.5t20.5 32.5l7 44q2 19 -10.5 33t-36.5 14h-525q-24 0 -41.5 -14.5t-19.5 -32.5l-7 -45q-3 -18 9.5 -32t36.5 -14z" />
    <glyph glyph-name="U" unicode="U" horiz-adv-x="801" 
d="M211 732l-66 -419q-5 -46 -5 -91.5t17.5 -87.5t45.5 -73.5t79 -50.5t118 -19q83 0 149.5 28.5t107 76.5t64.5 102t34 114l67 420q2 19 -10.5 33t-36.5 14h-30q-22 0 -34 -2q-45 -7 -52 -45l-66 -420q-29 -179 -170 -179q-55 0 -85 27.5t-33.5 67t1.5 84.5l66 420
q6 36 -38 44q-19 3 -34 2h-29q-25 0 -41.5 -14t-18.5 -32z" />
    <glyph glyph-name="V" unicode="V" horiz-adv-x="766" 
d="M292 746q-9 32 -49 32h-60q-24 0 -41 -12.5t-20 -31.5q-3 -17 37 -163q9 -34 19.5 -72.5t19 -68.5t10.5 -36l67 -251l19 -72q1 -3 2.5 -10t2.5 -9q4 -16 7 -23q14 -29 49 -29h55q35 0 59 30l12 18l2 4t2 3.5t2 4t2 4.5l47 79l147 251q6 11 43.5 74.5t60.5 103.5
q86 145 89 163t-10 30.5t-36 12.5h-63q-39 0 -58 -32l-289 -511z" />
    <glyph glyph-name="W" unicode="W" horiz-adv-x="999" 
d="M286 742q-2 15 -15.5 26t-34.5 11h-56q-23 0 -39.5 -12.5t-18.5 -30.5q-1 -7 0 -13l106 -687q2 -15 15.5 -25.5t33.5 -10.5h26q9 -1 29 1q39 7 50 36l194 448l49 -448q2 -16 15.5 -26.5t33.5 -10.5q18 0 26 -1q19 0 28 2q35 3 52 33q4 6 19 39l154 324l120 254
q1 4 4.5 10t8 16t7.5 16q16 31 17 42q3 18 -9.5 31t-35.5 13h-59q-40 0 -56 -35l-200 -437l-50 434q-2 16 -16 27t-34 11h-58q-43 0 -61 -38l-185 -429z" />
    <glyph glyph-name="X" unicode="X" horiz-adv-x="693" 
d="M56 0h70q33 0 53 23l206 233l124 -232q13 -24 48 -24h71q22 0 39 11.5t19 29.5q2 17 -84 170q-24 44 -61 109.5t-39 68.5l291 323q10 10 12 24q3 18 -10.5 30t-35.5 12h-68q-35 0 -55 -25l-205 -233l-124 235q-14 24 -46 24h-73q-21 0 -38 -11.5t-20 -29.5
q-2 -17 83 -171l100 -179q-98 -108 -146 -162q-98 -109 -101 -113q-31 -33 -44 -50l-6 -9q-4 -8 -5 -12q-3 -18 10 -30t35 -12z" />
    <glyph glyph-name="Y" unicode="Y" horiz-adv-x="682" 
d="M294 749q-13 29 -49 29h-62q-23 0 -41 -12.5t-21 -30.5q-1 -11 4 -23l124 -274q4 -9 18 -33t21 -38q24 -45 20 -65l-40 -255q-3 -18 10 -32.5t37 -14.5h53q24 0 42 14.5t20 32.5l41 259v5q2 5 13 22q8 11 30 37l58 68l211 274q8 10 10 23q3 18 -10.5 30.5t-35.5 12.5h-62
q-38 0 -60 -29l-210 -283z" />
    <glyph glyph-name="Z" unicode="Z" horiz-adv-x="679" 
d="M83 0h512q24 0 41.5 14.5t20.5 32.5l7 45q2 18 -10.5 32t-36.5 14h-329l453 569q9 12 12 26q3 19 -11 32.5t-38 13.5h-488q-24 0 -41.5 -14.5t-20.5 -32.5l-7 -45q-2 -19 10.5 -32.5t36.5 -13.5h305l-454 -572q-9 -10 -12 -25q-3 -20 11.5 -32t38.5 -12z" />
    <glyph glyph-name="bracketleft" unicode="[" horiz-adv-x="446" 
d="M112 -164h190q25 0 42.5 14t19.5 33l7 40q2 18 -10.5 32.5t-36.5 14.5h-88l107 676h88q24 0 41.5 14t19.5 32q1 6 5 22q2 18 1 27q-2 38 -46 38h-190q-25 0 -42 -14t-20 -33l-135 -849q-2 -19 10 -33t37 -14z" />
    <glyph glyph-name="backslash" unicode="\" horiz-adv-x="474" 
d="M381 0h49q23 0 40 13t20 31q1 10 -44 169q-53 175 -56 186l-73 250l-26 88q0 3 -1.5 9l-2.5 10q-5 16 -8 22q-15 29 -47 29h-50q-23 0 -40 -13t-20 -31q-2 -12 44 -169q13 -46 33 -112.5t22 -74.5l78 -263l22 -75q0 -1 1.5 -8t2.5 -11q5 -16 8 -21q14 -29 48 -29z" />
    <glyph glyph-name="bracketright" unicode="]" horiz-adv-x="446" 
d="M92 -164h189q25 0 42 14t20 33l135 849q2 19 -10.5 33t-36.5 14h-190q-24 0 -41.5 -14.5t-19.5 -32.5l-7 -40q-2 -18 10.5 -32t36.5 -14h87l-107 -675h-85q-25 0 -42.5 -14t-20.5 -33q0 -1 -1.5 -9t-2.5 -13q-3 -13 -3 -27q4 -39 47 -39z" />
    <glyph glyph-name="asciicircum" unicode="^" horiz-adv-x="706" 
d="M159 263h56q38 0 57 30l173 282l82 -281q9 -31 48 -31h55q23 0 41 13t20 31q2 6 -28 108l-34 112q-7 20 -22.5 71t-24.5 78q-20 65 -22 71q-15 31 -51 31h-66q-36 0 -59 -31q-6 -9 -46 -72l-93 -148q-22 -34 -70 -112q-61 -99 -62 -108q-3 -18 10 -31t36 -13z" />
    <glyph glyph-name="underscore" unicode="_" horiz-adv-x="708" 
d="M96 -136h474q24 0 41.5 14t20.5 32l6 38q2 19 -10.5 33t-36.5 14h-474q-25 0 -42.5 -14.5t-19.5 -32.5l-6 -38q-3 -18 9.5 -32t37.5 -14z" />
    <glyph glyph-name="a" unicode="a" 
d="M321 -10q86 0 158 39q9 -30 72 -30q30 0 54 13.5t28 39.5l67 420q5 30 -17.5 41t-56.5 11q-53 0 -72 -30q-59 40 -147 40q-135 0 -221 -81t-102 -191q-8 -51 1.5 -98.5t36.5 -87t78.5 -63t120.5 -23.5zM237 262q10 57 50.5 96t105.5 39t95.5 -39t21.5 -96q-9 -56 -52 -95
t-108 -39t-93.5 38.5t-19.5 95.5z" />
    <glyph glyph-name="b" unicode="b" 
d="M163 -1q50 0 72 31q58 -40 144 -40q92 0 164.5 41.5t111 101.5t49.5 129q11 70 -8.5 130t-78.5 101t-151 41q-83 0 -152 -36l36 229q5 30 -17 41t-56 11q-31 0 -55 -13t-28 -39l-107 -675q-3 -22 9.5 -34.5t28.5 -15.5t38 -3zM277 262q10 57 53 96t107 39q65 0 93 -39
t19 -96q-10 -57 -49.5 -95.5t-104.5 -38.5q-64 0 -95.5 39.5t-22.5 94.5z" />
    <glyph glyph-name="c" unicode="c" horiz-adv-x="619" 
d="M638 419q-24 52 -85.5 83.5t-135.5 31.5q-138 0 -227 -80.5t-106 -191.5q-18 -111 44.5 -191.5t199.5 -80.5q76 0 145.5 30.5t114.5 84.5q11 13 12 25q3 17 -16 38q-11 14 -29 27q-14 11 -33 11q-16 0 -34 -8q-5 -3 -11 -9l-6 -6q-50 -55 -121 -55q-65 0 -93.5 38.5
t-19.5 95.5q10 57 50.5 95.5t104.5 38.5q71 0 104 -55q14 -24 43 -24q18 0 49.5 20.5t42.5 32.5q10 13 11 24q2 9 -4 25z" />
    <glyph glyph-name="d" unicode="d" 
d="M323 -11q85 0 157 39q9 -29 71 -29q74 0 82 52l107 675q5 30 -16.5 41t-56.5 11q-31 0 -54.5 -13t-27.5 -39l-36 -229q-59 36 -140 36q-92 0 -164 -41t-110.5 -101t-50.5 -130q-8 -51 2 -98.5t37 -87t78.5 -63t121.5 -23.5zM238 261q9 57 50 96t105 39q65 0 96 -39.5
t22 -95.5q-10 -56 -52.5 -95t-107.5 -39t-93.5 38.5t-19.5 95.5z" />
    <glyph glyph-name="e" unicode="e" horiz-adv-x="659" 
d="M657 243q5 43 4 84.5t-18 79t-44.5 66t-75 45t-109.5 16.5q-137 0 -225 -80.5t-105 -191.5q-18 -113 48.5 -192.5t207.5 -79.5q66 0 130 22t109 64q14 14 17 29q3 19 -25 49t-53 30q-17 0 -35 -12q-5 -3 -15 -10t-14 -9q-42 -25 -93 -25q-93 0 -118 68h352
q24 0 41.5 14.5t20.5 32.5zM501 328h-238q43 69 130 69t108 -69z" />
    <glyph glyph-name="f" unicode="f" horiz-adv-x="403" 
d="M152 0h47q24 0 41.5 14.5t19.5 32.5l55 345h76q24 0 41.5 14.5t20.5 32.5l6 38q3 18 -9.5 32t-37.5 14h-76l14 88q2 23 13 46q7 14 12 19q6 5 10 5q13 0 33 -11q12 -6 17 -8q10 -5 21 -5q29 0 50 23q2 2 11 12t14 16q17 21 19 34q3 23 -16 37q-54 40 -129 40
q-49 0 -89 -19t-64 -50.5t-38.5 -64t-19.5 -66.5l-15 -95h-22q-21 0 -34 -4q-37 -10 -43 -53q-2 -8 -4 -27q-2 -13 3 -24q11 -24 60 -24h19l-53 -345q-3 -18 10 -32.5t37 -14.5z" />
    <glyph glyph-name="g" unicode="g" 
d="M626 524q-53 0 -72 -30q-59 40 -147 40q-135 0 -221 -81t-102 -191q-8 -51 1.5 -98.5t36.5 -87t78.5 -63t120.5 -23.5q85 0 152 35q-9 -59 -49.5 -94t-109.5 -35q-61 0 -120 34q-17 10 -38 10h-3l-3 -1q-22 -8 -48 -39t-28 -48q-4 -25 21.5 -42.5t66.5 -29.5
q67 -20 131 -20q140 0 229.5 79t107.5 192l70 441q5 30 -17.5 41t-56.5 11zM237 262q10 57 50.5 96t105.5 39t95.5 -39t21.5 -96q-9 -56 -52 -95t-108 -39t-93.5 38.5t-19.5 95.5z" />
    <glyph glyph-name="h" unicode="h" horiz-adv-x="670" 
d="M86 46q-2 -18 11 -32t36 -14h48q24 0 41.5 14.5t20.5 32.5l33 207q8 50 48 96.5t91 46.5q49 0 62.5 -26t5.5 -75l-40 -250q-2 -19 10.5 -32.5t36.5 -13.5h48q24 0 41.5 14t20.5 32l40 250q10 44 2 86.5t-26.5 76t-63 54.5t-108.5 21q-71 0 -131 -33l34 226q3 21 -9 33.5
t-27.5 15.5t-37.5 3q-31 0 -54 -13t-27 -39z" />
    <glyph glyph-name="i" unicode="i" horiz-adv-x="321" 
d="M363 661q6 35 -15.5 60.5t-66.5 25.5t-75.5 -25t-36.5 -61q-6 -35 16.5 -61.5t67.5 -26.5q46 0 75 26.5t35 61.5zM138 0h47q23 0 41 14t20 32l69 432q2 18 -11 31.5t-36 13.5h-48q-24 0 -41.5 -13.5t-19.5 -31.5l-69 -432q-2 -18 11 -32t37 -14z" />
    <glyph glyph-name="j" unicode="j" horiz-adv-x="342" 
d="M380 660q6 35 -15.5 61t-67.5 26q-45 0 -75 -26t-36 -61t16.5 -61t67.5 -26t74.5 26t35.5 61zM11 -85q-12 4 -21 4q-29 0 -59.5 -32.5t-33.5 -52.5q-6 -37 55 -58q45 -18 89 -18q49 0 89 19t64 50t38.5 63.5t19.5 66.5q73 474 81 520q3 18 -10 32t-37 14h-46
q-25 0 -42.5 -13.5t-20.5 -32.5l-81 -511q-2 -23 -13 -46q-7 -14 -12 -19t-9 -5q-13 0 -33 10z" />
    <glyph glyph-name="k" unicode="k" horiz-adv-x="571" 
d="M133 0h48q24 0 41.5 14t20.5 32l20 124l135 -152q15 -18 44 -18h72q22 0 39.5 11.5t21.5 30.5q3 18 -12 32l-184 206l209 170q21 15 23 32q3 19 -11.5 30t-36.5 11h-72q-28 0 -50 -17l-145 -122l60 378q2 19 -10.5 32t-36.5 13h-48q-23 0 -41 -13.5t-20 -31.5l-114 -716
q-2 -18 11 -32t36 -14z" />
    <glyph glyph-name="l" unicode="l" horiz-adv-x="323" 
d="M138 0h47q24 0 41.5 14t20.5 32l109 687q3 18 -10.5 31.5t-36.5 13.5h-48q-24 0 -41 -13.5t-20 -31.5l-109 -687q-2 -18 11 -32t36 -14z" />
    <glyph glyph-name="m" unicode="m" horiz-adv-x="970" 
d="M429 534q-70 0 -128 -35q-13 25 -65 25q-30 0 -53 -13.5t-27 -38.5l-68 -426q-2 -18 10 -32t35 -14h46q24 0 41.5 14.5t19.5 32.5l33 207q8 49 44.5 96t83.5 47q30 0 43.5 -12t16.5 -38q3 -15 0 -30l-42 -270q-3 -18 10 -32.5t37 -14.5h46q23 0 40 14t19 32l25 156l12 78
q0 2 2 6t2 6q4 10 7 14q41 91 107 91q42 0 54 -31q8 -23 2 -70l-40 -249q-3 -18 10 -32.5t37 -14.5h48q24 0 41.5 14.5t20.5 32.5q6 42 18.5 125t19.5 124q4 33 5 66t-10.5 64t-31 55t-56.5 38.5t-87 14.5q-97 0 -174 -64q-50 64 -154 64z" />
    <glyph glyph-name="n" unicode="n" horiz-adv-x="670" 
d="M444 534q-77 0 -139 -37q-12 27 -69 27q-31 0 -54.5 -13t-27.5 -39l-68 -426q-2 -18 11 -32t36 -14h48q24 0 42 14.5t20 32.5l33 207q8 50 48 96.5t91 46.5q49 0 62.5 -26t5.5 -75l-40 -250q-2 -19 10.5 -32.5t36.5 -13.5h48q24 0 41.5 14t20.5 32l40 250q4 35 3.5 69
t-13.5 64.5t-34.5 54t-60.5 37t-91 13.5z" />
    <glyph glyph-name="o" unicode="o" horiz-adv-x="659" 
d="M660 262q17 112 -46 192t-200 80t-225 -80.5t-105 -191.5q-18 -111 44.5 -191.5t199.5 -80.5t225.5 80.5t106.5 191.5zM237 262q10 57 50.5 96t105.5 39q64 0 92 -39t19 -96t-49 -95.5t-105 -38.5t-93.5 38.5t-19.5 95.5z" />
    <glyph glyph-name="p" unicode="p" 
d="M467 534q-87 0 -157 -38q-10 29 -73 29q-29 0 -53 -13t-28 -39l-107 -675q-5 -31 17 -42t57 -11q31 0 54 13.5t27 39.5l36 229q58 -36 141 -36q70 0 129 23.5t98 62.5t64 86.5t33 98.5q11 70 -8.5 130t-78.5 101t-151 41zM279 262q10 57 52.5 96t106.5 39q65 0 93 -39
t19 -96q-10 -57 -49.5 -95.5t-104.5 -38.5t-95.5 38.5t-21.5 95.5z" />
    <glyph glyph-name="q" unicode="q" 
d="M626 525q-52 0 -72 -30q-56 39 -144 39q-136 0 -222 -81t-103 -191q-8 -51 1.5 -98.5t36.5 -86.5t78.5 -62.5t121.5 -23.5q82 0 151 36l-36 -229q-3 -20 10.5 -36t40.5 -16q4 0 11.5 -0.5t10.5 -0.5q74 0 82 53l107 675q3 21 -9 33.5t-27.5 15.5t-37.5 3zM238 262
q10 57 50.5 96t105.5 39t95.5 -39.5t21.5 -95.5q-10 -57 -52.5 -95.5t-107.5 -38.5t-93.5 38.5t-19.5 95.5z" />
    <glyph glyph-name="r" unicode="r" horiz-adv-x="441" 
d="M445 534q-78 0 -140 -37q-12 26 -48 26h-35q-26 0 -45.5 -15.5t-22.5 -35.5l-68 -426q-2 -18 11 -32t36 -14h48q24 0 42 14.5t20 32.5l33 207q8 50 48 96.5t91 46.5q29 0 46 14q12 10 22.5 32.5t13.5 36.5q2 19 -12.5 36.5t-39.5 17.5z" />
    <glyph glyph-name="s" unicode="s" horiz-adv-x="509" 
d="M319 134q-20 -7 -45 -7q-60 0 -104 31q-15 11 -31 11q-29 0 -57 -31.5t-32 -52.5q-3 -20 10 -34q2 -2 12 -10l14 -9q72 -41 165 -41q94 0 164 44.5t82 120.5q11 68 -23 104.5t-96 57.5q-10 3 -42 12.5t-45 14.5q-32 13 -29 29q2 11 18 17q18 6 39 6q32 0 66 -16
q5 -2 13.5 -6.5t9.5 -5.5q8 -4 11 -5q6 -2 13 -2q30 0 50 24q32 37 37 63q3 18 -13 34q-25 25 -71.5 38t-92.5 13q-90 0 -158 -45t-80 -118q-18 -116 120 -161q14 -5 45 -14t43 -14q18 -7 24.5 -13t5.5 -15q-3 -13 -23 -20z" />
    <glyph glyph-name="t" unicode="t" horiz-adv-x="419" 
d="M128 392h36l-32 -200q-4 -27 -5 -51t5 -53t20 -49.5t43 -34.5t70 -14q68 0 132 46q21 15 24 33q2 13 -10 36q-9 16 -18 29q-14 19 -42 19q-12 0 -24 -5q-5 -2 -18 -10l-14 -8l-4 -2l-2 3q-2 4 -4 17q0 18 3 39l33 205h77q23 0 41 14t20 32l7 39q2 18 -10.5 32t-36.5 14
h-78l20 122q2 18 -11 31.5t-36 13.5h-48q-25 0 -42 -14t-19 -33l-19 -120h-37q-24 0 -41.5 -14t-20.5 -32q0 -2 -1.5 -9.5l-2.5 -12.5q-2 -16 -1 -26q2 -37 46 -37z" />
    <glyph glyph-name="u" unicode="u" horiz-adv-x="670" 
d="M310 -10q78 0 139 37q11 -28 70 -28q30 0 54 13.5t28 39.5l68 426q2 18 -11 31.5t-37 13.5h-48q-25 0 -42 -14t-19 -32l-33 -207q-8 -51 -48 -97t-92 -46q-47 0 -61 26t-6 73l39 252q3 18 -10 31.5t-37 13.5h-49q-24 0 -41 -13.5t-19 -31.5l-40 -250q-4 -35 -4 -69
t13.5 -64.5t35 -54t60 -37t90.5 -13.5z" />
    <glyph glyph-name="v" unicode="v" horiz-adv-x="564" 
d="M207 31q13 -31 50 -31h51q36 0 59 31q1 1 19.5 31.5t52 85t61.5 101.5q131 221 132 231q3 18 -10 30.5t-36 12.5h-56q-41 0 -61 -33l-151 -266l-68 267q-9 32 -48 32h-58q-23 0 -40 -12.5t-20 -30.5q-2 -12 50 -197l52 -180l14 -50l3 -11q2 -8 4 -11z" />
    <glyph glyph-name="w" unicode="w" horiz-adv-x="756" 
d="M248 486q-2 15 -14.5 26t-33.5 11h-58q-22 0 -38.5 -12t-19.5 -29q-1 -14 2 -31q1 -5 3 -14t2 -13l24 -160l24 -151q10 -68 13 -79q8 -34 48 -34h57q19 0 37 10.5t25 25.5l101 221l31 -221q2 -15 15 -25.5t33 -10.5h58q20 0 36.5 10.5t22.5 25.5l203 432q3 5 5 13
q2 17 -10 29.5t-34 12.5h-59q-21 0 -37.5 -11t-22.5 -26l-94 -217l-32 218q-2 15 -15 25.5t-34 10.5h-51q-20 0 -37 -10.5t-24 -25.5l-101 -218z" />
    <glyph glyph-name="x" unicode="x" horiz-adv-x="570" 
d="M78 0h64q36 0 59 25l103 112l70 -112q15 -25 51 -25h64q22 0 39.5 11.5t19.5 29.5q3 14 -6 28l-123 193l192 192q13 13 16 28q2 18 -11.5 29.5t-35.5 11.5h-64q-35 0 -57 -24l-115 -119l-72 118q-15 25 -50 25h-65q-22 0 -39.5 -12t-20.5 -30q-3 -13 6 -27l124 -197
q-7 -7 -42 -43t-57 -59q-47 -49 -64 -69q-4 -4 -11 -12.5t-10 -12.5l-7 -10q-3 -6 -4 -9q-3 -18 10.5 -30t35.5 -12z" />
    <glyph glyph-name="y" unicode="y" horiz-adv-x="570" 
d="M139 -76q-57 -97 -59 -112q-3 -18 10.5 -31t36.5 -13h49q34 0 59 31l12 18q6 12 9 17l42 69l139 234l19 31q19 31 42 70t44 74q92 158 93 167q3 18 -10 31t-37 13h-55q-41 0 -61 -33l-153 -262l-66 262q-3 14 -16.5 23.5t-33.5 9.5h-55q-23 0 -40.5 -12.5t-20.5 -31.5
q-2 -17 53 -211q12 -42 26.5 -91t26.5 -89l15 -50z" />
    <glyph glyph-name="z" unicode="z" horiz-adv-x="565" 
d="M106 0h355q25 0 42 14t19 33q0 2 1.5 9.5t2.5 11.5q3 15 2 27q-4 36 -47 36h-179l271 320q12 16 14 27q3 20 -11.5 32.5t-38.5 12.5h-338q-25 0 -42 -13.5t-20 -32.5q0 -2 -1.5 -9.5l-2.5 -12.5q-2 -16 -2 -26q4 -37 47 -37h164l-272 -322q-12 -12 -13 -26q-4 -20 11 -32
t38 -12z" />
    <glyph glyph-name="braceleft" unicode="{" horiz-adv-x="476" 
d="M320 -30q-1 4 -1 13q2 22 3 25l25 162q14 82 -33 136q63 55 77 137l25 162q0 1 2 10t4 15l4 12h20q20 0 31 3q41 9 46 44q3 16 4 22q3 15 2 27q-2 40 -47 40h-45q-44 0 -78 -16.5t-54 -44.5t-30.5 -55.5t-15.5 -56.5l-26 -167q-8 -48 -42 -64q-1 -1 -3 -1t-8 -2
q-39 -10 -44 -42l-7 -44q-3 -21 12 -33l7.5 -5t6.5 -4l14 -6q30 -15 22 -62l-26 -167q-7 -26 -3 -56.5t13.5 -56.5t39 -43.5t73.5 -17.5h45q24 0 41.5 14.5t20.5 32.5l3 15t2 14q4 18 1 29q-8 32 -61 32q-4 0 -10.5 -0.5t-9.5 -0.5z" />
    <glyph glyph-name="braceright" unicode="}" horiz-adv-x="477" 
d="M253 644v-2q1 -4 1 -13q0 -14 -2 -24l-27 -162q-12 -82 35 -137q-64 -53 -78 -136q-3 -19 -8 -56.5t-8 -56.5q-7 -41 -9 -50q-3 -15 -8 -29q0 -3 -2 -7h-33q-24 0 -41.5 -14.5t-20.5 -32.5q-1 -6 -5 -22q-2 -20 -2 -28q2 -40 47 -40h45q44 0 78 17t53.5 45t30 55t15.5 57
l27 167q6 45 43 62l15 6q3 2 9 4.5t8 3.5q19 13 23 33l6 44q6 29 -28 43l-2 1h-3q-2 1 -4 1l-1 1h-2q-31 15 -23 64l27 167q7 26 3.5 56t-13.5 56t-39 43.5t-73 17.5h-45q-25 0 -42.5 -14.5t-19.5 -32.5q-1 -6 -5 -22q-2 -18 -2 -28q2 -39 47 -39q27 0 33 2z" />
    <glyph glyph-name="asciitilde" unicode="~" horiz-adv-x="686" 
d="M120 182q16 -16 38 -16q24 0 42 16q9 8 21 26q8 16 18 29q19 29 39 29q12 0 26 -13q6 -6 18 -18.5t17 -17.5q58 -56 136 -56q71 0 127.5 45.5t86.5 103.5q5 6 6 15q1 18 -9 33q-10 16 -24 28q-12 10 -18 14q-11 7 -24 7q-26 0 -45 -19q-12 -14 -18 -25q-17 -25 -19 -28
q-21 -28 -38 -28q-12 0 -26 13q-6 6 -18 18.5t-17 17.5q-56 56 -137 56q-71 0 -125.5 -45t-87.5 -104q-5 -6 -6 -15q-2 -15 13 -37q13 -18 24 -29z" />
    <glyph glyph-name="cent" unicode="&#xa2;" horiz-adv-x="737" 
d="M473 -58l8 52q107 17 172 75q18 17 21 34q5 31 -40 67q-17 15 -38 15q-15 0 -37 -11q-5 -3 -16 -9.5t-17 -9.5q-42 -25 -94 -25q-74 0 -109 42.5t-25 106.5q10 63 58.5 105t122.5 42q56 0 88 -24l8 -8q1 -1 3 -2l2 -2l5 -5q17 -11 37 -11q22 0 43 14q55 38 61 67
q3 18 -10 34q-45 55 -145 73l9 52q3 20 -11.5 36t-40.5 16h-52q-26 0 -45.5 -16t-22.5 -36l-10 -57q-113 -28 -187 -106t-89 -172q-15 -95 34 -173t154 -106l-9 -58q-3 -20 11.5 -36.5t40.5 -16.5h52q26 0 45.5 16.5t22.5 36.5z" />
    <glyph glyph-name="sterling" unicode="&#xa3;" horiz-adv-x="785" 
d="M359 148l24 153h238q26 0 45.5 15.5t22.5 35.5l7 45q3 20 -11.5 36t-40.5 16h-237l7 46q9 52 49 85t101 33q49 0 79 -22q2 -2 10.5 -8.5t12.5 -9.5q16 -10 32 -10t48 16q7 4 14.5 8t14.5 8t10 6q28 19 32 42q1 18 -9 33q-31 41 -93 64t-128 23q-139 0 -236.5 -78
t-115.5 -190l-7 -46h-36q-26 0 -45.5 -16.5t-21.5 -35.5l-3 -17q-4 -25 -3.5 -42.5t18 -27t56.5 -9.5h11l-24 -153h-36q-26 0 -45 -16.5t-22 -36.5l-5 -24q-2 -20 -2 -30q4 -41 51 -41h541q27 0 46.5 16t22.5 36l7 43q3 20 -11.5 36.5t-40.5 16.5h-327z" />
    <glyph glyph-name="yen" unicode="&#xa5;" horiz-adv-x="878" 
d="M763 449h-50l198 211q15 15 18 34q3 23 -13 39t-45 16h-63q-33 0 -52 -22l-245 -269l-158 269q-13 22 -45 22h-63q-29 0 -50 -17t-25 -39q-3 -18 6 -33l131 -211h-29q-31 0 -44 -5q-39 -12 -47 -70q-11 -65 49 -65h157l6 -8l-3 -14h-163q-37 0 -58 -30q-10 -16 -14 -45
q-4 -26 4 -41q10 -24 46 -24h163l-15 -95q-3 -20 11.5 -36t40.5 -16h59q26 0 45 16t22 36l15 95h164q38 0 58 29q9 15 14 45q11 66 -50 66h-164l2 14l8 8h157q40 0 58 29q10 14 15 45q4 24 -4 41q-12 25 -47 25z" />
    <glyph glyph-name="copyright" unicode="&#xa9;" horiz-adv-x="1092" 
d="M993 375q0 163 -123.5 274.5t-324.5 111.5t-324 -111.5t-123 -274.5q0 -162 122.5 -274.5t324.5 -112.5t325 112.5t123 274.5zM257 375q0 109 78.5 182t209.5 73q132 0 210.5 -72.5t78.5 -182.5t-78 -183t-211 -73t-210.5 73t-77.5 183zM765 515q-28 47 -88.5 76.5
t-126.5 29.5q-124 0 -194.5 -73t-70.5 -173t68.5 -173t192.5 -73q67 0 129 28.5t90 76.5q7 12 7 24q0 19 -30 45t-55 26q-20 0 -38 -14l-12 -13l-12 -12q-30 -30 -79 -30q-56 0 -85 33t-29 82q0 50 29 82t85 32q49 0 79 -30l12 -12l12 -12q17 -15 38 -15q24 0 54.5 26
t30.5 45q0 12 -7 24z" />
    <glyph glyph-name="registered" unicode="&#xae;" horiz-adv-x="1092" 
d="M993 375q0 163 -123.5 274.5t-324.5 111.5t-324 -111.5t-123 -274.5q0 -162 122.5 -274.5t324.5 -112.5t325 112.5t123 274.5zM486 626q38 4 59 4q132 0 210.5 -72.5t78.5 -182.5q0 -125 -96 -198q0 3 -5 15q-4 9 -10 18q-16 28 -30 49q-9 13 -47 69q90 41 90 140
q0 69 -49.5 113.5t-136.5 44.5h-64zM379 160q-59 33 -90.5 90t-31.5 125q0 66 30.5 121.5t86.5 89.5v-7v-400q0 -11 5 -19zM514 430v76h26q18 0 32 -3q24 -6 24 -35q0 -21 -10 -29.5t-35 -8.5h-37zM514 285l80 -126q16 -26 49 -26h4q-48 -14 -102 -14t-102 14h17q24 0 39 14
t15 32v106z" />
    <glyph glyph-name="multiply" unicode="&#xd7;" horiz-adv-x="584" 
d="M147 435l88 -99l-123 -103q-15 -13 -18 -32q-3 -17 9 -31l33 -36q14 -16 37 -16q24 0 44 16l114 94l81 -93q13 -15 38 -15q24 0 42 15l41 34q15 13 19 31q3 18 -9 32l-89 99l122 102q18 14 19 32q3 17 -9 31l-32 36q-14 16 -38 16q-23 0 -43 -16l-113 -94l-81 94
q-13 15 -39 15q-25 0 -43 -15l-41 -34q-14 -13 -18 -31q-3 -18 9 -32z" />
    <glyph glyph-name="divide" unicode="&#xf7;" horiz-adv-x="674" 
d="M467 205q5 34 -13 58h147q24 0 41.5 14.5t19.5 32.5l8 47q2 18 -10.5 32.5t-36.5 14.5h-148q28 25 33 60q6 35 -15 61t-67 26q-45 0 -75.5 -26t-36.5 -61q-5 -36 15 -60h-149q-24 0 -41.5 -14.5t-19.5 -32.5l-8 -47q-3 -18 10 -32.5t37 -14.5h148q-28 -23 -33 -58
q-6 -35 16.5 -61t68.5 -26q45 0 74 26t35 61z" />
    <glyph glyph-name="endash" unicode="&#x2013;" horiz-adv-x="708" 
d="M180 263h432q24 0 41.5 14.5t20.5 32.5l7 47q3 18 -10 32.5t-37 14.5h-432q-24 0 -41.5 -14.5t-19.5 -32.5l-8 -47q-3 -18 10 -32.5t37 -14.5z" />
    <glyph glyph-name="emdash" unicode="&#x2014;" horiz-adv-x="990" 
d="M180 262h713q25 0 42 14t20 33l7 47q3 18 -10 32.5t-37 14.5h-713q-24 0 -41.5 -14.5t-20.5 -32.5l-7 -47q-3 -18 10 -32.5t37 -14.5z" />
    <glyph glyph-name="quoteleft" unicode="&#x2018;" horiz-adv-x="312" 
d="M361 703q6 38 -16 67t-71 29q-59 0 -89 -37.5t-37 -83.5q-10 -60 15 -125.5t79 -96.5q12 -7 28 -7q27 0 54 24t29 43q4 17 -10 32q-3 3 -6 6.5t-7.5 7.5t-6.5 6q-20 22 -27 53q55 24 65 82z" />
    <glyph glyph-name="quoteright" unicode="&#x2019;" horiz-adv-x="313" 
d="M174 703q-8 -58 40 -82q-15 -29 -44 -53q-3 -3 -12.5 -9.5t-14.5 -10.5q-18 -16 -20 -32q-3 -19 16 -43t46 -24q15 0 29 7q64 30 110 96.5t56 126.5q4 28 0.5 52.5t-25.5 46t-63 21.5q-49 0 -80 -29t-38 -67z" />
    <glyph glyph-name="quotedblleft" unicode="&#x201c;" horiz-adv-x="473" 
d="M523 703q6 38 -16.5 67t-70.5 29q-53 0 -87 -34q-24 34 -74 34q-59 0 -89 -37.5t-37 -83.5q-10 -60 15 -125.5t79 -96.5q12 -7 28 -7q22 0 45.5 18t33.5 37q24 -34 55 -49q14 -6 27 -6q27 0 54 24t30 43q2 17 -12 33q-39 39 -46 72q56 26 65 82zM318 575q-15 20 -22 46
q11 5 13 7q2 -26 9 -53z" />
    <glyph glyph-name="quotedblright" unicode="&#x201d;" horiz-adv-x="473" 
d="M174 703q-8 -58 40 -82q-16 -30 -45 -53q-4 -3 -13 -9.5t-13 -10.5q-18 -16 -20 -32q-3 -19 16 -43t46 -24q15 0 29 7q39 18 70 49q3 -20 20.5 -38t40.5 -18q15 0 31 7q63 29 109.5 96.5t55.5 127.5q4 28 0.5 52t-25.5 45.5t-63 21.5q-51 0 -86 -35q-23 35 -75 35
q-49 0 -80 -29t-38 -67zM343 581q12 22 22 46q6 -4 10 -6q-9 -17 -26 -34z" />
    <glyph glyph-name="Euro" unicode="&#x20ac;" horiz-adv-x="926" 
d="M165 224q22 0 34 1q27 -106 116 -171.5t224 -65.5q84 0 166.5 29t139.5 82q16 14 19 32q3 20 -13 37q-14 16 -28 28q-24 20 -45 20q-24 0 -47 -17q-44 -33 -80 -47t-88 -14q-118 0 -166 87h254q37 0 56 26q12 16 16 44q4 26 -3 43q-11 26 -47 26h-298q0 5 2 11q0 4 2 12
h297q41 0 58 29q10 14 15 45q1 13 0.5 27t-14 25.5t-37.5 11.5h-252q75 88 192 88q73 0 119 -41l5 -6q1 -1 3 -3.5t3 -3.5q6 -7 15 -15q17 -13 39 -13t45 15q30 22 40 31q25 23 29 43q3 27 -31 57q-95 84 -241 84q-136 0 -246.5 -65.5t-171.5 -170.5h-54q-26 0 -45 -15.5
t-22 -35.5l-6 -36q-3 -20 11 -35.5t40 -15.5h27q-2 -9 -4 -23q-50 0 -70.5 -14.5t-27.5 -59.5q-9 -50 31 -62q16 -4 39 -4z" />
    <glyph glyph-name="trademark" unicode="&#x2122;" horiz-adv-x="645" 
d="M329 482q15 -23 53 -23q43 0 58 23q14 -23 58 -23q25 0 41 12.5t16 32.5v233q0 46 -65 46q-46 0 -59 -29l-46 -105l-47 106q-12 28 -64 28q-13 0 -25 -4q-4 1 -12 1h-178q-53 0 -53 -54q0 -36 35 -46q10 -3 30 -3h15v-174q0 -46 65 -46q25 0 41.5 12.5t16.5 33.5v173h5
v-170q0 -23 18.5 -35t45.5 -12q38 0 51 23z" />
    <glyph glyph-name="minus" unicode="&#x2212;" horiz-adv-x="674" 
d="M623 404h-443q-24 0 -41.5 -14.5t-19.5 -32.5l-8 -47q-3 -18 10 -32.5t37 -14.5h443q24 0 41.5 14.5t19.5 32.5l8 47q2 18 -10.5 32.5t-36.5 14.5z" />
    <glyph glyph-name="_FSHallmark" horiz-adv-x="980" 
d="M92 688v96h819v-96h-819zM904 505h-99q0 10 -7 22q-9 10 -18 17q-16 8 -23 10q-3 0 -11.5 1.5t-12.5 1.5q-25 0 -47 -12q-20 -13 -20 -29q0 -30 18 -40q25 -13 44 -17l65 -15q17 -6 29 -7q5 -1 24 -6q3 -2 10.5 -5.5t10.5 -5.5q21 -13 31 -27q11 -18 12 -43
q1 -26 -10 -49q-25 -41 -72 -58q-48 -15 -93 -15q-39 0 -67 9q-26 7 -57 27q-25 18 -42 47q-15 27 -15 64l95 -2q0 -5 4 -14q2 -15 14 -26q11 -11 25 -17q17 -9 46 -9q32 0 52 12q20 9 20 25q0 30 -78 46q-74 18 -120 43q-49 26 -49 82q0 48 32 74q31 25 72 39q34 8 68 8
q48 0 93 -18q44 -18 65 -65q11 -27 11 -48zM200 360v-132h-108v407h345v-93h-237v-91h197v-91h-197zM428 277q0 21 14 35q13 13 35 13q20 0 39 -14q16 -13 16 -34q0 -19 -16 -34q-17 -13 -39 -13q-19 0 -34 15q-15 13 -15 32zM90 80v97h820v-97h-820z" />
    <glyph glyph-name="_Fontastica" horiz-adv-x="980" 
d="M283 338v-191h-113q-1 2 -1 5v664h497v-102h-383v-273h384v-103h-384zM355 523v103h385v190h113v-667h-498v101h385v273h-385zM740 82q-7 -4 -7 -10q0 -9 5 -14q4 -6 12 -6q9 0 18 6l6 -6q-9 -11 -24 -11q-10 0 -21 6q-6 7 -9 21q-1 13 8 22q10 10 22 10q14 0 24 -10
l-6 -8q-1 1 -3 2.5t-3 2.5q-1 2 -9 2h-3q-9 -4 -10 -7zM170 42v57h42v-10h-27v-16h26v-9h-26v-22h-15zM264 99q18 0 29 -15q8 -11 2 -26q-6 -16 -25 -17l-7 -3q-8 0 -12 4q-18 8 -18 25q0 15 9 23q6 9 22 9zM374 99v-57h-3q-2 -1 -4 -1q-5 0 -9 6l-6 8q0 2 -2 4.5t-3 3.5
l-12 14v-35h-13v57h11q4 -1 6 -8q9 -9 13 -14q1 -2 5 -8l6 -9v39h11zM399 89v10h48v-10h-18v-47h-12v47h-18zM577 72q12 -2 12 -13q1 -12 -10 -17q-2 -1 -11 -1q-19 0 -27 9q1 1 1 2l1 2q0 2 2 4l18 -6h8q4 6 4 3q0 9 -13 12q-2 0 -3 1t-5 1q-9 3 -9 13q-3 9 8 15q6 2 13 2
q14 0 23 -5l-5 -10q-2 1 -4 1q-1 0 -3 1q-1 1 -4 1q-1 0 -2 2h-8q-4 0 -4 -4q-2 -2 4 -8q6 -1 14 -5zM608 89v10h50v-10h-18v-47h-13v47h-19zM681 42v57h15v-57h-15zM816 99h16l12 -27q0 -2 6 -16q4 -10 7 -14h-13l-5 12h-28l-5 -12h-13q15 29 23 57zM484 97h13q2 -6 6 -13
q2 -2 4 -7t3 -6q0 -2 2 -7t3 -8t3 -7.5t2 -6.5h-13q-1 1 -1 5l-1 2q-1 1 -1.5 2t-0.5 3h-26q-1 -2 -1 -7q-1 -1 -1 -2l-3 -3h-12zM281 69v2q0 8 -4 13q-7 5 -14 5q-2 -2 -4 -2q-6 -1 -11 -9q-6 -7 -1 -14q4 -13 17 -13q4 0 5 1q12 3 12 17zM480 64h19q-1 0 -1 2t-1 3t-2 3
l-1 2q-1 2 -1 6q-1 1 -2 3l-1 2zM815 64h18q-1 1 -1 5q-2 5 -3 5q-1 1 -1 3t-1 3l-1 2q-1 2 -2 3z" />
    </font>
</defs>
</svg>
