<?xml version="1.0" standalone="no"?>
<!DOCTYPE svg PUBLIC "-//W3C//DTD SVG 1.1//EN" "http://www.w3.org/Graphics/SVG/1.1/DTD/svg11.dtd" >
<svg xmlns="http://www.w3.org/2000/svg" xmlns:xlink="http://www.w3.org/1999/xlink" version="1.1">
<metadata>
Created by FontForge 20170731 at Sat Jul 20 23:05:34 2019
 By Aleksey,,,
Copyright (c) 2019 by Fontastica. All rights reserved.
</metadata>
<defs>
<font id="Qartella-Light" horiz-adv-x="622" >
  <font-face 
    font-family="Qartella Light"
    font-weight="300"
    font-stretch="normal"
    units-per-em="1000"
    panose-1="0 0 4 0 0 0 0 0 0 0"
    ascent="800"
    descent="-200"
    x-height="479"
    cap-height="763"
    bbox="-77 -283 944 816"
    underline-thickness="50"
    underline-position="-200"
    unicode-range="U+0020-2212"
  />
<missing-glyph horiz-adv-x="637" 
d="M596 764l1 -2v-759l-557 -2v759l1 2zM551 44v679l-465 -2v-679zM182 559l138 -141l142 142l39 -39l1 -2l-143 -142l141 -139v-3l-36 -36l-140 140l-142 -142l-40 39l140 145l-139 140v2l36 36h3z" />
    <glyph glyph-name=".notdef" horiz-adv-x="637" 
d="M596 764l1 -2v-759l-557 -2v759l1 2zM551 44v679l-465 -2v-679zM182 559l138 -141l142 142l39 -39l1 -2l-143 -142l141 -139v-3l-36 -36l-140 140l-142 -142l-40 39l140 145l-139 140v2l36 36h3z" />
    <glyph glyph-name=".null" horiz-adv-x="0" 
 />
    <glyph glyph-name="nonmarkingreturn" horiz-adv-x="333" 
 />
    <glyph glyph-name="space" unicode=" " horiz-adv-x="276" 
 />
    <glyph glyph-name="exclam" unicode="!" horiz-adv-x="259" 
d="M100 214l-2 548h1h62l-2 -548h-59zM129 -11q-20 0 -32.5 13t-12.5 34t12.5 33t32.5 12q21 0 33.5 -12t12.5 -33t-12.5 -34t-33.5 -13z" />
    <glyph glyph-name="quotedbl" unicode="&#x22;" horiz-adv-x="381" 
d="M61 498q-2 0 -11 10.5t-9 13.5q40 36 60.5 67.5t24.5 77.5l1 11h-11q-23 0 -37.5 14t-14.5 38q0 25 14 40t38 15q56 0 56 -82q0 -58 -31.5 -118.5t-78.5 -85.5zM230 498q-1 0 -10 10.5t-9 13.5q38 36 59 68t26 76l1 12h-11q-24 0 -38 14t-14 38q0 25 14 40t38 15
q56 0 56 -82q0 -57 -31.5 -117.5t-78.5 -86.5z" />
    <glyph glyph-name="numbersign" unicode="#" horiz-adv-x="704" 
d="M99 0l26 103q30 114 31 117l3 13h-117v1q1 2 2.5 7t2.5 7l8 23q0 4 6 4h110l52 198h-132l1 2q2 8 4 12l8 23q1 4 7 4h124l62 245q1 3 5 3h47l-29 -109l-33 -126l-3 -13h196l65 245l1 3h3h47l-29 -109q-31 -109 -34 -126l-4 -13h134l-1 -2q-2 -6 -5 -12l-9 -22l-2 -4v-1
h-125l-53 -198h145l-1 -2q-2 -10 -4 -13l-7 -23q-2 -4 -6 -4h-138l-61 -229q-1 -4 -4 -4h-47l27 102q25 95 32 118l3 13h-198l-60 -229q0 -4 -4 -4h-46zM221 275h198l51 198h-197z" />
    <glyph glyph-name="dollar" unicode="$" horiz-adv-x="603" 
d="M321 -126h-37l1 115l-10 1q-119 8 -198 67l-14 11l-3.5 3.5t-4.5 4t-3 3.5q-2 2 -2 4l1 1l3 7l12 20q8 14 12 18l2 4q79 -73 193 -85l12 -1v298l-8 2q-221 57 -221 224q0 85 64.5 139t154.5 62h10v10l-1 28q1 3 1 6h6h29q0 -1 0.5 -2.5l1 -3t0.5 -3.5q0 -5 -0.5 -14
t-0.5 -11v-10h9q102 -7 167 -53l12 -8q6 -5 9 -9q2 -2 2 -6l-1 -2q0 -2 -2 -8l-9 -21q-10 -18 -11 -19l-2 -3q-78 62 -163 69l-11 1v-307l7 -2q50 -14 85 -27.5t70 -37t53 -58.5t18 -82q0 -99 -60.5 -152t-162.5 -57l-10 -1v-115zM285 416v297l-11 -1q-62 -5 -110.5 -42
t-48.5 -99q0 -35 13 -61t39.5 -43t47 -26t56.5 -20zM321 46l11 1q69 4 116 42t47 107q0 26 -11.5 47.5t-27 34.5t-41 25.5t-41 17.5t-40.5 12l-13 4v-291z" />
    <glyph glyph-name="percent" unicode="%" horiz-adv-x="807" 
d="M193 0l441 791l2 3h55l-441 -792l-2 -1l-1 -1h-1h-53zM204 447q-74 0 -118 44.5t-44 117.5q0 74 44.5 119t117.5 45t117 -45t44 -119q0 -73 -44 -117.5t-117 -44.5zM204 503q48 0 76 29t28 78q0 48 -28 77t-76 29q-46 0 -76 -29.5t-30 -76.5t29.5 -77t76.5 -30zM659 -11
q-73 0 -117.5 45t-44.5 118q0 74 44.5 119t117.5 45t117.5 -45t44.5 -119q0 -73 -44.5 -118t-117.5 -45zM658 45q47 0 76.5 29.5t29.5 77.5t-29.5 77.5t-76.5 29.5q-46 0 -75 -30t-29 -77t28.5 -77t75.5 -30z" />
    <glyph glyph-name="ampersand" unicode="&#x26;" horiz-adv-x="716" 
d="M323 -17q-77 0 -141.5 26.5t-106.5 83t-42 133.5q0 145 134 199l14 5l-10 11q-71 78 -71 154q0 80 50 129t130 49q106 0 147 -81l-3 -3q-4 -4 -16 -12q-12 -10 -29 -20l-4 4q-4 6 -8 10l-10 13q-35 35 -83 35q-55 0 -86 -36t-31 -90t51 -116q14 -17 45 -48q17 -17 43 -41
l233 -221l6 12q38 73 48 167q1 10 1.5 29.5t1.5 29.5v2h57l1 -1q0 -157 -67 -274l-4 -7l6 -6l74 -68q7 -7 22.5 -21.5t21.5 -20.5l9 -9h-62q-2 0 -8 2l-6 2l-85 81l-7 -8q-86 -94 -215 -94zM322 38q104 0 173 81l6 8l-285 268l-5 -2q-55 -20 -87 -64t-32 -103q0 -90 70 -139
t160 -49z" />
    <glyph glyph-name="quotesingle" unicode="'" horiz-adv-x="212" 
d="M61 498q-2 0 -11 10.5t-9 13.5q40 36 60.5 67t25.5 77l1 12h-11q-24 0 -38.5 14t-14.5 38q0 25 14 40t38 15q56 0 56 -82q0 -58 -31.5 -118.5t-78.5 -85.5z" />
    <glyph glyph-name="parenleft" unicode="(" horiz-adv-x="296" 
d="M229 -181h-45q-4 0 -8 6q-9 12 -20 33q-12 24 -17 35q-89 189 -89 396q0 200 89 397q21 46 37 71q3 5 8 5h46q-124 -219 -124 -466v-17q0 -115 32.5 -241t90.5 -219z" />
    <glyph glyph-name="parenright" unicode=")" horiz-adv-x="297" 
d="M67 -181q20 34 30 52q96 194 96 408l-1 10q0 118 -33.5 246t-92.5 228l48 -1q4 0 9 -6q9 -13 15 -28l15 -31q95 -201 95 -408q0 -216 -94 -407l-15 -30q-9 -17 -16 -26q-4 -7 -9 -7h-47z" />
    <glyph glyph-name="asterisk" unicode="*" horiz-adv-x="441" 
d="M324 371l-1 1l-101 143l-103 -143l-2 -1l-38 37l-2 2q1 0 1 0.5t1 0.5l105 123l-150 86l-1 1l3 6l9 14q4 6 10 15.5t7 11.5h2h1l136 -94l-9 186h57l-8 -186l135 94h2h1l18 -26q6 -9 9 -15l3 -6v-1l-150 -86l104 -123l1 -1l-2 -2z" />
    <glyph glyph-name="plus" unicode="+" horiz-adv-x="591" 
d="M325 83h-58q-1 0 -1 1v208h-203q-1 0 -1 1v52q0 1 1 1h203v208l1 1h57q1 0 1 -1v-208h204l1 -1v-52l-1 -1h-204v-209z" />
    <glyph glyph-name="comma" unicode="," horiz-adv-x="234" 
d="M72 -181q-1 0 -10.5 11.5t-9.5 14.5q0 1 1 1q4 4 12 10l13 12q53 51 60 121l1 11h-11q-24 0 -38.5 14.5t-14.5 38.5t14.5 38t37.5 14q56 0 56 -80q0 -57 -31.5 -118t-78.5 -87z" />
    <glyph glyph-name="hyphen" unicode="-" horiz-adv-x="421" 
d="M63 293q-1 0 -1 1v52q0 2 1 2h295q1 0 1 -2v-52q0 -1 -1 -1h-295z" />
    <glyph glyph-name="period" unicode="." horiz-adv-x="272" 
d="M136 -11q-23 0 -37.5 15t-14.5 38q0 24 14 38t38 14q23 0 37 -14t14 -38t-14 -38.5t-37 -14.5z" />
    <glyph glyph-name="slash" unicode="/" horiz-adv-x="393" 
d="M0 0l1 2l10 24l36 85l112 261q36 85 77.5 181.5t71 165t31.5 72.5q0 3 6 3h47l-10 -25q-5 -11 -17.5 -40.5t-18.5 -44.5l-112 -261l-179 -419q0 -4 -7 -4h-48z" />
    <glyph glyph-name="zero" unicode="0" horiz-adv-x="878" 
d="M439 -1q-153 0 -243.5 108.5t-90.5 267.5q0 160 90 268.5t244 108.5q153 0 244.5 -108.5t91.5 -268.5q0 -159 -91.5 -267.5t-244.5 -108.5zM439 41q88 0 152.5 50.5t94 124.5t29.5 159q0 63 -17.5 122t-50.5 107.5t-87 77.5t-121 29q-89 0 -153 -51t-93 -125t-29 -160
q0 -85 29 -159t93.5 -124.5t152.5 -50.5z" />
    <glyph glyph-name="one" unicode="1" horiz-adv-x="409" 
d="M224 13q-7 0 -7 6v656l-14 -5l-75 -31q-6 -2 -15.5 -6t-16.5 -6.5t-13 -4.5l-16 -6h-3l-1 -1q-8 0 -9 9q-1 4 -1 13v13q0 3 4 4l216 85l1 -6v-714q0 -1 -2.5 -3.5t-4.5 -2.5h-43z" />
    <glyph glyph-name="two" unicode="2" horiz-adv-x="697" 
d="M102 13q-5 0 -6 11q-2 7 0 14v13l4 4l7 7l314 293q47 45 72 83.5t25 91.5q0 86 -54 133.5t-139 47.5q-96 0 -166 -58l-14 -14l-14 -15q-4 -3 -6 -3q-4 0 -20 12t-16 15l3 5q40 49 103.5 74t132.5 25q109 0 179 -59.5t70 -166.5q0 -61 -27.5 -106t-82.5 -97l-290 -270h409
q5 0 6 -8q1 -4 1 -13l-1 -13q0 -6 -6 -6h-484z" />
    <glyph glyph-name="three" unicode="3" horiz-adv-x="738" 
d="M333 -1q-65 0 -132 18.5t-106 54.5q-3 2 -3 6t13 16.5t17 12.5q3 0 6 -3q45 -36 92.5 -49.5t111.5 -13.5q40 0 78 7.5t77 24.5t62.5 51t23.5 80q0 45 -23.5 77.5t-61 49t-74.5 23.5t-75 7h-104q-6 0 -7 8q-1 4 -1 13v14q0 7 8 7h100q29 0 56.5 4t57 14.5t52 27t36.5 43.5
t14 62q0 44 -21 76.5t-56 49t-70.5 24t-73.5 7.5q-120 0 -188 -62q-3 -3 -6 -3l-3 2l-9 6l-18 14q-3 2 -3 5t3 6q72 73 224 73q67 0 128 -18.5t106.5 -64.5t45.5 -113q0 -54 -33 -94.5t-88 -60.5l-7 -2v-28l7 -3q64 -21 104 -63t40 -103q0 -53 -28.5 -94t-74 -63.5t-96 -34
t-101.5 -11.5z" />
    <glyph glyph-name="four" unicode="4" horiz-adv-x="727" 
d="M465 13q-1 0 -3.5 2.5t-2.5 3.5v167h-387q-6 0 -8 11v15l1 14l299 511q2 2 4 2h41q11 0 11 -10q0 -3 -3 -7l-292 -496h334v249q0 6 6 6h41q6 0 6 -6v-249h138q6 0 7 -8q1 -4 1 -12l-1 -13q0 -7 -7 -7h-138v-167q0 -6 -6 -6h-41z" />
    <glyph glyph-name="five" unicode="5" horiz-adv-x="726" 
d="M343 -1q-138 0 -218 70q-19 17 -26 27v2q0 4 13 17t16 13q4 0 8 -5l14 -13q7 -9 15 -14q67 -55 177 -55q42 0 81 10t73 30t55 56.5t21 83.5q0 62 -37 104t-86 58t-106 16q-78 0 -140 -29l-3 -1l-6 4q-5 3 -15 13q-4 4 -10 9.5t-10.5 9.5t-6.5 6v1v3l19 318q0 6 7 6h402
q6 0 7 -8q1 -4 1 -13l-1 -13q0 -6 -7 -6h-357l-15 -283l15 6q48 20 120 20q73 0 136 -22t107.5 -74t44.5 -125t-44 -125t-107.5 -74.5t-136.5 -22.5z" />
    <glyph glyph-name="six" unicode="6" horiz-adv-x="762" 
d="M387 -1q-120 0 -201.5 63.5t-81.5 179.5q0 56 37 111l258 386h2h41q12 0 12 -11q0 -2 -3 -7l-181 -277l30 11q41 17 101 17q106 0 187.5 -62.5t81.5 -164.5q0 -117 -81 -181.5t-202 -64.5zM387 41q98 0 161.5 52t63.5 150q0 60 -35.5 101.5t-83.5 58t-104 16.5
q-88 0 -157.5 -45t-69.5 -132q0 -97 64.5 -149t160.5 -52z" />
    <glyph glyph-name="seven" unicode="7" horiz-adv-x="624" 
d="M162 13q-11 0 -11 12q0 4 1 5l367 669h-465q-6 0 -8 8v13l1 13q0 6 7 6h517q7 0 8 -11q1 -8 0 -15l-1 -14v-3l-373 -680q-3 -3 -5 -3h-38z" />
    <glyph glyph-name="eight" unicode="8" horiz-adv-x="809" 
d="M406 -1q-51 0 -101.5 11.5t-96.5 34.5t-74.5 64t-28.5 94q0 65 39 103t110 62l45 16l-27 10l-18 7q-35 13 -42 17q-84 44 -84 138q0 50 25 89.5t66 62t88 33.5t96 11q68 0 128.5 -18.5t105 -65t44.5 -113.5q0 -56 -28 -91t-83 -59l-54 -23l26 -8q78 -26 120.5 -64.5
t42.5 -107.5q0 -52 -28 -93t-73.5 -64t-96 -34.5t-101.5 -11.5zM403 404q38 0 72.5 6.5t70 21.5t56.5 46.5t21 75.5t-21 76.5t-55 49t-70 24t-74 7.5t-73.5 -7.5t-69 -24t-54 -48.5t-20.5 -76t20.5 -75.5t55 -47t69 -22t72.5 -6.5zM406 41q40 0 78.5 7.5t76.5 24.5t61.5 51
t23.5 80t-24 79t-63 49t-76.5 22.5t-76.5 6.5t-76.5 -6.5t-77 -22.5t-64 -49.5t-24.5 -79.5t24 -80t63 -50.5t77.5 -24t77.5 -7.5z" />
    <glyph glyph-name="nine" unicode="9" horiz-adv-x="760" 
d="M348 -2q-6 0 -16 0.5t-12 0.5q-13 0 -13 11q0 2 3 7l181 277l-29 -12q-45 -17 -101 -17q-107 0 -189 62.5t-82 164.5q0 118 81 182.5t203 64.5q121 0 202.5 -63t81.5 -179q0 -58 -36 -112l-257 -383q0 -2 -5 -3q-1 0 -5 -0.5t-7 -0.5zM373 318q89 0 158 45t69 133
q0 97 -65 149.5t-161 52.5q-99 0 -161.5 -52.5t-62.5 -151.5q0 -60 35.5 -101.5t84 -58t103.5 -16.5z" />
    <glyph glyph-name="colon" unicode=":" horiz-adv-x="244" 
d="M123 425q-28 0 -44 16t-16 43t16.5 43t43.5 16q26 0 42 -16t16 -43t-16 -43t-42 -16zM123 -10q-28 0 -44 16t-16 44q0 27 16.5 42t43.5 15q26 0 42 -15.5t16 -41.5q0 -28 -15.5 -44t-42.5 -16z" />
    <glyph glyph-name="semicolon" unicode=";" horiz-adv-x="263" 
d="M134 425q-26 0 -42.5 16t-16.5 43t16.5 43t42.5 16q27 0 43 -15.5t16 -43.5q0 -27 -15.5 -43t-43.5 -16zM77 -181l-2 1l-1 1l-12 15q-5 7 -5 8l-1 1l1 1q4 3 11.5 9t10.5 9q54 54 63 124l2 12h-12q-24 0 -39 14.5t-15 38.5t14.5 38t37.5 14q56 0 56 -79q0 -56 -31.5 -119
t-76.5 -87z" />
    <glyph glyph-name="less" unicode="&#x3c;" horiz-adv-x="580" 
d="M538 66l-13 5l-53 24l-164 72l-262 116q-4 2 -4 6v73q0 5 4 7l262 116q99 45 164 72l53 24l13 5v-56q0 -6 -4 -6l-459 -198l459 -198q4 -3 4 -6v-56z" />
    <glyph glyph-name="equal" unicode="=" horiz-adv-x="564" 
d="M85 394q-1 1 -1 2v51h395q1 0 1 -1v-50l-1 -2h-394zM84 225v52q0 1 1 1h394l1 -1v-51l-1 -1h-395z" />
    <glyph glyph-name="greater" unicode="&#x3e;" horiz-adv-x="581" 
d="M42 65v57q0 3 4 6l460 198l-460 198q-4 0 -4 6v56l14 -5l53 -24l163 -72q255 -113 263 -116q4 -4 4 -7v-73q-4 -5 -4 -6l-262 -115q-89 -40 -163 -72l-53 -24z" />
    <glyph glyph-name="question" unicode="?" horiz-adv-x="513" 
d="M194 209q-1 0 -1 1q0 24 6 46q12 43 43 81q14 18 30 33l32 32q41 39 63 77t22 92q0 65 -39 106.5t-103 41.5q-85 0 -160 -82q-1 0 -19 19t-18 22l1 1q77 94 195 94q90 0 145.5 -55.5t55.5 -146.5q0 -48 -15.5 -86.5t-35 -62.5t-60.5 -66q-46 -46 -62 -80q-8 -18 -11 -32
l-6 -33l-1 -2h-62zM229 -11q-21 0 -33.5 13t-12.5 34t12.5 33t33.5 12t33.5 -12.5t12.5 -32.5q0 -21 -12.5 -34t-33.5 -13z" />
    <glyph glyph-name="at" unicode="@" horiz-adv-x="989" 
d="M518 -94q-200 0 -327.5 116.5t-127.5 315.5q0 200 127 317.5t328 117.5q182 0 295 -112t113 -295q0 -68 -27 -123t-81 -78q-33 -13 -58 -13q-76 0 -114 63l-9 15l-9 -16q-45 -84 -151 -84q-87 0 -138.5 59t-51.5 148q0 91 51 149t139 58q91 0 139 -66l12 -16l6 19l8 31
q1 5 3 8l1 1q2 1 9 1h6.5h10h10.5l-1 -235q0 -40 25 -64t64 -24q31 0 53.5 17.5t33 45t15.5 53.5t5 51q0 154 -103 254.5t-256 100.5q-174 0 -288.5 -103t-114.5 -279q0 -174 114.5 -276t288.5 -102q135 0 237 94l2 1q1 0 21 -20.5t20 -21.5q-112 -108 -280 -108zM483 184
q66 0 103.5 43t37.5 109q0 68 -37 111t-104 43q-66 0 -104.5 -43.5t-38.5 -110.5t38 -109.5t105 -42.5z" />
    <glyph glyph-name="A" unicode="A" horiz-adv-x="695" 
d="M688 0h-55l-2 2l-101 250h-364l-101 -251q-1 -1 -3 -1h-54q15 40 144 357l162 401l2 2q0 1 3 1h59q3 0 5 -3l162 -401q89 -221 101 -250l32 -82l9 -23zM187 303h323l-160 403z" />
    <glyph glyph-name="B" unicode="B" horiz-adv-x="637" 
d="M96 0q-1 0 -1 1v762q1 -1 2 -1h206q65 0 117 -17t87.5 -59.5t35.5 -106.5q0 -98 -92 -146l-20 -10l21 -8q66 -25 102 -75.5t36 -120.5q0 -103 -66.5 -161t-171.5 -58h-256zM153 434h164q74 0 120.5 35t46.5 108q0 38 -16 65.5t-43 42t-56.5 20.5t-62.5 6h-153v-277z
M153 51h10q30 0 90 0.5t91 0.5q80 0 133.5 43t53.5 124t-48.5 129.5t-128.5 48.5q-32 0 -96 -0.5t-95 -0.5l-10 -1v-344z" />
    <glyph glyph-name="C" unicode="C" horiz-adv-x="741" 
d="M432 -11q-173 0 -278.5 108.5t-105.5 283.5q0 172 107.5 282t276.5 110q159 0 270 -102l-3 -3l-7.5 -7.5t-7.5 -8.5l-16 -14q-2 -1 -5 -4l-1 1q-95 81 -230 81q-147 0 -236.5 -93.5t-89.5 -242.5t89.5 -241.5t236.5 -92.5q109 0 192 53q6 5 17.5 14.5t18.5 13.5h3h2
q5 -5 23 -21l13 -13l2 -4q-104 -100 -271 -100z" />
    <glyph glyph-name="D" unicode="D" horiz-adv-x="728" 
d="M96 0q-1 0 -1 1v762l200 -1q175 0 280.5 -102.5t105.5 -278.5t-105.5 -278.5t-280.5 -102.5h-199zM153 52h142q150 0 239 88.5t89 240.5t-89 241t-239 89h-142v-659z" />
    <glyph glyph-name="E" unicode="E" horiz-adv-x="553" 
d="M96 0q-1 0 -1 1v762l405 -1l-1 -50v-1h-346v-296h320q1 0 1 -1v-50q0 -1 -1 -1h-320v-311h356q1 0 1 -1v-51h-414z" />
    <glyph glyph-name="F" unicode="F" horiz-adv-x="531" 
d="M96 0q-1 0 -1 1v762q1 -1 2 -1h403l-1 -50v-1h-2h-344v-296h320q1 0 1 -1v-50q0 -1 -1 -1h-320v-362l-1 -1h-56z" />
    <glyph glyph-name="G" unicode="G" horiz-adv-x="817" 
d="M419 -10q-170 0 -270.5 108.5t-100.5 282.5q0 177 106 284.5t281 107.5q159 0 266 -101l-3 -3l-15 -16l-17 -15q-2 -2 -4 -3q-92 81 -227 81q-148 0 -238.5 -92.5t-90.5 -242.5q0 -146 84.5 -240.5t228.5 -94.5q130 0 204.5 72t90.5 203l2 11h-286q-1 0 -1 1v50l1 1h340
q0 -178 -90 -286t-261 -108z" />
    <glyph glyph-name="H" unicode="H" horiz-adv-x="726" 
d="M152 0h-56q-1 0 -1 1v762l58 -1v-347h419v348l59 -1v-761l-1 -1h-58v363h-419v-362z" />
    <glyph glyph-name="I" unicode="I" horiz-adv-x="248" 
d="M95 0v763l57 -1q1 0 1 -1v-761h-58z" />
    <glyph glyph-name="J" unicode="J" horiz-adv-x="417" 
d="M43 -11q-10 0 -15 1q-11 2 -11 10l1 6q1 2 2.5 6.5t2.5 6.5l8 24q2 4 7 4q4 0 10.5 -0.5t9.5 -0.5q107 0 156 69.5t49 179.5v466l1 2l58 -1q1 0 1 -1v-466q0 -139 -66.5 -222t-198.5 -83z" />
    <glyph glyph-name="K" unicode="K" horiz-adv-x="597" 
d="M95 0v763l57 -1q1 0 1 -1v-761h-58zM518 0q-4 0 -7 3l-344 378l317 379q2 2 5 2h68l-321 -381l357 -381h-75z" />
    <glyph glyph-name="L" unicode="L" horiz-adv-x="473" 
d="M95 0v763l57 -1q1 0 1 -1v-709h288q1 0 1 -1v-51h-347z" />
    <glyph glyph-name="M" unicode="M" horiz-adv-x="926" 
d="M101 0q-6 0 -6 7v749q0 6 6 6h56h11l3 -2l292 -695l292 696l1 1h3h72q1 0 1 -1v-760l-1 -1h-57l-1 1v664l-276 -662q-1 -3 -5 -3h-58q-6 0 -6 3l-275 660v-662l-1 -1h-51z" />
    <glyph glyph-name="N" unicode="N" horiz-adv-x="771" 
d="M96 0q-1 0 -1 1v762l73 -1h1l2 -3l448 -684v688l57 -1v-761l-1 -1h-70l-2 1l-3 2l-447 683v-685l-1 -1h-56z" />
    <glyph glyph-name="O" unicode="O" horiz-adv-x="868" 
d="M435 -10q-175 0 -281 107t-106 284t106 284.5t281 107.5t281 -108t106 -284t-106 -283.5t-281 -107.5zM435 46q148 0 238 93t90 242q0 150 -90 242.5t-238 92.5t-238.5 -92.5t-90.5 -242.5t90.5 -242.5t238.5 -92.5z" />
    <glyph glyph-name="P" unicode="P" horiz-adv-x="588" 
d="M96 0q-1 0 -1 1v762q1 -1 2 -1h242q107 0 172.5 -54t65.5 -158q0 -105 -65.5 -159t-172.5 -54h-185v-336q0 -1 -1 -1h-57zM154 389h187q80 0 129 39.5t49 120.5t-48.5 121.5t-129.5 40.5h-187v-322z" />
    <glyph glyph-name="Q" unicode="Q" horiz-adv-x="862" 
d="M810 -156q-121 0 -231 161l-4 6l-7 -2q-63 -19 -133 -19q-175 0 -281 107t-106 284t106 284.5t281 107.5t281 -108t106 -284q0 -111 -46 -201.5t-137 -140.5l-10 -6l6 -9q85 -119 179 -119q35 0 72 13l8 3l6 3q8 3 10 3h3l1 -1q3 -4 19 -22q1 -2 4 -6.5t4 -6.5l3 -4
q0 -2 -2 -4q-3 -4 -10 -7q-5 -3 -13.5 -6.5t-10.5 -4.5q-52 -21 -98 -21zM435 46q49 0 95 12l13 3l-7 12l-73 116q-6 10 -21.5 35t-22.5 36l-14 24q-1 3 -4 6v1l31 12q2 1 17 7l6 2q1 0 2 -2l140 -227l8 4q79 44 118.5 122t39.5 172q0 150 -90 242.5t-238 92.5t-238.5 -92.5
t-90.5 -242.5t90.5 -242.5t238.5 -92.5z" />
    <glyph glyph-name="R" unicode="R" horiz-adv-x="592" 
d="M96 0q-1 0 -1 1v762l221 -1q108 0 173 -53.5t65 -158.5q0 -92 -52 -145.5t-145 -65.5l-16 -2l8 -13l112 -175l68 -108l22 -36q0 -1 1.5 -2.5t1.5 -2.5h-69l-2 1l-202 336h-127v-336q0 -1 -1 -1h-57zM154 389h164q81 0 129.5 39.5t48.5 120.5t-48.5 121.5t-129.5 40.5
h-164v-322z" />
    <glyph glyph-name="S" unicode="S" horiz-adv-x="603" 
d="M306 -11q-70 0 -141.5 23.5t-113.5 68.5l-1 1v1l4 8q6 11 12 19q8 14 12 19l3 3q1 0 2 -1q44 -41 105 -63t123 -22q76 0 130 37t54 113q0 68 -78 107q-27 14 -67 25q-25 8 -61 16q-50 13 -89 29.5t-73 43t-52.5 65.5t-18.5 89q0 94 75.5 148t175.5 54q135 0 212 -73l2 -2
v-1v-2q-2 -4 -2 -6l-8 -16l-15 -30l-1 -1l-3 2h2q-3 3 -13 11l-12 8q-74 52 -168 52q-69 0 -127.5 -37t-58.5 -107q0 -41 16 -67q21 -37 88 -66q27 -11 103 -33q52 -14 87 -27.5t71.5 -36.5t55 -58.5t18.5 -83.5q0 -107 -68 -158.5t-180 -51.5z" />
    <glyph glyph-name="T" unicode="T" horiz-adv-x="575" 
d="M259 0v711h-248v52l553 -1q1 0 1 -1v-49q0 -1 -1 -1h-248v-711h-57z" />
    <glyph glyph-name="U" unicode="U" horiz-adv-x="721" 
d="M362 -10q-133 0 -200 83.5t-67 222.5v466l58 -1v-466q0 -109 51 -179t158 -70t156 69.5t49 179.5v466q0 1 1 1h58v-467q0 -139 -66 -222t-198 -83z" />
    <glyph glyph-name="V" unicode="V" horiz-adv-x="692" 
d="M317 0q-4 0 -6 4l-162 400q-111 272 -144 357h64q2 0 4 -1l273 -703l272 703q1 1 3 1h65l-143 -357l-162 -400q0 -4 -7 -4h-57z" />
    <glyph glyph-name="W" unicode="W" horiz-adv-x="937" 
d="M235 0q-4 0 -4 2l-120 401q-96 322 -106 359h57q2 0 3 -2l192 -678l176 678q1 2 2 2h62l5 -2l177 -683l194 685h59q-2 -8 -18 -60.5t-41 -138t-48 -160.5l-120 -401l-2 -2h-51q-2 0 -2 2l-182 710l-184 -710q0 -2 -3 -2h-46z" />
    <glyph glyph-name="X" unicode="X" horiz-adv-x="609" 
d="M5 0l4 7q19 28 28 41l87 124q116 164 143 201l4 6l-4 6l-138 203q-62 92 -84 126l-27 42q-1 1 -2.5 3t-2.5 3h74q1 0 1 -1l217 -333l226 331q2 2 6 2h68q-6 -8 -23.5 -33l-45.5 -65t-52 -74l-144 -202l-4 -6l4 -6l138 -202l85 -125l27 -41l4 -7h-69q-5 0 -5 2l-217 329
l-227 -329q0 -2 -5 -2h-66z" />
    <glyph glyph-name="Y" unicode="Y" horiz-adv-x="602" 
d="M273 0q-1 0 -1 1l-1 303l-1 3l-142 242q-94 160 -123 212h65q5 0 6 -4l225 -404l225 404q1 4 7 4h64q-7 -11 -123 -212l-142 -242l-1 -3v-303l-1 -1h-57z" />
    <glyph glyph-name="Z" unicode="Z" horiz-adv-x="599" 
d="M26 0v1l1 1l428 709h-415l-2 1l1 49v2l514 -1h4q0 -1 -2 -3l-428 -707h441q1 0 1 -1v-50q0 -1 -1 -1h-542z" />
    <glyph glyph-name="bracketleft" unicode="[" horiz-adv-x="349" 
d="M287 -182h-203l1 943v2l201 -1q1 0 1 -1v-43l-1 -2h-149v-851h149l1 -1v-46z" />
    <glyph glyph-name="backslash" unicode="\" horiz-adv-x="385" 
d="M344 0l-3 1l-1 1l-180 418q-141 329 -159 374h52q1 0 3 -2l179 -418l111 -261l36 -86q6 -12 10 -24l1 -3h-49z" />
    <glyph glyph-name="bracketright" unicode="]" horiz-adv-x="348" 
d="M264 -183l-200 1q-1 1 -1 2v45q1 1 2 1h147v850h-148q-1 0 -1 2v45l201 -1v-945z" />
    <glyph glyph-name="asciicircum" unicode="^" 
d="M64 292q10 25 96 219l111 246l1 3q1 1 4 1h70q6 0 7 -4l110 -247q61 -136 68 -153l22 -51q2 -6 6 -14h-58l-2 1l-187 435l-187 -435q-2 -1 -3 -1h-58z" />
    <glyph glyph-name="underscore" unicode="_" horiz-adv-x="627" 
d="M63 -151v44h501q1 0 1 -1v-42q0 -1 -1 -1h-501z" />
    <glyph glyph-name="a" unicode="a" 
d="M282 -11q-109 0 -174.5 70t-65.5 181t65.5 181t174.5 70q130 0 191 -100l19 -31v113q0 6 13 7q7 1 19 0l12 -1q7 0 7 -6v-466q0 -6 -13 -8q-7 -1 -19 0t-14 1q-6 0 -6 7v112l-19 -30q-62 -100 -190 -100zM289 41q87 0 144.5 55.5t57.5 143.5q0 89 -57 145t-145 56
t-142.5 -56t-54.5 -145t54.5 -144t142.5 -55z" />
    <glyph glyph-name="b" unicode="b" 
d="M341 -11q-129 0 -191 100l-18 30v-112q0 -6 -13 -8q-6 -1 -18.5 0t-14.5 1q-7 0 -7 7v749q0 6 13 7q7 1 19 0l12 -1q8 0 8 -6v-396l18 31q61 100 192 100q109 0 174 -69.5t65 -181.5q0 -111 -65 -181t-174 -70zM334 41q88 0 142 55t54 144t-54 145t-142 56
q-87 0 -144.5 -56.5t-57.5 -144.5t57.5 -143.5t144.5 -55.5z" />
    <glyph glyph-name="c" unicode="c" horiz-adv-x="535" 
d="M289 -11q-111 0 -179 69.5t-68 181.5t69.5 182t180.5 70q62 0 116.5 -26.5t86.5 -76.5v-1q-1 -2 -4 -5q-9 -9 -15 -14l-16 -13q-3 -3 -4 -3l-1 1q-58 86 -166 86q-88 0 -142.5 -55.5t-54.5 -144.5t54.5 -144t142.5 -55q110 0 166 84l1 2h2q3 -4 23 -20l12 -12q2 -2 2 -3
q-70 -103 -206 -103z" />
    <glyph glyph-name="d" unicode="d" 
d="M284 -12q-109 0 -175 70t-66 181q0 112 65.5 181.5t175.5 69.5q129 0 190 -100l19 -31v396q0 6 13 7q7 1 18.5 0t12.5 -1q6 0 6 -6v-749q0 -7 -6 -7h-39q-6 0 -6 7v111l-19 -30q-62 -99 -189 -99zM290 40q87 0 144.5 55.5t57.5 143.5t-57.5 144.5t-144.5 56.5
q-88 0 -142.5 -56t-54.5 -145t54.5 -144t142.5 -55z" />
    <glyph glyph-name="e" unicode="e" horiz-adv-x="577" 
d="M301 -11q-115 0 -187 68.5t-72 182.5q0 113 68 182t179 69q121 0 184 -73.5t63 -198.5q0 -1 -1 -1h-442l2 -12q12 -78 69 -121.5t137 -43.5q94 0 153 59l3 2q1 0 20 -17.5t19 -18.5l-1 -1q-70 -76 -194 -76zM93 263h391l-1 11q-11 77 -64 122t-130 45t-130.5 -45
t-63.5 -122z" />
    <glyph glyph-name="f" unicode="f" horiz-adv-x="312" 
d="M103 0l-1 1l-1 434h-94l-1 1v42q0 1 1 1h94v157q0 73 33 122t99 49q61 0 108 -34h1q-5 -16 -27 -44l-1 1q-38 25 -78 25q-46 0 -68 -47q-14 -32 -14 -80v-149h137v-43q0 -1 -1 -1h-136v-434l-1 -1h-50z" />
    <glyph glyph-name="g" unicode="g" 
d="M290 -267q-108 0 -188 50l-2 1q0 10 26 46q72 -47 164 -47q91 0 146.5 51.5t55.5 143.5q0 17 -0.5 52.5t-0.5 53.5v35l-19 -30q-62 -100 -190 -100q-109 0 -174.5 70t-65.5 181t65.5 181t174.5 70q130 0 191 -100l19 -31v113q0 6 13 7q7 1 19 0l12 -1q7 0 7 -6v-489
q0 -115 -70 -183t-183 -68zM289 41q87 0 144.5 55.5t57.5 143.5q0 89 -57 145t-145 56t-142.5 -56t-54.5 -145t54.5 -144t142.5 -55z" />
    <glyph glyph-name="h" unicode="h" horiz-adv-x="585" 
d="M80 0l-1 1l-2 755q0 6 12 7q7 1 19 0t13 -1q7 0 7 -6l2 -409l19 39q52 105 170 105q95 0 142 -56.5t47 -156.5v-278h-53v278q0 163 -144 163q-78 0 -128.5 -65t-50.5 -145v-230q0 -1 -1 -1h-51z" />
    <glyph glyph-name="i" unicode="i" horiz-adv-x="219" 
d="M112 636q-22 0 -35 12.5t-13 34.5q0 21 13 33t35 12q20 0 32 -12t12 -33q0 -22 -12 -34.5t-32 -12.5zM84 0v479h52v-479h-52z" />
    <glyph glyph-name="j" unicode="j" horiz-adv-x="248" 
d="M136 636q-21 0 -33.5 12.5t-12.5 33.5t12.5 33.5t33.5 12.5t33.5 -12.5t12.5 -33.5q0 -22 -12.5 -34t-33.5 -12zM31 -269q-47 0 -94 26l-8 4q-3 1 -6 4q0 8 27 44l5 -3q5 -3 19 -9q30 -14 56 -14q45 0 67 48q14 32 14 80v567q1 1 2 1h50v-577q0 -73 -33 -122t-99 -49z
" />
    <glyph glyph-name="k" unicode="k" horiz-adv-x="479" 
d="M80 0l-1 1v793h52l1 -527v-267h-52zM406 0q-5 0 -8 3l-252 253l216 221q2 2 7 2h71l-225 -218l261 -261h-70z" />
    <glyph glyph-name="l" unicode="l" horiz-adv-x="219" 
d="M84 0v761h52v-761h-52z" />
    <glyph glyph-name="m" unicode="m" horiz-adv-x="901" 
d="M81 0v473q0 5 10 7h15l13 -1q6 0 6 -6v-128l20 41q49 105 157 105q118 0 159 -102l8 -20l10 18q59 104 168 104q90 0 132 -57.5t42 -155.5q0 -46 0.5 -138.5t0.5 -138.5q0 -1 -1 -1h-50q-1 0 -1 1v277q0 163 -132 163q-56 0 -94.5 -36.5t-55.5 -93.5q-1 -3 -3.5 -11.5
t-3.5 -13.5q-4 -16 -4 -26v-260h-47l-1 1v301q0 14 -7 44q-25 95 -127 95q-76 0 -121 -66t-45 -144v-230l-1 -1h-47z" />
    <glyph glyph-name="n" unicode="n" horiz-adv-x="585" 
d="M80 0l-1 1v472q0 5 13 7q7 1 18.5 0t12.5 -1q7 0 7 -6v-126l19 39q52 105 170 105q95 0 142 -56.5t47 -156.5v-278h-53v278q0 163 -144 163q-78 0 -128.5 -65t-50.5 -145v-230q0 -1 -1 -1h-51z" />
    <glyph glyph-name="o" unicode="o" horiz-adv-x="577" 
d="M289 -11q-111 0 -179 69.5t-68 181.5q0 113 68 182t179 69t179 -69t68 -182q0 -112 -68 -181.5t-179 -69.5zM289 41q88 0 142 55t54 144t-54.5 145t-141.5 56q-88 0 -142.5 -56t-54.5 -145t54.5 -144t142.5 -55z" />
    <glyph glyph-name="p" unicode="p" 
d="M104 -283l-16 1q-7 0 -7 7v749q0 6 13 7q7 1 20 0l12 -1q8 0 8 -6v-114l18 31q60 101 190 101q109 0 174 -70t65 -182q0 -111 -65 -180.5t-174 -69.5q-131 0 -192 99l-18 30v-394q0 -6 -12 -8h-16zM335 41q88 0 142 55t54 144t-54 145t-142 56t-144.5 -56t-56.5 -145
t56.5 -144t144.5 -55z" />
    <glyph glyph-name="q" unicode="q" 
d="M515 -283l-16 1q-6 0 -6 7v394l-19 -30q-61 -99 -190 -99q-109 0 -175 69.5t-66 180.5t66 181.5t175 70.5q128 0 189 -101l19 -31v114q0 6 13 7q7 1 19 0l13 -1q6 0 6 -6v-749q0 -7 -11 -8h-17zM290 41q87 0 144.5 55t57.5 144q0 88 -57.5 144.5t-144.5 56.5
q-88 0 -142.5 -56t-54.5 -145t54.5 -144t142.5 -55z" />
    <glyph glyph-name="r" unicode="r" horiz-adv-x="347" 
d="M80 0l-1 1v472q0 6 7 6h37q7 0 7 -6v-126l19 39q51 105 171 105q7 -6 7 -9q0 -8 -6 -26q-1 -2 -2.5 -7t-2.5 -7l-1 -1h-4q-78 0 -128.5 -65t-50.5 -145v-230q0 -1 -1 -1h-51z" />
    <glyph glyph-name="s" unicode="s" horiz-adv-x="420" 
d="M208 -10h-3q-83 0 -147 38l-12 6q-8 6 -9 7v2q0 4 9.5 20.5t13.5 21.5q62 -45 149 -45q46 0 77 15q46 20 46 66q0 44 -50 69q-24 10 -47 17l-53 16q-66 20 -101 49.5t-35 88.5q0 63 49.5 97t117.5 34h3q87 0 140 -44q0 -9 -7 -22q-1 -2 -13 -23q-55 38 -124 38
q-24 0 -47.5 -5.5t-44.5 -24t-21 -47.5q0 -46 50 -70q17 -9 47 -18l52 -16q65 -20 100 -49.5t35 -88.5q0 -65 -51.5 -98.5t-123.5 -33.5z" />
    <glyph glyph-name="t" unicode="t" horiz-adv-x="327" 
d="M223 -11q-117 0 -117 174v272h-94l-1 1v42q0 1 1 1h95v186l52 -1v-185h137q1 0 1 -1v-43h-1h-137v-265q0 -52 8 -78q13 -51 59 -51q21 0 45 15l14 10q2 2 3 2q1 -1 4.5 -5t7 -9t6.5 -10l9 -14q2 -2 2 -4q-47 -37 -94 -37z" />
    <glyph glyph-name="u" unicode="u" horiz-adv-x="585" 
d="M268 -11q-96 0 -142.5 56t-46.5 157v277h53v-279q0 -160 143 -160q78 0 129 64.5t51 143.5v230v2l52 -1h1v-472q0 -6 -13 -7h-32q-6 0 -6 7v126l-19 -38q-51 -106 -170 -106z" />
    <glyph glyph-name="v" unicode="v" horiz-adv-x="480" 
d="M214 0q-7 0 -7 4l-107 252q-70 168 -92 223h61l2 -2l169 -431l168 430q2 3 6 3h58l-200 -475q-2 -4 -5 -4h-53z" />
    <glyph glyph-name="w" unicode="w" horiz-adv-x="681" 
d="M152 0q-2 0 -2 2l-76 254l-66 223h59l1 -2l114 -439l128 438q0 3 3 3h54q3 0 3 -3l128 -440l114 441l2 2h58l-66 -223q-14 -49 -32.5 -110.5t-29.5 -99t-13 -44.5q0 -2 -3 -2h-60q-2 0 -3 2l-124 437l-123 -436l-2 -2q-2 0 -3 -1h-61z" />
    <glyph glyph-name="x" unicode="x" horiz-adv-x="479" 
d="M27 0l1 1l19 26l57 76l96 125l5 6l-185 245h66q7 0 10 -5l142 -195l148 195q4 5 10 5h63l-190 -239l181 -240h-63q-6 0 -11 5l-140 189l-136 -189q-5 -5 -11 -5h-62z" />
    <glyph glyph-name="y" unicode="y" horiz-adv-x="486" 
d="M114 -258q5 16 46 115l54 131l1 4l-1 4l-109 256q-74 176 -94 227h58q5 0 6 -3l165 -424l171 423q1 4 6 4h58q-2 -5 -22 -53.5t-55.5 -134t-65.5 -158.5l-160 -387q-2 -4 -5 -4h-53z" />
    <glyph glyph-name="z" unicode="z" horiz-adv-x="476" 
d="M426 0h-376v2l283 433h-271l-1 1v44l361 -1l-2 -3l-282 -432h289l-1 -43v-1z" />
    <glyph glyph-name="braceleft" unicode="{" horiz-adv-x="381" 
d="M270 -184q-54 0 -78 39.5t-24 102.5v185q0 44 -21.5 78t-62.5 45l1 47l9 3q3 1 11 3q31 16 47 48t16 68v185q0 141 102 141h48q1 0 1 -1v-47l-1 -1h-45q-32 0 -46 -37q-7 -21 -7 -55v-179q0 -97 -75 -143l-14 -9l15 -8q74 -46 74 -143v-180q0 -34 7 -55q13 -38 46 -38h45
l1 -1v-47q0 -1 -1 -1h-48z" />
    <glyph glyph-name="braceright" unicode="}" horiz-adv-x="381" 
d="M63 -184v49q0 1 1 1h45q32 0 44 37q7 19 7 55q0 30 -0.5 90t-0.5 90q0 96 76 143l15 8l-15 9q-76 47 -76 143q0 29 0.5 89t0.5 90q0 33 -7 55q-12 37 -44 37h-45q-1 0 -1 1v49l49 -1q101 0 101 -141v-185q0 -36 16 -68.5t48 -47.5l11 -3l9 -3h1l-1 -48
q-41 -10 -62.5 -43.5t-21.5 -78.5v-185q0 -142 -101 -142h-49z" />
    <glyph glyph-name="asciitilde" unicode="~" horiz-adv-x="605" 
d="M415 179q-61 0 -122 55l-22 22q-16 14 -24 19q-27 20 -58 20q-44 0 -73 -39q-9 -12 -21 -35q-6 -12 -16 -36q-2 3 -10 11t-11 12q-5 5 -11 13l-3 4q21 56 58.5 93.5t87.5 37.5q41 0 68 -14.5t55 -41.5l22 -21q16 -14 24 -20q27 -20 58 -20q42 0 72 39q12 14 22 35
q1 2 16 35l13 -12q9 -10 21 -22l1 -2v-2v-2q-20 -54 -58.5 -91.5t-88.5 -37.5z" />
    <glyph glyph-name="cent" unicode="&#xa2;" horiz-adv-x="655" 
d="M330 -123q-7 0 -7 8v104l-9 2q-103 18 -169.5 91t-66.5 177q0 103 66.5 176t169.5 91l9 1v104q0 7 7 7h54q7 0 7 -7v-103l10 -1q107 -5 168 -68q3 -3 3 -5q0 -4 -17.5 -21.5t-22.5 -17.5q-2 0 -6 2q-4 3 -11 9t-11 9q-55 38 -131 38q-96 0 -159 -59t-63 -155
q0 -97 63 -156.5t159 -59.5q89 0 157 57q3 3 7 3t21.5 -17.5t17.5 -21.5q0 -2 -3 -5q-63 -64 -172 -71l-10 -1v-102q0 -8 -7 -8h-54z" />
    <glyph glyph-name="sterling" unicode="&#xa3;" horiz-adv-x="707" 
d="M67 0q-6 0 -6 7v48q0 7 6 7h94v272h-94q-6 0 -6 6v49q0 8 6 8h94v102q0 112 78 179t192 67q56 0 113 -20t90 -57q2 -2 2 -5t-4 -6l-28 -19q-12 -8 -17 -10l-5 -3q-3 0 -6 2l-11 10l-12 9q-50 35 -122 35q-82 0 -138 -49.5t-56 -132.5v-102h306q7 0 7 -8v-49q0 -6 -7 -6
h-306v-272h400q7 0 7 -7v-48q0 -7 -7 -7h-570z" />
    <glyph glyph-name="yen" unicode="&#xa5;" horiz-adv-x="806" 
d="M373 0q-7 0 -7 7v157h-228q-6 0 -6 7v39q0 7 6 7h228v82l-33 44h-195q-6 0 -6 7v39q0 8 6 8h156l-231 313q-3 4 -3 8q0 12 13 12h67l3 -1l260 -366l260 366l4 1h66q14 0 14 -11q0 -5 -4 -9l-232 -313h159q7 0 7 -8v-39q0 -7 -7 -7h-195l-34 -44v-82h229q7 0 7 -7v-39
q0 -7 -7 -7h-229v-157q0 -7 -6 -7h-62z" />
    <glyph glyph-name="copyright" unicode="&#xa9;" horiz-adv-x="1027" 
d="M513 -13q-175 0 -295 103.5t-120 275.5q0 171 120 274t295 103q113 0 206.5 -44t151 -131t57.5 -202q0 -173 -120 -276t-295 -103zM513 31q153 0 256.5 91t103.5 244q0 152 -104 242.5t-256 90.5t-256 -90.5t-104 -242.5q0 -154 103 -244.5t257 -90.5zM514 143
q-98 0 -158.5 62t-60.5 161t62.5 160.5t160.5 61.5q53 0 101.5 -24.5t75.5 -67.5l1 -2q-31 -28 -34 -28l-1 2q-53 75 -147 75q-79 0 -127.5 -49t-48.5 -128q0 -80 48.5 -129.5t127.5 -49.5q94 0 147 75l2 2q3 0 18 -14t15 -15l-1 -2q-27 -43 -76.5 -66.5t-104.5 -23.5z" />
    <glyph glyph-name="registered" unicode="&#xae;" horiz-adv-x="1027" 
d="M513 -13q-175 0 -295 103.5t-120 275.5q0 171 120 274t295 103q113 0 206.5 -44t151 -131t57.5 -202q0 -173 -120 -276t-295 -103zM513 31q153 0 256.5 91t103.5 244q0 152 -104 242.5t-256 90.5t-256 -90.5t-104 -242.5q0 -154 103 -244.5t257 -90.5zM389 147l-1 445h1
l1 1h128q63 0 101 -32t38 -93q0 -51 -28 -82.5t-79 -39.5l-16 -2l8 -13l64 -100l38 -60l12 -21q1 -1 1 -3h-41q-1 0 -3 2l-116 194h-73v-195l-1 -1h-34zM424 376h95q46 0 75 22.5t29 69.5t-29 70t-75 23h-95v-185z" />
    <glyph glyph-name="multiply" unicode="&#xd7;" horiz-adv-x="496" 
d="M103 131l-41 41l146 150l-144 144v2l37 37h1h2l142 -146l147 148l40 -41l1 -1l-147 -148l145 -144v-2l-37 -38l-144 146z" />
    <glyph glyph-name="divide" unicode="&#xf7;" horiz-adv-x="591" 
d="M298 417q-22 0 -35 13t-13 34t13 33.5t35 12.5q20 0 32 -12.5t12 -33.5t-12 -34t-32 -13zM63 292q-1 0 -1 1v52q0 1 1 1h466l1 -1v-52l-1 -1h-466zM298 131q-22 0 -35 12.5t-13 33.5t13 33.5t35 12.5q20 0 32 -12.5t12 -33.5t-12 -33.5t-32 -12.5z" />
    <glyph glyph-name="endash" unicode="&#x2013;" horiz-adv-x="624" 
d="M85 292q-1 0 -1 1v52q0 1 1 1h455l1 -1v-52l-1 -1h-455z" />
    <glyph glyph-name="emdash" unicode="&#x2014;" horiz-adv-x="921" 
d="M837 291h-753v53q0 1 1 1h751q1 0 1 -1v-53z" />
    <glyph glyph-name="quoteleft" unicode="&#x2018;" horiz-adv-x="211" 
d="M151 498h-1q-48 28 -79 87t-31 117q0 83 57 83q24 0 37.5 -15t13.5 -40q0 -24 -14 -38t-37 -14h-11l1 -11q3 -46 23.5 -77t60.5 -67q0 -3 -9 -14t-11 -11z" />
    <glyph glyph-name="quoteright" unicode="&#x2019;" horiz-adv-x="212" 
d="M61 498q-2 0 -11 10.5t-9 13.5q40 36 60.5 67t25.5 77l1 12h-11q-24 0 -38.5 14t-14.5 38q0 25 14 40t38 15q56 0 56 -82q0 -58 -31.5 -118.5t-78.5 -85.5z" />
    <glyph glyph-name="quotedblleft" unicode="&#x201c;" horiz-adv-x="381" 
d="M152 498h-1q-48 28 -79 87t-31 117q0 83 57 83q24 0 37 -15t13 -40q0 -24 -14 -38t-37 -14h-12l2 -12q4 -46 24.5 -76.5t60.5 -66.5q0 -3 -9 -14t-11 -11zM322 498l-2 1q-45 23 -77 86t-32 119q0 81 56 81q24 0 38 -15.5t14 -39.5q0 -23 -14.5 -37.5t-37.5 -14.5h-11
l1 -12q8 -79 84 -143l1 -2q0 -2 -9 -12.5t-11 -10.5z" />
    <glyph glyph-name="quotedblright" unicode="&#x201d;" horiz-adv-x="381" 
d="M61 498q-2 0 -11 10.5t-9 13.5q40 36 60.5 67.5t24.5 77.5l1 11h-11q-23 0 -37.5 14t-14.5 38q0 25 14 40t38 15q56 0 56 -82q0 -58 -31.5 -118.5t-78.5 -85.5zM230 498q-1 0 -10 10.5t-9 13.5q38 36 59 68t26 76l1 12h-11q-24 0 -38 14t-14 38q0 25 14 40t38 15
q56 0 56 -82q0 -57 -31.5 -117.5t-78.5 -86.5z" />
    <glyph glyph-name="Euro" unicode="&#x20ac;" horiz-adv-x="856" 
d="M511 -13q-125 0 -221.5 68t-132.5 187l-2 7h-99q-5 0 -7 14q-1 7 0 19t1 13q0 8 6 8h90l-2 12q-4 23 -4 51t4 51l2 12h-90q-6 0 -7 13q-1 7 0 19t1 14q0 6 6 6h99l2 8q36 119 133 186.5t223 67.5t217 -69q25 -20 35 -33q2 -2 2 -4q-1 -3 -4 -7q-6 -8 -12 -14t-15.5 -14.5
t-11.5 -10.5q-4 -2 -5 -2q-5 0 -7 3q-3 2 -9 7.5t-8 7.5q-9 10 -18 17q-70 57 -166 57q-93 0 -164.5 -49t-103.5 -137l-5 -14h351q7 0 7 -6v-40q0 -6 -7 -6h-366l-1 -9q-3 -27 -3 -54q0 -26 3 -55l1 -8h366q6 0 8 -14q1 -7 0 -19.5t-1 -13.5q0 -7 -7 -7h-352l5 -13
q32 -88 103.5 -136.5t165.5 -48.5q120 0 207 84q4 3 7 3l5 -3q8 -6 14 -12q6 -5 14.5 -13t10.5 -9q4 -3 4 -6l-2 -4q-47 -51 -116 -77.5t-144 -26.5z" />
    <glyph glyph-name="trademark" unicode="&#x2122;" horiz-adv-x="562" 
d="M473 770l2 -3v-258l-2 -3q-2 0 -3 1q0 -1 1 -1l-8 1h-2h-7v219l-92 -217l-3 -2h-2h-12h-5l-1 -2l-2 1l-92 219v-218h-4h-7h-8q-4 0 -4 4v258l5 1h9h8l7 -2l98 -235l98 235q4 2 11 2h15zM4 768h191q1 -1 1 -9v-2l-1 -9h-84v-243h-5v-1l-8 1h-3h-4l-3 3v240h-84q-1 1 -1 8
l1 1v2v9z" />
    <glyph glyph-name="minus" unicode="&#x2212;" horiz-adv-x="591" 
d="M63 292q-1 0 -1 1v52q0 1 1 1h466l1 -1v-52l-1 -1h-466z" />
    <glyph glyph-name="_FSHallmark" horiz-adv-x="980" 
d="M92 688v96h819v-96h-819zM735 228q-39 0 -67 9q-26 7 -57 27q-25 18 -42 47q-15 27 -15 64l95 -2q0 -5 4 -14q2 -15 14 -26q11 -11 25 -17q17 -9 46 -9q32 0 52 12q20 9 20 25q0 30 -78 46q-74 18 -120 43q-49 26 -49 82q0 48 32 74q31 25 72 39q34 8 68 8q48 0 93 -18
q44 -18 65 -65q11 -27 11 -48h-99q0 10 -7 22q-9 10 -18 17q-16 8 -23 10q-3 0 -11.5 1.5t-12.5 1.5q-25 0 -47 -12q-20 -13 -20 -29q0 -30 18 -40q25 -13 44 -17l65 -15q17 -6 29 -7q5 -1 24 -6q3 -2 10.5 -5.5t10.5 -5.5q21 -13 31 -27q11 -18 12 -43q1 -26 -10 -49
q-25 -41 -72 -58q-48 -15 -93 -15zM92 228v407h345v-93h-237v-91h197v-91h-197v-132h-108zM477 230q-19 0 -34 15q-15 13 -15 32q0 21 14 35q13 13 35 13q20 0 39 -14q16 -13 16 -34q0 -19 -16 -34q-17 -13 -39 -13zM90 80v97h820v-97h-820z" />
    <glyph glyph-name="_Fontastica" horiz-adv-x="980" 
d="M170 147q-1 2 -1 5v664h497v-102h-383v-273h384v-103h-384v-191h-113zM355 149v101h385v273h-385v103h385v190h113v-667h-498zM750 41q-10 0 -21 6q-6 7 -9 21q-1 13 8 22q10 10 22 10q14 0 24 -10l-6 -8q-1 1 -3 2.5t-3 2.5q-1 2 -9 2h-3q-9 -4 -10 -7q-7 -4 -7 -10
q0 -9 5 -14q4 -6 12 -6q9 0 18 6l6 -6q-9 -11 -24 -11zM170 42v57h42v-10h-27v-16h26v-9h-26v-22h-15zM263 38q-8 0 -12 4q-18 8 -18 25q0 15 9 23q6 9 22 9q18 0 29 -15q8 -11 2 -26q-6 -16 -25 -17zM367 41q-5 0 -9 6l-6 8q0 2 -2 4.5t-3 3.5l-12 14v-35h-13v57h11
q4 -1 6 -8q9 -9 13 -14q1 -2 5 -8l6 -9v39h11v-57h-3q-2 -1 -4 -1zM417 42v47h-18v10h48v-10h-18v-47h-12zM568 41q-19 0 -27 9q1 1 1 2l1 2q0 2 2 4l18 -6h8q4 6 4 3q0 9 -13 12q-2 0 -3 1t-5 1q-9 3 -9 13q-3 9 8 15q6 2 13 2q14 0 23 -5l-5 -10q-2 1 -4 1q-1 0 -3 1
q-1 1 -4 1q-1 0 -2 2h-8q-4 0 -4 -4q-2 -2 4 -8q6 -1 14 -5q12 -2 12 -13q1 -12 -10 -17q-2 -1 -11 -1zM627 42v47h-19v10h50v-10h-18v-47h-13zM681 42v57h15v-57h-15zM793 42q15 29 23 57h16l12 -27q0 -2 6 -16q4 -10 7 -14h-13l-5 12h-28l-5 -12h-13zM460 42l24 55h13
q2 -6 6 -13q2 -2 4 -7t3 -6q0 -2 2 -7t3 -8t3 -7.5t2 -6.5h-13q-1 1 -1 5l-1 2q-1 1 -1.5 2t-0.5 3h-26q-1 -2 -1 -7q-1 -1 -1 -2l-3 -3h-12zM264 51q4 0 5 1q12 3 12 17v2q0 8 -4 13q-7 5 -14 5q-2 -2 -4 -2q-6 -1 -11 -9q-6 -7 -1 -14q4 -13 17 -13zM480 64h19q-1 0 -1 2
t-1 3t-2 3l-1 2q-1 2 -1 6q-1 1 -2 3l-1 2zM815 64h18q-1 1 -1 5q-2 5 -3 5q-1 1 -1 3t-1 3l-1 2q-1 2 -2 3z" />
    </font>
</defs>
</svg>
