<?xml version="1.0" standalone="no"?>
<!DOCTYPE svg PUBLIC "-//W3C//DTD SVG 1.1//EN" "http://www.w3.org/Graphics/SVG/1.1/DTD/svg11.dtd" >
<svg xmlns="http://www.w3.org/2000/svg" xmlns:xlink="http://www.w3.org/1999/xlink" version="1.1">
<metadata>
Created by FontForge 20170731 at Sat Jul 20 23:00:39 2019
 By Aleksey,,,
Copyright (c) 2019 by Fontastica. All rights reserved.
</metadata>
<defs>
<font id="Qartella-Italic" horiz-adv-x="637" >
  <font-face 
    font-family="Qartella Italic"
    font-weight="400"
    font-style="italic"
    font-stretch="normal"
    units-per-em="1000"
    panose-1="0 0 5 0 0 0 0 0 0 0"
    ascent="800"
    descent="-200"
    x-height="489"
    cap-height="766"
    bbox="-112.5 -276 1064.47 818"
    underline-thickness="50"
    underline-position="-200"
    unicode-range="U+0020-2212"
  />
<missing-glyph 
d="M596 764l1 -2v-759l-557 -2v759l1 2zM551 44v679l-465 -2v-679zM182 559l138 -141l142 142l39 -39l1 -2l-143 -142l141 -139v-3l-36 -36l-140 140l-142 -142l-40 39l140 145l-139 140v2l36 36h3z" />
    <glyph glyph-name=".notdef" 
d="M596 764l1 -2v-759l-557 -2v759l1 2zM551 44v679l-465 -2v-679zM182 559l138 -141l142 142l39 -39l1 -2l-143 -142l141 -139v-3l-36 -36l-140 140l-142 -142l-40 39l140 145l-139 140v2l36 36h3z" />
    <glyph glyph-name=".null" horiz-adv-x="0" 
 />
    <glyph glyph-name="nonmarkingreturn" horiz-adv-x="333" 
 />
    <glyph glyph-name="space" unicode=" " horiz-adv-x="276" 
 />
    <glyph glyph-name="exclam" unicode="!" horiz-adv-x="278" 
d="M144 209q-10 0 -9 10l83 536q2 11 12 11h60q12 0 10 -11l-87 -536q-1 -10 -13 -10h-56zM137 -11q-25 0 -37.5 15.5t-8.5 40.5t21.5 39.5t42.5 14.5t37.5 -14.5t8.5 -39.5t-21.5 -40.5t-42.5 -15.5z" />
    <glyph glyph-name="quotedbl" unicode="&#x22;" horiz-adv-x="398" 
d="M148 487q-6 0 -9 5l-15 22q-4 9 5 15q82 58 101 134q-28 0 -42 17t-9 44q5 29 24 46.5t47 17.5q41 0 51 -39q13 -62 -35 -145.5t-112 -114.5q-4 -2 -6 -2zM315 487q-4 0 -9 5l-14 22q-4 9 5 15q81 59 101 134q-28 0 -42 17t-9 44q5 29 24 46.5t47 17.5q41 0 51 -39
q13 -62 -35 -145.5t-112 -114.5q-4 -2 -7 -2z" />
    <glyph glyph-name="numbersign" unicode="#" horiz-adv-x="719" 
d="M107 0q-10 0 -6 11l91 217h-105q-13 0 -6 11l19 39q6 11 18 11h101l73 174h-121q-10 0 -4 11l19 38q5 11 18 11h115l97 232q5 11 15 11h48q12 0 7 -11l-98 -232h174l99 232q3 11 14 11h48q13 0 8 -11l-100 -232h121q11 0 6 -11l-21 -38q-3 -11 -16 -11h-114l-74 -174h133
q11 0 6 -11l-19 -39q-5 -11 -17 -11h-129l-92 -217q-4 -11 -16 -11h-47q-12 0 -7 11l92 217h-175l-91 -217q-5 -11 -16 -11h-48zM289 289h175l72 174h-174z" />
    <glyph glyph-name="dollar" unicode="$" horiz-adv-x="617" 
d="M274 -123q-11 0 -10 11l16 102q-60 4 -109.5 23.5t-70 35.5t-33.5 32q-7 7 1 17l37 49q4 4 7 4q1 0 3 -0.5t3 -0.5l1 -2q70 -70 174 -81l43 273q-112 30 -156.5 85t-34.5 140q12 84 85 143t175 67l5 32q2 11 13 11h34q11 0 9 -11l-5 -32q51 -3 92.5 -18t59.5 -28t29 -26
q6 -6 0 -19l-33 -51q-3 -5 -8 -5q-4 0 -5 2q-56 59 -148 67l-44 -282q115 -32 161 -78.5t37 -122.5q-12 -99 -81 -159.5t-185 -64.5l-16 -102q-1 -11 -12 -11h-34zM350 431l42 266q-66 -6 -113 -42t-55 -86t18 -80.5t108 -57.5zM348 66q73 4 119 41t55 95q7 45 -24 73
t-108 51z" />
    <glyph glyph-name="percent" unicode="%" horiz-adv-x="818" 
d="M194 0q-11 0 -1 12l561 777q5 8 12 8h59q11 0 4 -12l-562 -778q-7 -7 -13 -7h-60zM281 437q-77 0 -116 46.5t-27 122.5t66 123t131 47q76 0 115 -46.5t27 -123.5q-12 -76 -65.5 -122.5t-130.5 -46.5zM293 512q42 0 72.5 26t35.5 69q8 41 -13.5 67.5t-64.5 26.5
q-42 0 -72 -26t-38 -68q-6 -43 15.5 -69t64.5 -26zM660 -11q-76 0 -115.5 47t-27.5 123t66.5 123t130.5 47t115.5 -47t27.5 -123t-66 -123t-131 -47zM671 64q43 0 73 26t37 69q7 42 -15 68t-65 26q-41 0 -71 -26t-37 -68q-7 -43 14.5 -69t63.5 -26z" />
    <glyph glyph-name="ampersand" unicode="&#x26;" horiz-adv-x="736" 
d="M327 -17q-133 0 -203.5 70t-53.5 178q11 74 56 126t115 78q-59 77 -48 157q13 83 73 133.5t144 50.5q111 0 142 -84q3 -10 -8 -15l-52 -33l-5 -3q-6 0 -10 6q-20 55 -85 56q-47 0 -80.5 -30.5t-42.5 -82.5q-4 -25 2.5 -50t27.5 -54t32.5 -42.5t41.5 -46.5l188 -207
q63 91 83 217q2 11 13 11h55q11 0 9 -11q-26 -159 -110 -273l112 -122q5 -5 3.5 -8.5t-9.5 -3.5h-70q-5 0 -19 7l-65 72q-104 -96 -236 -96zM338 57q97 0 175 76l-230 252q-55 -18 -91 -59t-44 -95q-12 -74 41 -124t149 -50z" />
    <glyph glyph-name="quotesingle" unicode="'" horiz-adv-x="231" 
d="M148 487q-6 0 -9 5l-15 22q-4 9 5 15q82 58 102 134q-28 0 -42.5 17t-9.5 44q5 29 24 46.5t47 17.5q41 0 51 -39q13 -62 -35 -145.5t-112 -114.5q-4 -2 -6 -2z" />
    <glyph glyph-name="parenleft" unicode="(" horiz-adv-x="318" 
d="M165 -177q-13 0 -15 10q-8 17 -17 40t-21 69t-19 95.5t-7.5 118t10.5 137.5q13 82 41.5 163t61.5 142.5t56 97.5t41 60q5 10 18 10h52q12 0 4 -10q-20 -26 -41 -60t-55.5 -96.5t-62 -143.5t-40.5 -163q-12 -69 -12 -138t7 -118t19 -95.5t21 -68.5t17 -40q7 -10 -6 -10
h-52z" />
    <glyph glyph-name="parenright" unicode=")" horiz-adv-x="318" 
d="M45 -177q-10 0 -3 10q18 22 41 56.5t56 94.5t61 142t40 167q11 66 11 133.5t-7 116.5t-19 97t-20.5 71.5t-16.5 43.5l-1 2q-1 9 7 9h53q11 0 16 -10q90 -228 52 -463q-13 -85 -41 -166.5t-61.5 -142.5t-55 -94t-40.5 -57q-10 -10 -19 -10h-53z" />
    <glyph glyph-name="asterisk" unicode="*" horiz-adv-x="458" 
d="M185 363q-5 0 -6 2l-33 37q-9 7 1 17l114 111l-126 78q-7 6 -1 15l36 46q4 5 10 5q1 0 3 -0.5t3 -0.5l107 -82l17 162q2 11 13 11h54q11 0 9 -11l-32 -162l132 82q1 0 3 0.5t3 0.5q7 0 8 -5l23 -46q3 -8 -7 -15l-150 -78l77 -111q6 -9 -3 -17l-45 -37q-3 -2 -8 -2
q-3 0 -7 5l-71 129l-114 -129q-4 -5 -10 -5z" />
    <glyph glyph-name="plus" unicode="+" horiz-adv-x="606" 
d="M288 81q-12 0 -9 11l30 194h-191q-11 0 -9 11l8 51q2 11 13 11h191l30 193q2 11 13 11h56q11 0 9 -11l-30 -193h192q11 0 9 -11l-8 -51q-2 -11 -13 -11h-192l-30 -194q-3 -11 -13 -11h-56z" />
    <glyph glyph-name="comma" unicode="," horiz-adv-x="253" 
d="M54 -177q-6 0 -9 6l-15 22q-4 9 5 16q82 54 102 133q-28 0 -42.5 17.5t-9.5 44.5t24 44t46 17q42 0 52 -37q13 -62 -35 -145.5t-112 -115.5q-4 -2 -6 -2z" />
    <glyph glyph-name="hyphen" unicode="-" horiz-adv-x="438" 
d="M118 287q-11 0 -9 11l8 51q2 11 13 11h292q11 0 9 -11l-8 -51q-2 -11 -13 -11h-292z" />
    <glyph glyph-name="period" unicode="." horiz-adv-x="291" 
d="M143 -11q-27 0 -41.5 17.5t-9.5 44.5q4 28 24 44.5t47 16.5q28 0 42 -16.5t9 -44.5q-5 -27 -24.5 -44.5t-46.5 -17.5z" />
    <glyph glyph-name="slash" unicode="/" horiz-adv-x="413" 
d="M7 0q-10 0 -4 10l460 778q5 9 16 9h52q11 0 6 -9l-459 -778q-8 -10 -18 -10h-53z" />
    <glyph glyph-name="zero" unicode="0" horiz-adv-x="891" 
d="M445 -1q-150 0 -228 105.5t-52 272.5q26 168 138 273.5t262 105.5t229.5 -106t53.5 -273q-26 -166 -139.5 -272t-263.5 -106zM455 60q115 0 203 89.5t110 227.5q22 140 -37.5 229.5t-175.5 89.5q-115 0 -202.5 -89.5t-109.5 -229.5q-22 -139 37.5 -228t174.5 -89z" />
    <glyph glyph-name="one" unicode="1" horiz-adv-x="426" 
d="M234 13q-7 0 -11 5t-3 11l99 627l-144 -53q-10 -4 -17.5 2t-5.5 17l3 24q2 10 12 13l228 83q1 1 5 1h3q5 0 3 -16l-110 -698q-2 -6 -8 -11t-12 -5h-42z" />
    <glyph glyph-name="two" unicode="2" horiz-adv-x="711" 
d="M114 13q-6 0 -10 5t-3 11l5 32q-2 2 16 17l357 287q56 46 83 81t35 83q12 77 -30 122t-125 45q-113 0 -197 -82q-13 -13 -23 -3l-24 19q-15 12 0 25q103 101 257 101q116 0 176.5 -63.5t43.5 -167.5q-9 -57 -40.5 -102t-103.5 -104l-308 -247h379q7 0 11 -5t3 -12l-4 -26
q-4 -16 -19 -16h-479z" />
    <glyph glyph-name="three" unicode="3" horiz-adv-x="752" 
d="M340 -1q-153 0 -230 74q-13 13 4 26l26 22q14 8 23 -1q57 -60 186 -60q105 0 173.5 40.5t78.5 109.5q10 66 -43.5 104.5t-155.5 38.5h-103q-7 0 -11 5t-3 12l4 27q2 17 20 17h99q95 0 155 37t70 101q11 67 -39.5 105.5t-146.5 38.5q-121 0 -188 -58q-13 -11 -22 -2
l-23 19q-15 11 3 26q87 75 240 75q127 0 198 -56.5t57 -145.5q-9 -55 -49.5 -98t-102.5 -63l-2 -13q67 -23 99 -68t23 -104q-15 -92 -109.5 -150.5t-230.5 -58.5z" />
    <glyph glyph-name="four" unicode="4" horiz-adv-x="739" 
d="M472 13q-6 0 -10 5t-3 11l24 153h-373q-7 0 -11 5t-3 12l5 32q0 5 3 6l374 499q3 7 14 7h40q13 0 17 -10.5t-5 -21.5l-355 -470h303l37 234q4 16 19 16h40q7 0 10.5 -4.5t2.5 -11.5l-37 -234h127q7 0 11 -5t3 -12l-3 -25q-4 -17 -20 -17h-127l-24 -153q-4 -16 -19 -16
h-40z" />
    <glyph glyph-name="five" unicode="5" horiz-adv-x="740" 
d="M350 -1q-81 0 -142 26t-91 73q-5 9 6 20l26 22q13 13 26 -2q55 -78 184 -78q99 0 165.5 45t78.5 121q12 75 -40.5 119.5t-150.5 44.5q-80 0 -139 -27q-11 -5 -16 2l-38 40q-3 8 -2 11l68 312q4 15 20 15h398q7 0 11 -5t3 -11l-4 -27q-4 -16 -20 -16h-344l-53 -252
q51 20 126 20q131 0 203 -62.5t56 -163.5t-108 -164t-223 -63z" />
    <glyph glyph-name="six" unicode="6" horiz-adv-x="776" 
d="M394 -1q-130 0 -199 68t-52 180q9 60 56 114l314 375q1 7 13 7h40q14 0 18 -11t-6 -22l-200 -245q46 17 106 17q117 0 186 -67t54 -165q-18 -113 -108.5 -182t-221.5 -69zM404 60q98 0 163 50.5t78 137.5q12 73 -39 117.5t-145 44.5q-95 0 -162.5 -45.5t-78.5 -117.5
q-13 -86 37 -136.5t147 -50.5z" />
    <glyph glyph-name="seven" unicode="7" 
d="M172 13q-12 0 -16.5 10t2.5 21l456 640h-443q-7 0 -11 4.5t-3 11.5l4 27q1 6 7 11t13 5h512q7 0 11 -5t3 -11l-5 -33q0 -1 -0.5 -4t-1.5 -4l-476 -665q-4 -8 -14 -8h-38z" />
    <glyph glyph-name="eight" unicode="8" horiz-adv-x="822" 
d="M413 -1q-137 0 -213.5 58.5t-61.5 151.5q20 125 181 171l19 6l-17 7q-125 39 -105 161q14 90 101 146t213 56q127 0 197 -56.5t56 -146.5q-18 -113 -141 -156l-31 -12l27 -10q131 -47 113 -167q-15 -92 -109.5 -150.5t-228.5 -58.5zM476 415q98 0 158 36t70 101
q11 67 -38.5 105.5t-145.5 38.5q-95 0 -156 -38t-71 -105q-10 -66 38 -102t145 -36zM423 60q105 0 172.5 40t77.5 110q11 67 -43.5 105t-160.5 38q-107 0 -175 -38.5t-78 -105.5q-10 -69 45.5 -109t161.5 -40z" />
    <glyph glyph-name="nine" unicode="9" horiz-adv-x="774" 
d="M327 -1q-13 0 -17.5 11t4.5 22l201 245q-51 -18 -106 -18q-118 0 -187.5 67.5t-53.5 164.5q18 114 108.5 183t222.5 69q131 0 200 -68t52 -179q-11 -61 -57 -115l-313 -375q-6 -7 -13 -7h-41zM432 331q95 0 162 45.5t78 118.5q14 86 -36 137t-147 51q-98 0 -163 -51
t-79 -139q-11 -72 40 -117t145 -45z" />
    <glyph glyph-name="colon" unicode=":" horiz-adv-x="263" 
d="M198 416q-31 0 -47 18.5t-11 49.5q5 30 26.5 48.5t52.5 18.5t47 -18.5t11 -48.5q-5 -31 -26.5 -49.5t-52.5 -18.5zM130 -10q-31 0 -47 18.5t-11 50.5q5 30 27 48t53 18t46.5 -18.5t10.5 -47.5q-4 -31 -26 -50t-53 -19z" />
    <glyph glyph-name="semicolon" unicode=";" horiz-adv-x="282" 
d="M210 416q-31 0 -47 18.5t-11 49.5q4 30 26 48.5t53 18.5t47 -18.5t11 -48.5q-5 -31 -26.5 -49.5t-52.5 -18.5zM58 -177q-8 0 -9 6l-14 22q-6 8 5 16q77 51 102 133q-29 0 -44 17.5t-10 44.5t24 44t47 17q44 0 52 -37q12 -62 -35.5 -145.5t-110.5 -115.5q-6 -2 -7 -2z" />
    <glyph glyph-name="less" unicode="&#x3c;" horiz-adv-x="595" 
d="M557 62h-1q-2 1 -3 1l-457 215q-9 7 -8 15l12 71q2 11 12 16l525 215q2 1 4 1q6 0 5 -7l-9 -60q-2 -12 -13 -16l-462 -184l404 -185q11 -2 7 -15l-9 -59q-2 -8 -7 -8z" />
    <glyph glyph-name="equal" unicode="=" horiz-adv-x="579" 
d="M156 385q-11 0 -9 12l8 49q2 11 12 11h389q12 0 10 -11l-8 -49q-2 -12 -13 -12h-389zM130 220q-12 0 -9 11l8 50q0 11 12 11h389q10 0 10 -11l-8 -50q-3 -11 -13 -11h-389z" />
    <glyph glyph-name="greater" unicode="&#x3e;" horiz-adv-x="595" 
d="M58 62q-7 0 -5 8l9 59q4 13 13 15l462 185l-404 184q-9 4 -7 16l9 60q1 7 7 7q3 0 4 -1l457 -215q9 -6 8 -16l-12 -71q-1 -8 -12 -15l-523 -214l-2 -1l-2 -1h-2z" />
    <glyph glyph-name="question" unicode="?" horiz-adv-x="529" 
d="M234 204q-11 0 -9 11q10 50 37.5 90t60 67t64.5 53t56.5 62.5t31.5 81.5q10 60 -20.5 97t-88.5 37q-88 0 -163 -77q-4 -4 -8 -4q-3 0 -7 3l-30 39q-5 10 3 17q93 95 216 95q93 0 142 -56.5t34 -150.5q-8 -53 -33.5 -96t-57 -71.5t-62.5 -54.5t-57 -59.5t-34 -72.5
q-4 -11 -13 -11h-62zM235 -11q-25 0 -37.5 15.5t-8.5 40.5t21.5 39.5t42.5 14.5t38 -14.5t9 -39.5t-22 -40.5t-43 -15.5z" />
    <glyph glyph-name="at" unicode="@" horiz-adv-x="1000" 
d="M508 -92q-207 0 -314.5 119.5t-76.5 313.5q31 196 176.5 315.5t352.5 119.5q184 0 281 -112.5t68 -295.5q-15 -95 -72.5 -155.5t-136.5 -63.5q-80 0 -111 66q-62 -88 -173 -88q-88 0 -132.5 59t-30.5 154q15 95 78.5 153.5t151.5 58.5q94 0 136 -68l18 39l2 2q6 6 9 6h38
q8 0 6 -7l-36 -225q-9 -38 8.5 -61t55.5 -23q44 0 77 42t43 111q23 146 -60 241.5t-231 95.5q-174 0 -297.5 -100.5t-149.5 -262.5q-25 -161 67 -260.5t265 -99.5q135 0 242 89l3 2q4 2 7 2q4 0 6 -3l33 -41q7 -7 -2 -15q-128 -108 -301 -108zM520 200q60 0 101 39t51 100
q10 65 -19 102.5t-89 37.5t-101.5 -38.5t-51.5 -101.5q-11 -63 19 -101t90 -38z" />
    <glyph glyph-name="A" unicode="A" horiz-adv-x="711" 
d="M17 0q-13 0 -6 12l422 743q4 10 15 10h58q12 0 13 -10l185 -743q2 -5 -1 -8.5t-8 -3.5h-58q-5 0 -10 7l-59 240h-347l-135 -240q-4 -7 -13 -7h-56zM261 316h290l-87 358z" />
    <glyph glyph-name="B" unicode="B" horiz-adv-x="652" 
d="M106 0q-11 0 -9 11l118 744q2 11 13 11h204q116 0 173 -50t44 -140q-15 -100 -120 -151q64 -25 93 -76t19 -121q-14 -103 -91 -165.5t-191 -62.5h-253zM242 445h153q79 0 122.5 35t53.5 95q9 57 -28.5 89t-118.5 32h-142zM183 70l179 1q82 0 136 42.5t64 114.5
q11 70 -26 115t-114 45l-189 -1z" />
    <glyph glyph-name="C" unicode="C" horiz-adv-x="754" 
d="M436 -11q-175 0 -265 109t-62 285q15 95 60 171.5t108.5 124t136 72.5t147.5 25q164 0 258 -103q7 -7 -3 -14l-43 -35q-2 -4 -8 -4q-3 0 -7 4q-77 77 -209 77q-140 0 -240.5 -88t-122.5 -231q-23 -142 49 -229.5t213 -87.5q132 0 231 77l5 2h5q7 0 7 -2l34 -36
q6 -8 -3 -16q-124 -101 -291 -101z" />
    <glyph glyph-name="D" unicode="D" horiz-adv-x="742" 
d="M106 0q-11 0 -9 11l118 744q2 11 12 11h197q178 0 269 -104t63 -279q-28 -176 -151.5 -279.5t-301.5 -103.5h-197zM183 71h131q145 0 243 83.5t121 228.5t-49 229t-216 84h-131z" />
    <glyph glyph-name="E" unicode="E" horiz-adv-x="568" 
d="M106 0q-11 0 -9 11l118 744q2 11 12 11h398q12 0 10 -11l-8 -48q-2 -11 -13 -11h-332l-43 -270h307q12 0 10 -11l-8 -49q-2 -11 -13 -11h-307l-45 -284h342q10 0 10 -11l-8 -50q-2 -10 -12 -10h-409z" />
    <glyph glyph-name="F" unicode="F" horiz-adv-x="546" 
d="M106 0q-11 0 -9 11l118 744q2 11 13 11h397q12 0 10 -11l-8 -48q-2 -11 -14 -11h-331l-43 -270h307q12 0 10 -11l-8 -49q-2 -11 -13 -11h-307l-54 -344q-2 -11 -13 -11h-55z" />
    <glyph glyph-name="G" unicode="G" horiz-adv-x="829" 
d="M423 -10q-169 -1 -256 107.5t-58 285.5q28 177 153 285t302 108q164 0 255 -102q7 -7 -2 -13l-45 -37q-2 -4 -7 -4q-3 0 -7 4q-72 77 -206 77q-142 0 -243 -87.5t-123 -230.5q-23 -143 45.5 -230.5t203.5 -87.5q124 0 205.5 67t117.5 193h-271q-11 0 -9 11l8 49
q2 11 13 11h336q10 0 8 -11q-32 -187 -142 -291.5t-278 -103.5z" />
    <glyph glyph-name="H" unicode="H" horiz-adv-x="740" 
d="M106 0q-11 0 -9 11l118 744q2 11 12 11h56q11 0 9 -10l-53 -330h395l53 329q2 11 12 11h57q11 0 9 -10l-118 -745q-2 -11 -13 -11h-56q-11 0 -9 11l54 344h-395l-54 -344q-2 -11 -12 -11h-56z" />
    <glyph glyph-name="I" unicode="I" horiz-adv-x="267" 
d="M106 0q-11 0 -9 10l118 745q2 11 11 11h56q12 0 10 -11l-118 -745q-2 -10 -12 -10h-56z" />
    <glyph glyph-name="J" unicode="J" horiz-adv-x="440" 
d="M72 -10q-24 0 -34 1q-19 4 -12 24l21 40q5 11 17 11q7 -1 20 -1q91 0 151.5 58.5t78.5 175.5l73 456q2 11 12 11h57q12 0 10 -11l-73 -456q-23 -150 -109 -229.5t-212 -79.5z" />
    <glyph glyph-name="K" unicode="K" horiz-adv-x="617" 
d="M106 0q-11 0 -9 10l118 745q2 11 11 11h56q12 0 10 -11l-58 -361l368 366q10 6 14 6h74q7 0 8 -3.5t-6 -8.5l-373 -371l291 -370q5 -5 3 -9t-10 -4h-80q-10 0 -13 6l-279 366l-57 -362q-2 -10 -12 -10h-56z" />
    <glyph glyph-name="L" unicode="L" horiz-adv-x="489" 
d="M106 0q-11 0 -9 10l118 745q2 11 11 11h56q12 0 10 -11l-109 -684h275q10 0 10 -11l-8 -50q-2 -10 -12 -10h-342z" />
    <glyph glyph-name="M" unicode="M" horiz-adv-x="938" 
d="M111 0q-16 0 -13 17l116 733q2 16 18 16h55q20 0 23 -9l175 -658l384 659q4 8 14 8h71q12 0 10 -11l-118 -744q-2 -11 -13 -11h-56q-11 0 -9 11l95 600l-350 -602q-3 -7 -13 -9h-60q-8 0 -12 6q-2 2 -2 3l-158 600l-94 -598q-2 -11 -13 -11h-50z" />
    <glyph glyph-name="N" unicode="N" horiz-adv-x="785" 
d="M106 0q-11 0 -9 11l118 744q2 11 12 11h71q8 0 11 -8l323 -641l101 638q2 11 12 11h56q11 0 9 -11l-118 -744q-2 -11 -13 -11h-70q-2 0 -11 6l-323 642l-101 -637q-2 -11 -13 -11h-55z" />
    <glyph glyph-name="O" unicode="O" horiz-adv-x="880" 
d="M439 -10q-178 0 -268.5 108t-61.5 285q28 177 153 285t302 108t268 -108.5t63 -284.5q-29 -177 -154 -285t-302 -108zM451 65q141 0 241.5 87.5t123.5 230.5q22 143 -50.5 230.5t-213.5 87.5q-142 0 -243 -87.5t-123 -230.5q-23 -143 50 -230.5t215 -87.5z" />
    <glyph glyph-name="P" unicode="P" horiz-adv-x="603" 
d="M106 0q-11 0 -9 11l118 744q2 11 13 11h239q115 0 171.5 -57.5t40.5 -160.5q-17 -104 -91.5 -161t-189.5 -57h-173l-50 -319q-2 -11 -13 -11h-56zM237 401h175q81 0 129.5 38.5t59.5 107.5q11 70 -25.5 109.5t-117.5 39.5h-175z" />
    <glyph glyph-name="Q" unicode="Q" horiz-adv-x="880" 
d="M935 -89q11 -16 -7 -26q-6 -3 -19.5 -8.5t-17.5 -7.5q-71 -29 -129.5 -20t-102.5 48t-82 112q-68 -19 -138 -19q-178 0 -268.5 108t-61.5 285q28 177 153 285t302 108t268 -108.5t63 -284.5q-19 -117 -82.5 -206t-159.5 -138q43 -77 93.5 -100.5t127.5 0.5q4 1 10.5 4
t9.5 4q12 5 19 -3zM186 383q-23 -143 50 -230.5t215 -87.5q47 0 94 11l-101 213q-2 12 8 15l56 21q10 3 14 -6l99 -215q77 39 128 111.5t67 167.5q22 143 -50.5 230.5t-213.5 87.5q-142 0 -243 -87.5t-123 -230.5z" />
    <glyph glyph-name="R" unicode="R" horiz-adv-x="611" 
d="M445 766q115 0 171 -57.5t40 -160.5q-15 -93 -77.5 -149t-160.5 -67l154 -319q8 -13 -8 -13h-73q-9 0 -10 6l-146 324h-110l-50 -319q-2 -11 -13 -11h-56q-11 0 -9 11l118 744q2 11 12 11h218zM579 547q11 70 -25.5 109.5t-117.5 39.5h-153l-46 -295h153q81 0 129.5 38.5
t59.5 107.5z" />
    <glyph glyph-name="S" unicode="S" horiz-adv-x="617" 
d="M311 -11q-70 0 -127.5 20.5t-79.5 37.5t-37 35q-7 6 1 16l36 46q3 6 8 6q6 0 7 -3h2q16 -17 38 -33t69 -32.5t100 -16.5q80 0 132 37.5t62 99.5q8 50 -32.5 80t-142.5 55q-118 29 -165 85t-37 143q13 90 96.5 151t195.5 60q139 -1 205 -74q8 -5 1 -17l-32 -50
q-4 -6 -10 -6q-4 0 -6 2q-2 0 -3 2q-67 67 -173 67q-74 0 -130 -37.5t-65 -93.5q-9 -57 26.5 -89.5t147.5 -63.5q118 -32 165.5 -79t38.5 -123q-14 -105 -89 -165.5t-202 -59.5z" />
    <glyph glyph-name="T" unicode="T" horiz-adv-x="589" 
d="M266 0q-10 0 -8 10l108 686h-235q-10 0 -8 10l8 49q2 11 11 11h547q12 0 10 -11l-8 -48q-2 -11 -13 -11h-235l-108 -686q-2 -10 -13 -10h-56z" />
    <glyph glyph-name="U" unicode="U" horiz-adv-x="735" 
d="M367 -10q-127 0 -187.5 80t-36.5 230l72 455q2 11 12 10h56q11 0 9 -10l-73 -456q-18 -116 25.5 -175t134.5 -59t151.5 58.5t78.5 175.5l73 456q2 11 12 11h56q12 0 10 -11l-73 -456q-23 -150 -109 -229.5t-211 -79.5z" />
    <glyph glyph-name="V" unicode="V" horiz-adv-x="706" 
d="M324 0q-11 0 -13 10l-186 742q0 13 12 13h63q10 0 12 -8l156 -664l365 664q5 8 13 8h65q14 0 7 -13l-419 -742q-7 -10 -18 -10h-57z" />
    <glyph glyph-name="W" unicode="W" horiz-adv-x="949" 
d="M243 0q-8 0 -12 9l-105 746q-2 11 8 11h59q12 0 12 -10l80 -628l265 628q3 10 13 10h61q10 0 13 -10l65 -633l283 635q3 8 10 8h61q12 0 7 -11l-344 -746q-4 -9 -13 -9h-50q-9 0 -11 9l-65 658l-277 -658q0 -9 -14 -9h-46z" />
    <glyph glyph-name="X" unicode="X" horiz-adv-x="630" 
d="M13 0q-4 0 -6 1.5t-1.5 4t3.5 5.5l321 370l-194 374q-6 11 7 11h76q11 0 11 -6l157 -313l264 311q7 7 16 7h71q14 0 5 -11l-323 -371l196 -372q7 -11 -8 -11h-74q-10 0 -13 6l-157 310l-265 -310q-6 -6 -14 -6h-72z" />
    <glyph glyph-name="Y" unicode="Y" horiz-adv-x="619" 
d="M282 0q-11 0 -9 11l45 294l-192 447q-6 13 11 13h65q11 0 14 -9l154 -380l273 380q6 9 17 9h65q14 0 6 -13l-334 -447l-46 -294q-2 -11 -13 -11h-56z" />
    <glyph glyph-name="Z" unicode="Z" horiz-adv-x="614" 
d="M40 0q-20 0 -8 17l521 679h-393q-11 0 -9 10l8 49q2 11 12 11h508q9 0 11 -5.5t-4 -13.5l-521 -676h419q10 0 10 -11l-8 -49q-2 -11 -13 -11h-533z" />
    <glyph glyph-name="bracketleft" unicode="[" horiz-adv-x="366" 
d="M67 -178q-12 0 -9 11l146 922q2 11 12 11h198q12 0 10 -11l-7 -43q-2 -11 -13 -11h-137l-129 -813h137q10 0 10 -11l-7 -44q-3 -11 -13 -11h-198z" />
    <glyph glyph-name="backslash" unicode="\" horiz-adv-x="403" 
d="M351 0q-7 0 -12 7l-213 777q-4 13 11 13h52q9 0 11 -8l212 -776q2 -5 -1 -9t-9 -4h-51z" />
    <glyph glyph-name="bracketright" unicode="]" horiz-adv-x="366" 
d="M46 -178q-11 0 -9 12l7 44q2 11 13 11h135l129 812h-136q-11 0 -9 11l7 43q2 11 12 11h197q12 0 10 -11l-146 -922q-3 -11 -13 -11h-197z" />
    <glyph glyph-name="asciicircum" unicode="^" horiz-adv-x="639" 
d="M119 286q-14 0 -7 13l278 456q3 10 16 10h69q14 0 15 -10l131 -456q2 -5 -1 -9t-10 -4h-58q-8 0 -11 7l-111 404l-240 -404q-2 -7 -13 -7h-58z" />
    <glyph glyph-name="underscore" unicode="_" horiz-adv-x="641" 
d="M51 -148q-12 0 -10 11l7 41q2 11 13 11h494q11 0 9 -11l-7 -41q-2 -11 -12 -11h-494z" />
    <glyph glyph-name="a" unicode="a" 
d="M287 -11q-110 0 -167 71t-39 185t97.5 184.5t189.5 70.5q135 0 182 -102l12 75q1 6 6.5 11t11.5 5h38q7 0 11.5 -5t3.5 -11l-72 -456q-3 -17 -20 -17h-39q-16 0 -13 17l12 75q-82 -103 -214 -103zM306 60q83 0 142.5 50.5t76.5 134.5q12 84 -32.5 135t-128.5 51
q-82 0 -141.5 -51.5t-72.5 -134.5t30 -134t126 -51z" />
    <glyph glyph-name="b" unicode="b" 
d="M346 -11q-133 0 -180 103l-12 -75q-3 -17 -20 -17h-38q-7 0 -11 5t-3 12l116 733q1 6 6.5 11t12.5 5h37q7 0 11.5 -5t3.5 -11l-56 -352q78 102 214 102q111 0 168 -70.5t39 -184.5t-97.5 -185t-190.5 -71zM351 60q83 0 141 51t72 134q13 83 -29.5 134.5t-125.5 51.5
t-143 -51t-76 -135q-10 -84 34 -134.5t127 -50.5z" />
    <glyph glyph-name="c" unicode="c" horiz-adv-x="550" 
d="M294 -11q-114 0 -172.5 71t-40.5 185q19 122 106 189.5t191 66.5q64 0 116 -27t77 -78q6 -11 -5 -16l-42 -32q-4 -4 -8 -4q-6 0 -8 7q-41 79 -144 79q-83 0 -142 -51.5t-72 -133.5q-13 -83 30 -134t126 -51q104 0 168 78q4 6 11 6q5 0 6 -2l32 -33q10 -5 0 -15
q-86 -105 -229 -105z" />
    <glyph glyph-name="d" unicode="d" 
d="M289 -12q-111 0 -168 71t-39 185q18 115 97.5 185t190.5 70q134 0 181 -102l56 352q1 6 6.5 11t11.5 5h38q7 0 11 -5t3 -11l-116 -733q-3 -17 -19 -17h-39q-6 0 -10 5t-3 12l11 74q-81 -102 -212 -102zM306 59q83 0 143.5 50.5t76.5 134.5q11 83 -33.5 134.5t-127.5 51.5
q-82 0 -141.5 -51.5t-72.5 -134.5t29.5 -134t125.5 -51z" />
    <glyph glyph-name="e" unicode="e" horiz-adv-x="592" 
d="M306 -11q-119 0 -181 71t-44 185t99 184.5t195 70.5q120 0 176.5 -73t34.5 -203q-2 -11 -12 -11h-426q-1 -69 45 -111t125 -42q95 0 153 55q7 5 10 5q5 0 7 -4l31 -33q7 -7 -1 -16q-83 -78 -212 -78zM158 277h364q2 70 -40.5 112t-117.5 42q-74 0 -129.5 -42t-76.5 -112z
" />
    <glyph glyph-name="f" unicode="f" horiz-adv-x="329" 
d="M112 0q-11 0 -9 11l64 415h-83q-11 0 -9 11l7 41q2 11 12 11h83l23 140q12 83 58 132t111 49q69 0 107 -35q4 -1 4 -6t-3 -9l-33 -41l-2 -2q-4 -4 -8 -4t-6 3q-32 23 -68 23q-32 0 -56 -29t-33 -86l-22 -135h125q12 0 10 -11l-7 -41q-2 -11 -13 -11h-125l-65 -415
q-2 -11 -13 -11h-49z" />
    <glyph glyph-name="g" unicode="g" 
d="M256 -261q-107 2 -183 50q-10 5 -3 17l32 43q6 6 8 6q1 0 7 -3q52 -40 150 -44q88 0 146 47.5t72 132.5l16 104q-82 -103 -214 -103q-110 0 -167 71t-39 185t97.5 184.5t189.5 70.5q135 0 182 -102l12 75q1 6 6.5 11t11.5 5h38q7 0 11.5 -5t3.5 -11l-69 -436l-7 -43
q-19 -116 -102 -185.5t-199 -69.5zM306 60q83 0 142.5 50.5t76.5 134.5q12 84 -32.5 135t-128.5 51q-82 0 -141.5 -51.5t-72.5 -134.5t30 -134t126 -51z" />
    <glyph glyph-name="h" unicode="h" horiz-adv-x="600" 
d="M90 0q-11 0 -9 10l115 740q2 16 19 16h37q6 0 10.5 -5t3.5 -11l-55 -358q70 108 194 108q92 0 136 -54t27 -164l-43 -272q-2 -10 -13 -10h-50q-11 0 -9 10l43 272q23 149 -110 149q-70 0 -126 -57t-72 -138l-35 -225q-2 -11 -13 -11h-50z" />
    <glyph glyph-name="i" unicode="i" horiz-adv-x="238" 
d="M220 622q-26 0 -39.5 15.5t-9.5 40.5t22 39.5t44 14.5q25 0 37 -14.5t8 -39.5q-4 -26 -20.5 -41t-41.5 -15zM95 0q-11 0 -9 10l74 469q2 10 11 10h50q12 0 10 -10l-74 -469q-2 -10 -13 -10h-49z" />
    <glyph glyph-name="j" unicode="j" horiz-adv-x="265" 
d="M243 622q-25 0 -38.5 15t-9.5 40t22 40t43 15t37.5 -15t8.5 -40t-21 -40t-42 -15zM-2 -263q-56 0 -107 35q-7 5 0 15l33 41q5 5 10 5t7 -3q36 -22 68 -22q31 0 55 29t33 86l88 555q2 11 13 11h48q12 0 10 -11l-88 -561q-13 -83 -59 -131.5t-111 -48.5z" />
    <glyph glyph-name="k" unicode="k" horiz-adv-x="500" 
d="M90 0q-11 0 -9 10l123 778q2 9 12 9h50q11 0 9 -9l-81 -517l245 213q5 5 14 5h75q22 0 3 -14l-251 -210l213 -250q7 -7 4.5 -11t-11.5 -4h-74q-8 0 -14 6l-207 244l-38 -240q-2 -10 -13 -10h-50z" />
    <glyph glyph-name="l" unicode="l" horiz-adv-x="238" 
d="M95 0q-11 0 -9 10l118 746q2 9 11 9h50q5 0 8 -2.5t2 -6.5l-118 -746q-2 -10 -13 -10h-49z" />
    <glyph glyph-name="m" unicode="m" horiz-adv-x="913" 
d="M90 0q-9 0 -7 10l73 463q2 16 19 16h31q7 0 11 -5t3 -11l-13 -81q68 108 182 108q124 0 149 -106q77 106 192 106q85 0 125 -54t23 -164l-42 -271q-2 -11 -13 -11h-50q-11 0 -9 11l43 271q23 149 -97 149q-59 0 -106 -45.5t-69 -121.5l-40 -254q-2 -10 -11 -10h-48
q-11 0 -9 11l46 294q12 126 -102 126q-66 0 -118.5 -57t-67.5 -138l-35 -225q-2 -11 -13 -11h-47z" />
    <glyph glyph-name="n" unicode="n" horiz-adv-x="600" 
d="M90 0q-11 0 -9 10l73 463q1 6 6.5 11t12.5 5h36q7 0 11.5 -5t3.5 -11l-13 -81q70 108 194 108q92 0 136 -54t27 -164l-43 -272q-2 -10 -13 -10h-50q-11 0 -9 10l43 272q23 149 -110 149q-70 0 -126 -57t-72 -138l-35 -225q-2 -11 -13 -11h-50z" />
    <glyph glyph-name="o" unicode="o" horiz-adv-x="592" 
d="M294 -11q-114 0 -172.5 71t-40.5 185t99 184.5t195 70.5t173.5 -70.5t41.5 -184.5t-100 -185t-196 -71zM306 60q83 0 141 51t72 134q13 83 -29.5 134.5t-125.5 51.5q-82 0 -141.5 -51.5t-72.5 -134.5t30 -134t126 -51z" />
    <glyph glyph-name="p" unicode="p" 
d="M54 -276q-17 0 -14 17l116 733q1 6 7 11t13 5h38q6 0 10.5 -5t3.5 -11l-12 -76q78 103 212 103q111 0 168 -71t39 -185t-97.5 -184.5t-190.5 -70.5q-135 0 -181 102l-56 -351q-3 -17 -20 -17h-36zM352 60q83 0 141 51t72 134q13 83 -29.5 134.5t-125.5 51.5t-143 -51
t-75 -135q-12 -84 32 -134.5t128 -50.5z" />
    <glyph glyph-name="q" unicode="q" 
d="M460 -276q-6 0 -10 5t-3 12l56 351q-81 -102 -214 -102q-111 0 -168 70.5t-39 184.5t97.5 185t190.5 71q132 0 180 -103l12 76q1 6 7 11t12 5h39q15 0 13 -16l-116 -733q-3 -17 -19 -17h-38zM307 60q84 0 144 50.5t75 134.5q11 84 -33.5 135t-127.5 51
q-82 0 -141.5 -51.5t-72.5 -134.5t30 -134t126 -51z" />
    <glyph glyph-name="r" unicode="r" horiz-adv-x="364" 
d="M90 0q-11 0 -9 10l73 463q1 6 6.5 11t12.5 5h36q7 0 11.5 -5t3.5 -11l-13 -81q70 108 194 108h1q5 0 10.5 -7.5t2.5 -14.5l-14 -35q-7 -12 -12 -12h-7q-70 0 -126 -57t-72 -138l-35 -225q-2 -11 -13 -11h-50z" />
    <glyph glyph-name="s" unicode="s" horiz-adv-x="436" 
d="M211 -10q-100 0 -164 53q-2 2 -2 7.5t4 9.5l28 38l2 2q3 4 7 4q3 0 6 -3q58 -42 134 -42q51 0 85 19t38 50q4 32 -20.5 49.5t-85.5 34.5q-83 23 -115 56.5t-25 91.5q8 62 64.5 102t135.5 39q83 0 138 -45q7 -4 1 -15l-1 -3l-27 -40q-2 -5 -9 -5q-3 0 -4 3q-50 35 -113 35
q-46 0 -76.5 -18t-35.5 -47q-5 -32 17.5 -49t87.5 -35q81 -25 114 -57t26 -89q-7 -66 -65.5 -106.5t-144.5 -39.5z" />
    <glyph glyph-name="t" unicode="t" horiz-adv-x="344" 
d="M229 -11q-63 0 -87.5 46t-9.5 134l40 257h-83q-11 0 -9 10l7 42q2 11 12 11h84l27 170q2 11 12 11h51q9 0 9 -9l-28 -172h126q12 0 10 -11l-7 -42q-2 -10 -13 -10h-126l-39 -250q-10 -64 0 -90t39 -26q24 0 56 24l8 3q5 0 8 -4l23 -40q6 -10 -5 -15q-47 -38 -105 -39z
" />
    <glyph glyph-name="u" unicode="u" horiz-adv-x="600" 
d="M274 -11q-92 0 -135.5 54t-26.5 165l43 271q2 10 11 10h51q12 0 10 -10l-43 -273q-23 -147 108 -147q71 0 126.5 56.5t72.5 137.5l36 225q2 11 12 11h50q12 0 10 -10l-73 -462q-1 -7 -7.5 -12t-12.5 -5h-37q-16 0 -13 17l13 81q-73 -109 -195 -109z" />
    <glyph glyph-name="v" unicode="v" horiz-adv-x="496" 
d="M222 0q-11 0 -14 10l-124 465q-2 14 11 14h60q9 0 11 -9l95 -398l220 397q7 10 16 10h58q15 0 7 -14l-271 -465q-5 -10 -16 -10h-53z" />
    <glyph glyph-name="w" unicode="w" horiz-adv-x="696" 
d="M162 0q-9 0 -11 9l-66 470q-3 10 8 10h60q11 0 11 -10l41 -395l179 395q3 10 14 10h53q10 0 12 -10l53 -396l167 396q3 10 13 10h61q11 0 5 -11l-215 -469q-2 -9 -13 -9h-60q-9 0 -11 9l-50 394l-176 -394q-5 -9 -15 -9h-60z" />
    <glyph glyph-name="x" unicode="x" horiz-adv-x="501" 
d="M35 0q-16 0 -4 12l210 227l-142 236q-8 14 9 14h67q11 0 17 -9l105 -180l166 180q8 9 19 9h66q18 0 5 -13l-222 -231l140 -232q8 -13 -8 -13h-67q-9 0 -18 9l-102 174l-155 -174q-9 -9 -20 -9h-66z" />
    <glyph glyph-name="y" unicode="y" horiz-adv-x="502" 
d="M85 -252q-15 0 -8 15l136 239l-126 473q-2 14 12 14h57q12 0 14 -10l92 -391l222 391q5 10 16 10h57q16 0 8 -14l-413 -717q-6 -10 -16 -10h-51z" />
    <glyph glyph-name="z" unicode="z" horiz-adv-x="492" 
d="M63 0q-21 0 -7 17l333 409h-249q-11 0 -9 10l7 42q2 11 12 11h352q10 0 12 -5.5t-5 -13.5l-332 -407h265q11 0 9 -11l-6 -41q-2 -11 -13 -11h-369z" />
    <glyph glyph-name="braceleft" unicode="{" horiz-adv-x="398" 
d="M249 -180q-109 0 -87 149l29 181q7 47 -11.5 76.5t-46.5 33.5q-8 0 -6 10l7 48q2 7 10 8q29 4 56.5 33.5t35.5 76.5l29 181q4 24 11 46t21.5 47t40.5 40t61 15h47q12 0 9 -11l-7 -46q-2 -11 -13 -11h-44q-42 0 -54 -80l-28 -176q-17 -101 -103 -148q72 -48 56 -148
l-28 -176q-12 -81 29 -81h44q10 0 10 -11l-8 -46q-2 -11 -13 -11h-47z" />
    <glyph glyph-name="braceright" unicode="}" horiz-adv-x="398" 
d="M45 -180q-11 0 -9 11l8 47q2 11 12 11h44q40 0 54 80l27 176q16 100 103 148q-72 49 -56 148l29 176q10 80 -29 80h-44q-11 0 -9 11l7 46q3 11 13 11h47q109 0 87 -148l-29 -181q-8 -47 11 -76.5t48 -33.5q7 -2 6 -10l-7 -47q-2 -9 -10 -9q-30 -4 -58 -33.5t-35 -76.5
l-29 -181q-3 -19 -7.5 -36.5t-15 -39t-24.5 -37t-36.5 -26t-50.5 -10.5h-47z" />
    <glyph glyph-name="asciitilde" unicode="~" horiz-adv-x="620" 
d="M449 175q-34 0 -60.5 12t-43 29t-31 34t-33 28.5t-40.5 10.5q-62 -1 -113 -102q-4 -7 -9 -7l-6 2l-2 2l-27 36q-8 6 -2 14q32 61 79 97.5t96 36.5q43 0 74 -18t46 -39.5t37.5 -39.5t50.5 -17q59 1 114 101q4 8 9 8q3 0 6 -4l30 -35q5 -8 1 -16q-31 -59 -78 -96t-98 -37z
" />
    <glyph glyph-name="cent" unicode="&#xa2;" horiz-adv-x="670" 
d="M598 85q10 -14 -3 -24q-78 -65 -189 -73l-14 -91q-2 -6 -8 -11.5t-12 -5.5h-54q-7 0 -11.5 5.5t-2.5 11.5l15 94q-104 18 -160 92.5t-39 179.5q16 104 95.5 178.5t189.5 92.5l14 93q4 17 20 17h54q6 0 10.5 -5t3.5 -12l-14 -91q103 -6 162 -70q11 -11 -4 -24l-38 -32
q-11 -10 -23 0q-48 53 -137 53q-92 0 -159.5 -55.5t-81.5 -144.5t36 -145t142 -56q91 0 157 54q13 12 24 1z" />
    <glyph glyph-name="sterling" unicode="&#xa3;" horiz-adv-x="721" 
d="M268 81h386q7 0 11 -5t3 -12l-7 -47q-3 -17 -20 -17h-564q-16 0 -13 17l7 47q4 17 19 17h83l39 246h-83q-7 0 -11 5t-3 11l8 48q1 6 6.5 11.5t12.5 5.5h83l14 90q17 111 107 181t210 70q129 0 195 -79q12 -15 -8 -26l-52 -30q-10 -7 -19 2q-44 50 -130 50
q-80 0 -138 -46.5t-70 -121.5l-14 -90h293q7 0 11 -5.5t3 -11.5l-8 -48q-2 -16 -19 -16h-293z" />
    <glyph glyph-name="yen" unicode="&#xa5;" horiz-adv-x="818" 
d="M601 408h137q7 0 11 -5.5t3 -11.5l-6 -39q-4 -16 -20 -16h-188l-34 -37l-10 -67h216q16 0 14 -17l-6 -38q-3 -17 -20 -17h-216l-22 -143q-3 -17 -19 -17h-61q-7 0 -11 5t-3 12l22 143h-216q-16 0 -13 17l6 38q1 7 6.5 12t12.5 5h216l10 67l-22 37h-188q-7 0 -10.5 4.5
t-2.5 11.5l6 39q1 6 6.5 11.5t12.5 5.5h135l-171 291q-7 11 0.5 23t22.5 12h66q9 0 11 -5l194 -347l303 347q7 5 13 5h66q15 0 19 -11t-6 -24z" />
    <glyph glyph-name="copyright" unicode="&#xa9;" horiz-adv-x="1038" 
d="M518 -13q-183 0 -301.5 106.5t-118.5 274.5q0 167 118.5 273t301.5 106t302 -106t119 -273q0 -168 -119 -274.5t-302 -106.5zM518 50q152 0 249.5 88.5t97.5 229.5q0 140 -97.5 228t-249.5 88q-150 0 -248 -88t-98 -228q0 -142 97 -230t249 -88zM519 140
q-100 0 -163 63.5t-63 164.5q0 108 68 167.5t162 59.5q55 0 104.5 -24.5t79.5 -69.5q5 -9 -1 -14l-33 -28q-1 -3 -7 -3t-9 6q-48 69 -138 69q-74 0 -119 -44.5t-45 -118.5t45 -119.5t119 -45.5q90 0 138 69q3 6 9 6q5 0 7 -2l33 -29q6 -5 1 -14q-62 -93 -188 -93z" />
    <glyph glyph-name="registered" unicode="&#xae;" horiz-adv-x="1038" 
d="M518 -13q-183 0 -301.5 106.5t-118.5 274.5q0 167 118.5 273t301.5 106t302 -106t119 -273q0 -168 -119 -274.5t-302 -106.5zM518 50q152 0 249.5 88.5t97.5 229.5q0 140 -97.5 228t-249.5 88q-150 0 -248 -88t-98 -228q0 -142 97 -230t249 -88zM397 144q-12 0 -12 11
v434q0 11 12 11h126q69 0 108.5 -35t39.5 -97q0 -54 -30.5 -87.5t-84.5 -41.5l115 -180q8 -15 -9 -15h-42q-8 0 -11 7l-112 185h-57v-181q0 -11 -11 -11h-32zM440 388h84q93 0 93 80q0 39 -24 60t-69 21h-84v-161z" />
    <glyph glyph-name="multiply" unicode="&#xd7;" horiz-adv-x="512" 
d="M92 171q-5 8 3 16l158 138l-113 134q-6 8 2 16l43 37q10 5 16 0l112 -137l159 137q10 8 16 0l33 -39q6 -8 -3 -16l-158 -137l114 -134q6 -8 -2 -16l-43 -37q-9 -7 -15 0l-112 136l-160 -137q-11 -9 -16 0z" />
    <glyph glyph-name="divide" unicode="&#xf7;" horiz-adv-x="606" 
d="M370 408q-25 0 -39 15.5t-10 40.5q5 25 23 40t43 15t37 -15t8 -40t-21 -40.5t-41 -15.5zM591 359q11 0 9 -11l-8 -51q-2 -11 -13 -11h-461q-11 0 -9 11l8 51q2 11 13 11h461zM325 128q-25 0 -38.5 15t-9.5 40t22 40t44 15q25 0 37 -15t8 -40t-21 -40t-42 -15z" />
    <glyph glyph-name="endash" unicode="&#x2013;" horiz-adv-x="639" 
d="M140 286q-11 0 -9 11l8 51q2 11 13 11h450q11 0 9 -11l-8 -51q-2 -11 -13 -11h-450z" />
    <glyph glyph-name="emdash" unicode="&#x2014;" horiz-adv-x="933" 
d="M140 285q-11 0 -9 11l8 51q2 11 13 11h743q11 0 9 -11l-8 -51q-2 -11 -13 -11h-743z" />
    <glyph glyph-name="quoteleft" unicode="&#x2018;" horiz-adv-x="230" 
d="M237 487q-4 0 -6 2q-54 31 -75.5 114t12.5 146q18 39 63 39q28 0 42 -17.5t9 -46.5q-5 -27 -24 -44t-47 -17q-6 -77 59 -134q6 -6 -1 -15l-21 -22q-7 -5 -11 -5z" />
    <glyph glyph-name="quoteright" unicode="&#x2019;" horiz-adv-x="231" 
d="M148 487q-6 0 -9 5l-15 22q-4 9 5 15q82 58 102 134q-28 0 -42.5 17t-9.5 44q5 29 24 46.5t47 17.5q41 0 51 -39q13 -62 -35 -145.5t-112 -114.5q-4 -2 -6 -2z" />
    <glyph glyph-name="quotedblleft" unicode="&#x201c;" horiz-adv-x="398" 
d="M238 487q-4 0 -6 2q-54 31 -75.5 114t12.5 146q19 39 63 39q28 0 41.5 -17.5t8.5 -46.5q-5 -27 -24 -44t-47 -17q-5 -77 60 -134q6 -6 -1 -15l-21 -22q-8 -5 -11 -5zM406 487q-1 0 -7 2q-53 31 -74 114t11 146q20 39 64 39q27 0 41 -18t10 -46q-5 -27 -24.5 -44
t-46.5 -17q-5 -77 58 -134q7 -6 0 -15l-21 -22q-7 -5 -11 -5z" />
    <glyph glyph-name="quotedblright" unicode="&#x201d;" horiz-adv-x="398" 
d="M148 487q-6 0 -9 5l-15 22q-4 9 5 15q82 58 101 134q-28 0 -42 17t-9 44q5 29 24 46.5t47 17.5q41 0 51 -39q13 -62 -35 -145.5t-112 -114.5q-4 -2 -6 -2zM315 487q-4 0 -9 5l-14 22q-4 9 5 15q81 59 101 134q-28 0 -42 17t-9 44q5 29 24 46.5t47 17.5q41 0 51 -39
q13 -62 -35 -145.5t-112 -114.5q-4 -2 -7 -2z" />
    <glyph glyph-name="Euro" unicode="&#x20ac;" horiz-adv-x="867" 
d="M795 116q12 -12 -1 -24q-120 -105 -281 -105q-130 0 -216 70t-103 187h-90q-7 0 -11 5t-3 11l6 39q4 17 19 17h77q0 27 4 52q5 30 13 52h-77q-16 0 -14 16l6 39q4 16 19 16h90q56 118 164 187t238 69q160 0 241 -103q8 -11 -5 -24l-47 -39q-12 -10 -25 0q-65 85 -179 85
q-90 0 -165 -47t-118 -128h333q7 0 11.5 -4.5t2.5 -11.5l-6 -39q-2 -16 -19 -16h-353q-7 -24 -12 -52q-3 -18 -5 -52h353q7 0 11.5 -5t2.5 -12l-6 -39q-2 -16 -19 -16h-334q17 -81 77.5 -127.5t151.5 -46.5q121 0 211 79q14 14 23 2z" />
    <glyph glyph-name="trademark" unicode="&#x2122;" horiz-adv-x="576" 
d="M478 770q8 0 8 -9v-253q0 -9 -8 -9h-19q-8 0 -8 9v179l-78 -183q-2 -5 -8 -5h-21q-6 0 -7 3h-1l-78 183v-177q0 -9 -9 -9h-16q-11 0 -11 11v250q0 10 11 10h17q9 0 13 -4l91 -216l91 215q5 5 9 5h24zM200 768q9 0 9 -8v-17q0 -8 -9 -8h-74v-229q0 -9 -9 -9h-19q-9 0 -9 9
v229h-74q-9 0 -9 8v17q0 8 9 8h185z" />
    <glyph glyph-name="minus" unicode="&#x2212;" horiz-adv-x="606" 
d="M591 359q11 0 9 -11l-8 -51q-2 -11 -13 -11h-461q-11 0 -9 11l8 51q2 11 13 11h461z" />
    <glyph glyph-name="_FSHallmark" horiz-adv-x="980" 
d="M92 784h819v-96h-819v96zM805 505q0 10 -7 22q-9 10 -18 17q-16 8 -23 10q-3 0 -11.5 1.5t-12.5 1.5q-25 0 -47 -12q-20 -13 -20 -29q0 -30 18 -40q25 -13 44 -17l65 -15q17 -6 29 -7q5 -1 24 -6q3 -2 10.5 -5.5t10.5 -5.5q21 -13 31 -27q11 -18 12 -43q1 -26 -10 -49
q-25 -41 -72 -58q-48 -15 -93 -15q-39 0 -67 9q-26 7 -57 27q-25 18 -42 47q-15 27 -15 64l95 -2q0 -5 4 -14q2 -15 14 -26q11 -11 25 -17q17 -9 46 -9q32 0 52 12q20 9 20 25q0 30 -78 46q-74 18 -120 43q-49 26 -49 82q0 48 32 74q31 25 72 39q34 8 68 8q48 0 93 -18
q44 -18 65 -65q11 -27 11 -48h-99zM200 228h-108v407h345v-93h-237v-91h197v-91h-197v-132zM428 277q0 21 14 35q13 13 35 13q20 0 39 -14q16 -13 16 -34q0 -19 -16 -34q-17 -13 -39 -13q-19 0 -34 15q-15 13 -15 32zM90 177h820v-97h-820v97z" />
    <glyph glyph-name="_Fontastica" horiz-adv-x="980" 
d="M283 147h-113q-1 2 -1 5v664h497v-102h-383v-273h384v-103h-384v-191zM355 626h385v190h113v-667h-498v101h385v273h-385v103zM740 82q-7 -4 -7 -10q0 -9 5 -14q4 -6 12 -6q9 0 18 6l6 -6q-9 -11 -24 -11q-10 0 -21 6q-6 7 -9 21q-1 13 8 22q10 10 22 10q14 0 24 -10
l-6 -8q-1 1 -3 2.5t-3 2.5q-1 2 -9 2h-3q-9 -4 -10 -7zM170 99h42v-10h-27v-16h26v-9h-26v-22h-15v57zM264 99q18 0 29 -15q8 -11 2 -26q-6 -16 -25 -17l-7 -3q-8 0 -12 4q-18 8 -18 25q0 15 9 23q6 9 22 9zM374 42h-3q-2 -1 -4 -1q-5 0 -9 6l-6 8q0 2 -2 4.5t-3 3.5l-12 14
v-35h-13v57h11q4 -1 6 -8q9 -9 13 -14q1 -2 5 -8l6 -9v39h11v-57zM399 99h48v-10h-18v-47h-12v47h-18v10zM577 72q12 -2 12 -13q1 -12 -10 -17q-2 -1 -11 -1q-19 0 -27 9q1 1 1 2l1 2q0 2 2 4l18 -6h8q4 6 4 3q0 9 -13 12q-2 0 -3 1t-5 1q-9 3 -9 13q-3 9 8 15q6 2 13 2
q14 0 23 -5l-5 -10q-2 1 -4 1q-1 0 -3 1q-1 1 -4 1q-1 0 -2 2h-8q-4 0 -4 -4q-2 -2 4 -8q6 -1 14 -5zM608 99h50v-10h-18v-47h-13v47h-19v10zM681 99h15v-57h-15v57zM832 99l12 -27q0 -2 6 -16q4 -10 7 -14h-13l-5 12h-28l-5 -12h-13q15 29 23 57h16zM497 97q2 -6 6 -13
q2 -2 4 -7t3 -6q0 -2 2 -7t3 -8t3 -7.5t2 -6.5h-13q-1 1 -1 5l-1 2q-1 1 -1.5 2t-0.5 3h-26q-1 -2 -1 -7q-1 -1 -1 -2l-3 -3h-12l24 55h13zM281 71q0 8 -4 13q-7 5 -14 5q-2 -2 -4 -2q-6 -1 -11 -9q-6 -7 -1 -14q4 -13 17 -13q4 0 5 1q12 3 12 17v2zM499 64q-1 0 -1 2t-1 3
t-2 3l-1 2q-1 2 -1 6q-1 1 -2 3l-1 2l-10 -21h19zM833 64q-1 1 -1 5q-2 5 -3 5q-1 1 -1 3t-1 3l-1 2q-1 2 -2 3l-9 -21h18z" />
    </font>
</defs>
</svg>
