<?xml version="1.0" standalone="no"?>
<!DOCTYPE svg PUBLIC "-//W3C//DTD SVG 1.1//EN" "http://www.w3.org/Graphics/SVG/1.1/DTD/svg11.dtd" >
<svg xmlns="http://www.w3.org/2000/svg" xmlns:xlink="http://www.w3.org/1999/xlink" version="1.1">
<metadata>
Created by FontForge 20170731 at Sat Jul 20 23:03:46 2019
 By Aleksey,,,
Copyright (c) 2019 by Fontastica. All rights reserved.
</metadata>
<defs>
<font id="Qartella-LightItalic" horiz-adv-x="622" >
  <font-face 
    font-family="Qartella Light Italic"
    font-weight="300"
    font-style="italic"
    font-stretch="normal"
    units-per-em="1000"
    panose-1="0 0 4 0 0 0 0 0 0 0"
    ascent="800"
    descent="-200"
    x-height="479"
    cap-height="763"
    bbox="-114 -283 1053 816"
    underline-thickness="50"
    underline-position="-200"
    unicode-range="U+0020-2212"
  />
<missing-glyph horiz-adv-x="637" 
d="M596 764l1 -2v-759l-557 -2v759l1 2zM551 44v679l-465 -2v-679zM182 559l138 -141l142 142l39 -39l1 -2l-143 -142l141 -139v-3l-36 -36l-140 140l-142 -142l-40 39l140 145l-139 140v2l36 36h3z" />
    <glyph glyph-name=".notdef" horiz-adv-x="637" 
d="M596 764l1 -2v-759l-557 -2v759l1 2zM551 44v679l-465 -2v-679zM182 559l138 -141l142 142l39 -39l1 -2l-143 -142l141 -139v-3l-36 -36l-140 140l-142 -142l-40 39l140 145l-139 140v2l36 36h3z" />
    <glyph glyph-name=".null" horiz-adv-x="0" 
 />
    <glyph glyph-name="nonmarkingreturn" horiz-adv-x="333" 
 />
    <glyph glyph-name="space" unicode=" " horiz-adv-x="276" 
 />
    <glyph glyph-name="exclam" unicode="!" horiz-adv-x="259" 
d="M134 214l85 548h1h62l-89 -548h-59zM127 -11q-20 0 -30.5 13t-6.5 34q3 21 17.5 33t34.5 12q21 0 31.5 -12t7.5 -33q-4 -21 -18.5 -34t-35.5 -13z" />
    <glyph glyph-name="quotedbl" unicode="&#x22;" horiz-adv-x="381" 
d="M140 498q-2 0 -9.5 10.5t-6.5 13.5q45 36 70.5 67.5t37.5 77.5l2 11h-11q-23 0 -35 14t-8 38q4 25 20 40t40 15q56 0 43 -82q-9 -57 -49.5 -118t-92.5 -86zM309 498q-1 0 -8.5 10.5t-6.5 13.5q44 36 69.5 68t37.5 76l3 12h-11q-24 0 -35.5 14t-7.5 38q4 25 20 40t40 15
q56 0 43 -82q-9 -57 -50 -117.5t-92 -86.5z" />
    <glyph glyph-name="numbersign" unicode="#" horiz-adv-x="704" 
d="M99 0l42 103q9 22 21 50l19.5 45.5t9.5 21.5l5 13h-117v1q2 2 4 7t3 7l12 23q0 4 7 4h110l83 198h-132l1 2q1 1 2 3.5t2 4.5l2 4l12 23q1 4 7 4h124l101 245q3 3 6 3h47l-47 -109q-9 -21 -22.5 -53t-21 -50t-9.5 -23l-5 -13h196l104 245l2 3h3h47l-47 -109
q-41 -93 -54 -126l-6 -13h134l-1 -2q-2 -5 -7 -12l-12 -22l-2 -4l-1 -1h-125l-84 -198h145l-2 -2q-2 -7 -6 -13l-10 -23q-4 -4 -7 -4h-138l-97 -229q-2 -4 -5 -4h-47l43 102q9 20 21.5 50t20 47t9.5 21l5 13h-198l-96 -229q-2 -4 -5 -4h-46zM265 275h198l82 198h-197z" />
    <glyph glyph-name="dollar" unicode="$" horiz-adv-x="603" 
d="M301 -126h-37l19 115l-10 1q-117 9 -187 67l-12 11q-7 7 -9 11q-2 2 -2 4l1 1q2 2 4 7l16 20q10 14 14 18l3 4q67 -73 180 -85l11 -1l48 298l-8 2q-212 57 -186 224q14 85 87 139t164 62h10l2 10l3 28q2 3 2 6h6h29q1 -1 1 -4v-5l-5 -25l-2 -10h9q101 -7 159 -53l11 -8
q6 -6 7 -9q2 -2 1 -6l-1 -2q0 -1 -1.5 -4t-1.5 -4l-13 -21q-13 -17 -14 -19l-2 -3q-69 62 -152 69l-11 1l-49 -307l7 -2q48 -14 80.5 -27.5t64 -37t44 -58.5t5.5 -82q-16 -99 -85 -152t-172 -57l-10 -1l-18 -114v-1zM351 416l47 297l-11 -1q-63 -5 -117.5 -42t-64.5 -99
q-5 -35 3.5 -61t32.5 -43t43.5 -26t53.5 -20zM328 46l11 1q70 4 123 42t64 107q5 32 -6.5 56.5t-38 40.5t-45.5 23.5t-49 16.5l-13 4z" />
    <glyph glyph-name="percent" unicode="%" horiz-adv-x="807" 
d="M193 0l566 791l3 3h55l-567 -792l-2 -1l-1 -1h-1h-53zM275 447q-73 0 -110.5 44t-26.5 118q12 74 63.5 119t124.5 45t110 -45t25 -119q-11 -73 -62 -117.5t-124 -44.5zM284 503q48 0 80.5 29t40.5 78q8 48 -16 77t-72 29q-46 0 -80.5 -29.5t-41.5 -76.5q-8 -47 17 -77
t72 -30zM657 -11q-73 0 -110 44.5t-26 118.5q12 74 63.5 119t124.5 45t110.5 -45.5t25.5 -118.5q-11 -73 -63 -118t-125 -45zM665 45q47 0 81.5 29.5t41.5 77.5t-17.5 77.5t-71.5 29.5q-46 0 -79.5 -30t-41.5 -77t16 -77t71 -30z" />
    <glyph glyph-name="ampersand" unicode="&#x26;" horiz-adv-x="716" 
d="M320 -17q-77 0 -137.5 26.5t-93 83t-20.5 133.5q23 145 165 199l15 5l-8 11q-59 78 -47 154q13 80 70.5 129t137.5 49q107 0 135 -81l-4 -3q-7 -6 -18 -12q-16 -12 -32 -20l-3 4q-6 9 -7 10l-8 13q-29 35 -77 35q-55 0 -91.5 -36t-45.5 -90t33 -116q14 -21 37 -48
q27 -32 36 -41l198 -221l8 12q50 72 75 167q3 10 6.5 29.5t5.5 29.5v2h57l1 -1q-24 -157 -110 -274l-5 -7l5 -6l63 -68q8 -8 20.5 -23t16.5 -19l8 -9h-62q-2 0 -8 2l-5 2l-73 81l-8 -8q-102 -94 -230 -94zM328 38q105 0 186 81l7 8l-242 268l-6 -2q-58 -20 -97 -64t-48 -103
q-8 -46 7 -83.5t45 -59.5t68 -33.5t80 -11.5z" />
    <glyph glyph-name="quotesingle" unicode="'" horiz-adv-x="212" 
d="M140 498q-2 0 -9.5 10.5t-6.5 13.5q45 36 70.5 67t37.5 77l3 12h-11q-24 0 -36 14t-8 38q4 25 20 40t40 15q56 0 43 -82q-9 -57 -49.5 -118t-92.5 -86z" />
    <glyph glyph-name="parenleft" unicode="(" horiz-adv-x="296" 
d="M200 -181h-45q-5 0 -7 6q-7 11 -14 33q-7 17 -12 35q-59 191 -26 396q31 199 152 397q25 43 48 71q4 5 9 5h46q-76 -105 -127.5 -226t-70.5 -240l-1 -7l-2 -10q-19 -108 -6 -237.5t56 -222.5z" />
    <glyph glyph-name="parenright" unicode=")" horiz-adv-x="297" 
d="M38 -181q26 34 39 52q127 195 160 408l1 10q19 115 5.5 244.5t-56.5 229.5l48 -1q4 0 8 -6q6 -12 10 -28l10 -31q63 -201 31 -408q-34 -215 -159 -407l-19 -30q-12 -17 -21 -26q-4 -7 -10 -7h-47z" />
    <glyph glyph-name="asterisk" unicode="*" horiz-adv-x="441" 
d="M383 371l-1 1l-78 143l-126 -143l-2 -1l-32 37l-2 2h1l1 1l125 123l-137 86l-1 1q2 2 4 6l12 14q4 5 8 11t8 10.5t5 5.5h2h1l121 -94l20 186h57l-37 -186l150 94h2h1l14 -26q5 -9 6 -15l2 -6v-1l-163 -86l84 -123l1 -1l-2 -2z" />
    <glyph glyph-name="plus" unicode="+" horiz-adv-x="591" 
d="M338 83h-58q-1 0 -1 1l33 208h-203q-1 0 -1 1l9 52q0 1 1 1h203l33 208l1 1h57q1 0 1 -1l-33 -208h204l1 -1l-9 -52l-1 -1h-204l-33 -208v-1z" />
    <glyph glyph-name="comma" unicode="," horiz-adv-x="234" 
d="M43 -181q-1 0 -8.5 11.5t-7.5 14.5q1 1 2 1q1 1 13 10l15 12q61 52 79 121l3 11h-11q-24 0 -36.5 14.5t-8.5 38.5t20.5 38t40.5 14q55 0 43 -80q-9 -58 -50 -118.5t-93 -86.5z" />
    <glyph glyph-name="hyphen" unicode="-" horiz-adv-x="421" 
d="M109 293q-1 0 0 1l8 52q0 2 1 2h295q1 0 1 -2l-8 -52q-1 -1 -2 -1h-295z" />
    <glyph glyph-name="period" unicode="." horiz-adv-x="272" 
d="M134 -11q-23 0 -35 15t-8 38q4 24 20 38t40 14q23 0 35 -14t8 -38t-20.5 -38.5t-39.5 -14.5z" />
    <glyph glyph-name="slash" unicode="/" horiz-adv-x="393" 
d="M0 0l1 2l14 24q20 35 50 85l153 261q48 83 107 183t96 162.5t43 73.5q0 3 7 3h47l-14 -25q-5 -8 -21.5 -37t-28.5 -48l-153 -261q-47 -80 -106.5 -182.5t-95.5 -163.5t-43 -73q-4 -4 -8 -4h-48z" />
    <glyph glyph-name="zero" unicode="0" horiz-adv-x="878" 
d="M439 -1q-153 0 -226.5 108.5t-48.5 267.5q26 160 133 268.5t261 108.5q153 0 227.5 -109t48.5 -268q-25 -159 -133.5 -267.5t-261.5 -108.5zM445 41q88 0 160.5 50.5t114 124.5t54.5 159q14 86 -3.5 160t-73.5 125t-145 51q-67 0 -125.5 -29t-99.5 -77.5t-67.5 -107.5
t-36.5 -122q-12 -61 -2 -121t34 -107t73.5 -76.5t116.5 -29.5z" />
    <glyph glyph-name="one" unicode="1" horiz-adv-x="409" 
d="M226 13q-6 0 -6 6l104 656l-15 -5l-80 -31q-6 -2 -23 -8.5t-24 -8.5l-17 -6h-3l-2 -1q-7 0 -7 9q-1 4 1 13l2 13q0 3 5 4l229 85v-6l-113 -714q0 -1 -3 -3.5t-5 -2.5h-43z" />
    <glyph glyph-name="two" unicode="2" horiz-adv-x="697" 
d="M104 13q-5 0 -4 11q-2 7 2 14l2 13q2 2 5 4l8 7l360 293q55 45 86 83.5t39 91.5q14 86 -32.5 133.5t-131.5 47.5q-96 0 -176 -58q-6 -6 -16 -14l-16 -15q-5 -3 -7 -3q-4 0 -18 12t-13 15l3 5q48 49 115.5 74t136.5 25q109 0 169.5 -59.5t43.5 -166.5
q-10 -61 -44.5 -106.5t-97.5 -96.5l-333 -270h409q5 0 5 -8q0 -9 -1 -13l-3 -13q0 -6 -7 -6h-484z" />
    <glyph glyph-name="three" unicode="3" horiz-adv-x="738" 
d="M333 -1q-65 0 -129.5 18.5t-97.5 54.5q-2 2 -2 6q1 4 16 16.5t19 12.5q3 0 5 -3q40 -36 85 -49.5t109 -13.5q40 0 79.5 7.5t81 24.5t70.5 51t36 80q7 45 -11 77.5t-53 49t-71 23.5t-74 7h-104q-6 0 -6 8q0 5 2 13l2 14q0 7 9 7h100q37 0 73 7t72.5 22.5t62 47t32.5 74.5
q5 36 -5 64t-29.5 45t-48 28t-56.5 15.5t-57 4.5q-120 0 -198 -62q-4 -3 -7 -3l-2 2q-3 1 -8 6l-16 14q-4 2 -2 5q0 3 4 6q82 73 235 73q49 0 95 -11t84.5 -33.5t58 -61.5t11.5 -90q-9 -54 -48.5 -94.5t-96.5 -60.5l-8 -2l-4 -28l6 -3q61 -21 94.5 -63t23.5 -103
q-8 -53 -43 -94t-84.5 -63.5t-101.5 -34t-103 -11.5z" />
    <glyph glyph-name="four" unicode="4" horiz-adv-x="727" 
d="M467 13q-5 0 -5 6l26 167h-387q-5 0 -6 11l3 15l3 14l380 511q2 2 4 2h41q11 0 9 -10q0 -3 -4 -7l-370 -496h334l39 249q2 6 7 6h41q6 0 5 -6l-39 -249h138q6 0 6 -8q0 -2 -0.5 -6t-0.5 -6l-3 -13q-2 -7 -9 -7h-138l-26 -167q0 -6 -7 -6h-41z" />
    <glyph glyph-name="five" unicode="5" horiz-adv-x="726" 
d="M343 -1q-138 0 -207 70q-15 15 -22 27l1 2q0 4 15 17t18 13q4 0 7 -5l12 -13q8 -10 13 -14q59 -55 168 -55q57 0 109.5 16.5t96 59t53.5 104.5q14 90 -48 134t-153 44q-78 0 -144 -29l-4 -1q-3 3 -5 4q-7 5 -13 13l-23 25v1l1 1v2l69 318q2 6 8 6h402q6 0 6 -8t-1 -13
l-3 -13q-3 -6 -8 -6h-357l-60 -283l16 6q51 20 123 20q54 0 101.5 -13.5t85.5 -39t56.5 -69.5t9.5 -99q-11 -73 -63.5 -125t-119.5 -74.5t-140 -22.5z" />
    <glyph glyph-name="six" unicode="6" horiz-adv-x="762" 
d="M387 -1q-120 0 -191.5 63.5t-53.5 179.5q10 56 55 111l317 383l2 3h2h41q12 0 10 -11q0 -3 -4 -7l-225 -277l32 11q43 17 104 17q106 0 177.5 -62.5t55.5 -164.5q-19 -117 -110 -181.5t-212 -64.5zM393 41q98 0 170 52t87 150q8 46 -6.5 81t-44.5 55t-66.5 30t-77.5 10
q-88 0 -164.5 -45t-90.5 -132q-15 -97 41 -149t152 -52z" />
    <glyph glyph-name="seven" unicode="7" horiz-adv-x="624" 
d="M164 13q-11 0 -9 12q0 3 2 5l473 669h-465q-6 0 -7 8q1 2 1.5 6.5t0.5 6.5l3 13q0 6 8 6h517q7 0 6 -11q1 -7 -2 -15l-3 -14q0 -2 -1 -3l-480 -680l-6 -3h-38z" />
    <glyph glyph-name="eight" unicode="8" horiz-adv-x="809" 
d="M406 -1q-51 0 -100 11.5t-91 34.5t-64 64t-14 94q10 65 55.5 103t119.5 62l48 16l-26 10l-16 7q-34 13 -40 17q-77 44 -62 138q10 66 61.5 112.5t114 65t130.5 18.5q39 0 76 -6.5t71.5 -22t58.5 -37.5t35.5 -56t5.5 -75q-9 -56 -42.5 -91t-92.5 -59l-57 -23l24 -8
q74 -26 110.5 -64.5t25.5 -107.5q-8 -52 -42.5 -93t-83.5 -64t-101.5 -34.5t-103.5 -11.5zM467 404q38 0 73.5 6.5t73.5 21.5t64 46.5t33 75.5t-9 76.5t-47.5 49t-66 24t-72.5 7.5q-53 0 -100 -12t-90 -49t-52 -95q-7 -44 8.5 -75.5t47.5 -47t65.5 -22t71.5 -6.5zM412 41
q40 0 79.5 7.5t80.5 24.5t70 51t36 80t-11.5 79t-55 49t-73 22.5t-75.5 6.5t-77.5 -6.5t-80.5 -22.5t-72 -49.5t-37 -79.5t11.5 -80t54.5 -50.5t73.5 -24t76.5 -7.5z" />
    <glyph glyph-name="nine" unicode="9" horiz-adv-x="760" 
d="M348 -2q-6 0 -16 0.5t-12 0.5q-13 0 -11 11q0 3 4 7l225 277l-31 -12q-48 -17 -104 -17q-107 0 -179 62.5t-56 164.5q19 118 110 182.5t213 64.5q121 0 192.5 -63t53.5 -179q-10 -59 -54 -112l-318 -383q0 -2 -5 -3q-1 0 -5 -0.5t-7 -0.5zM423 318q56 0 108 17t95 59
t53 102q15 97 -41.5 149.5t-152.5 52.5q-99 0 -170 -52.5t-87 -151.5q-7 -45 7.5 -80.5t45 -55.5t66.5 -30t76 -10z" />
    <glyph glyph-name="colon" unicode=":" horiz-adv-x="244" 
d="M190 425q-28 0 -41.5 16t-8.5 43q4 28 23 43.5t46 15.5q26 0 39.5 -16t9.5 -43t-23 -43t-45 -16zM121 -10q-28 0 -41.5 16t-8.5 44q4 27 23 42t46 15q26 0 39.5 -15.5t9.5 -41.5q-5 -28 -23 -44t-45 -16z" />
    <glyph glyph-name="semicolon" unicode=";" horiz-adv-x="263" 
d="M201 425q-26 0 -39.5 16t-9.5 43t22.5 43t45.5 16t40.5 -15.5t9.5 -43.5q-5 -27 -23 -43t-46 -16zM48 -181l-2 2l-10 15q0 2 -2 4t-2 4l-1 1l2 1q3 2 8 5.5t9 6.5t7 6q64 54 83 124l4 12h-12q-24 0 -37 14.5t-9 38.5t20.5 38t40.5 14q55 0 43 -79q-9 -56 -50 -119
t-91 -87z" />
    <glyph glyph-name="less" unicode="&#x3c;" horiz-adv-x="580" 
d="M548 66l-12 5l-49 24l-153 72l-243 116q-3 1 -3 6l11 73q2 5 5 7l281 116q105 44 175 72l57 24l14 5l-9 -56q0 -6 -5 -6l-490 -198l427 -198q4 -3 3 -6z" />
    <glyph glyph-name="equal" unicode="=" horiz-adv-x="564" 
d="M147 394v2l8 50v1h395q1 0 1 -1l-8 -50l-2 -2h-394zM120 225l8 52q0 1 1 1h394l1 -1l-8 -51l-1 -1h-395z" />
    <glyph glyph-name="greater" unicode="&#x3e;" horiz-adv-x="581" 
d="M52 65l9 57q1 3 5 6l492 198l-429 198q-5 0 -3 6l9 56l13 -5l49 -24l152 -72l244 -116q4 -4 3 -7l-11 -73q-5 -5 -5 -6l-280 -115q-113 -47 -175 -72l-57 -24q-6 -3 -16 -7z" />
    <glyph glyph-name="question" unicode="?" horiz-adv-x="513" 
d="M227 209q-1 0 -1 1q3 23 14 46q18 42 55 81q17 18 36 33l37 32q47 39 75 77t36 92q11 65 -21.5 106.5t-96.5 41.5q-86 0 -173 -82q-1 0 -16 19t-15 22l2 1q91 94 209 94q90 0 137 -55.5t32 -146.5q-7 -48 -29 -87t-44.5 -62.5t-71.5 -65.5q-54 -47 -74 -80
q-12 -19 -16 -32l-12 -33l-1 -2h-62zM227 -11q-21 0 -31.5 13t-6.5 34q3 21 17.5 33t35.5 12t31.5 -12.5t7.5 -32.5q-4 -21 -18.5 -34t-35.5 -13z" />
    <glyph glyph-name="at" unicode="@" horiz-adv-x="989" 
d="M503 -94q-98 0 -176.5 30t-130.5 84.5t-73.5 136.5t-5.5 181q32 200 177 317.5t346 117.5q182 0 277.5 -112t66.5 -295q-11 -67 -46.5 -122.5t-93.5 -78.5q-35 -13 -60 -13q-75 0 -104 63l-7 15l-11 -16q-58 -84 -164 -84q-87 0 -129.5 59t-28.5 148q15 91 75 149t148 58
q91 0 129 -66l9 -16l9 19l13 31q2 5 6 9q2 1 9 1h27l-39 -235q-6 -40 15.5 -64t60.5 -24q31 0 56 17.5t40 45t24 53.5t13 51q25 154 -62.5 254.5t-240.5 100.5q-174 0 -304.5 -103t-158.5 -279q-28 -174 70.5 -276t272.5 -102q135 0 252 94l2 1q1 0 17.5 -20.5t16.5 -21.5
q-129 -108 -297 -108zM512 184q66 0 110.5 43t54.5 109q11 68 -19 111t-97 43q-66 0 -111.5 -43.5t-56.5 -110.5t20.5 -109.5t98.5 -42.5z" />
    <glyph glyph-name="A" unicode="A" horiz-adv-x="695" 
d="M688 0h-55l-2 2l-61 250h-364l-141 -251q-1 -1 -3 -1h-54q46 86 201 357l225 401l2 2q1 1 4 1h59q3 0 4 -3l99 -401q40 -167 61 -250l19 -82l5 -23zM235 303h323l-96 403z" />
    <glyph glyph-name="B" unicode="B" horiz-adv-x="637" 
d="M96 0q-1 0 -1 1l121 760v2q1 -1 2 -1h206q65 0 114.5 -17t78 -59.5t18.5 -106.5q-17 -98 -115 -146l-22 -10l20 -8q63 -25 90.5 -75.5t16.5 -120.5q-17 -103 -92.5 -161t-180.5 -58h-256zM222 434h164q74 0 126 35t63 108q6 38 -5.5 65.5t-36.5 42t-53 20.5t-61 6h-153z
M161 51h10q30 0 90 0.5t91 0.5q80 0 140.5 43t73.5 124t-28 129.5t-121 48.5q-32 0 -96 -0.5t-95 -0.5l-10 -1z" />
    <glyph glyph-name="C" unicode="C" horiz-adv-x="741" 
d="M430 -11q-173 0 -261.5 108.5t-60.5 283.5q28 172 152.5 282t293.5 110q159 0 254 -102l-3 -3q-2 -2 -8.5 -7.5t-9.5 -8.5l-18 -14l-6 -4v1q-82 81 -218 81q-147 0 -251.5 -93.5t-127.5 -242.5t51.5 -241.5t221.5 -92.5q109 0 201 53q7 4 20 13.5t20 14.5h3h2
q3 -4 20 -21l11 -13l1 -4q-121 -100 -287 -100z" />
    <glyph glyph-name="D" unicode="D" horiz-adv-x="728" 
d="M96 0q-1 0 -1 1l121 760v2l200 -1q175 0 264 -102.5t61 -278.5t-149.5 -278.5t-296.5 -102.5h-199zM161 52h142q150 0 253 88.5t127 240.5t-50.5 241t-224.5 89h-142z" />
    <glyph glyph-name="E" unicode="E" horiz-adv-x="553" 
d="M96 0q-1 0 -1 1l121 760v2l405 -1l-9 -50v-1h-346l-47 -296h320q1 0 1 -1l-8 -50q-1 -1 -2 -1h-320l-49 -311h356q1 0 1 -1l-8 -51h-414z" />
    <glyph glyph-name="F" unicode="F" horiz-adv-x="531" 
d="M96 0q-1 0 -1 1l121 760v2q1 -1 2 -1h403l-9 -50v-1h-2h-344l-47 -296h320q1 0 1 -1l-8 -50q-1 -1 -2 -1h-320l-57 -362l-1 -1h-56z" />
    <glyph glyph-name="G" unicode="G" horiz-adv-x="817" 
d="M417 -10q-170 0 -253 108.5t-56 282.5q29 177 151.5 284.5t297.5 107.5q161 0 250 -101l-3 -3q-3 -2 -9 -7.5t-9 -8.5l-19 -15q-2 -2 -4 -3q-80 81 -215 81q-148 0 -253 -92.5t-129 -242.5q-23 -146 46.5 -240.5t213.5 -94.5q130 0 216 72t123 203l4 11h-286q-1 0 -1 1
l8 50l1 1h340q-28 -178 -135.5 -286t-278.5 -108z" />
    <glyph glyph-name="H" unicode="H" horiz-adv-x="726" 
d="M152 0h-56q-1 0 -1 1l121 760v2l58 -1l-55 -347h419l55 346v2l59 -1l-121 -761l-1 -1h-58l57 363h-419l-57 -362z" />
    <glyph glyph-name="I" unicode="I" horiz-adv-x="248" 
d="M95 0l121 761v2l57 -1q1 0 1 -1l-121 -761h-58z" />
    <glyph glyph-name="J" unicode="J" horiz-adv-x="417" 
d="M41 -11q-10 0 -15 1q-10 3 -9 10l2 6q1 2 3 6.5t4 6.5l12 24q2 4 7 4q4 0 10.5 -0.5t9.5 -0.5q107 0 167.5 69.5t77.5 179.5l74 466l1 2l58 -1q1 0 1 -1l-74 -466q-22 -139 -102 -222t-212 -83z" />
    <glyph glyph-name="K" unicode="K" horiz-adv-x="597" 
d="M95 0l121 761v2l57 -1q1 0 1 -1l-121 -761h-58zM518 0q-4 0 -7 3l-284 378l377 379q4 2 6 2h68l-382 -381l297 -381h-75z" />
    <glyph glyph-name="L" unicode="L" horiz-adv-x="473" 
d="M95 0l121 761v2l57 -1q1 0 1 -1l-113 -709h288q1 0 1 -1l-8 -51h-347z" />
    <glyph glyph-name="M" unicode="M" horiz-adv-x="926" 
d="M101 0q-6 0 -5 7l119 749q1 6 7 6h56h11l2 -2l182 -695l403 696l1 1h3h72q1 0 1 -1l-121 -760l-1 -1h-57l-1 1l105 664l-381 -662q-1 -3 -5 -3h-58q-6 0 -6 3l-170 660l-105 -662l-1 -1h-51z" />
    <glyph glyph-name="N" unicode="N" horiz-adv-x="771" 
d="M96 0q-1 0 -1 1l121 760v2l73 -1h1q1 -1 1 -3l340 -684l109 686v2l57 -1v-1l-121 -760l-1 -1h-70l-2 1l-3 2l-338 683l-109 -685l-1 -1h-56z" />
    <glyph glyph-name="O" unicode="O" horiz-adv-x="868" 
d="M433 -10q-175 0 -264 107t-61 284q29 177 151.5 284.5t297.5 107.5t264.5 -108t60.5 -284q-28 -176 -151 -283.5t-298 -107.5zM442 46q148 0 253 93t128 242q24 150 -51.5 242.5t-223.5 92.5t-253 -92.5t-129 -242.5q-23 -150 52.5 -242.5t223.5 -92.5z" />
    <glyph glyph-name="P" unicode="P" horiz-adv-x="588" 
d="M96 0q-1 0 -1 1l121 760v2q1 -1 2 -1h242q107 0 164 -54t40 -158q-17 -105 -90.5 -159t-181.5 -54h-185l-53 -336q0 -1 -1 -1h-57zM216 389h187q80 0 135 39.5t68 120.5t-29 121.5t-123 40.5h-187z" />
    <glyph glyph-name="Q" unicode="Q" horiz-adv-x="862" 
d="M785 -156q-121 0 -205 161l-3 6l-8 -2q-66 -19 -136 -19q-175 0 -264 107t-61 284q29 177 151.5 284.5t297.5 107.5t264.5 -108t60.5 -284q-17 -111 -77.5 -201.5t-159.5 -140.5l-11 -6l5 -9q65 -119 160 -119q35 0 74 13l8 3l7 3q8 3 10 3h3l1 -1q0 -1 6 -9t10 -13
l6 -13l2 -4q0 -2 -3 -4q-3 -4 -11 -7q-5 -3 -14 -6.5t-11 -4.5q-55 -21 -102 -21zM442 46q49 0 97 12l14 3l-5 12l-55 116l-33 71l-10 24l-3 6v1l33 12q3 1 6 2.5t6.5 2.5t5.5 2l6 2q1 0 2 -2l104 -227l9 4q85 44 137 122t67 172q24 150 -51.5 242.5t-223.5 92.5t-253 -92.5
t-129 -242.5q-23 -150 52.5 -242.5t223.5 -92.5z" />
    <glyph glyph-name="R" unicode="R" horiz-adv-x="592" 
d="M96 0q-1 0 -1 1l121 760v2l221 -1q108 0 164.5 -53.5t39.5 -158.5q-15 -92 -75.5 -145.5t-154.5 -65.5l-17 -2l6 -13l85 -175q9 -21 26.5 -57.5t23.5 -50.5l17 -36q0 -1 1 -2.5t1 -2.5h-69l-2 1l-149 336h-127l-53 -336q0 -1 -1 -1h-57zM216 389h164q80 0 135 39.5
t68 120.5t-29 121.5t-123 40.5h-164z" />
    <glyph glyph-name="S" unicode="S" horiz-adv-x="603" 
d="M304 -11q-70 0 -137.5 23.5t-102.5 68.5l-1 1v1l5 8q8 12 15 19q4 4 9 11t6 8l4 3q1 0 2 -1q37 -41 94.5 -63t119.5 -22q76 0 136 37t72 113q10 69 -61 107q-24 14 -63 25q-26 9 -59 16q-48 13 -84 29.5t-66.5 43t-42.5 65.5t-4 89q16 94 99.5 148t183.5 54
q135 0 201 -73l2 -2l-1 -1v-2l-3 -6l-10 -16l-20 -30l-1 -1l-3 2h2l-11 11l-11 8q-65 52 -160 52q-69 0 -133 -37t-76 -107q-6 -42 6 -67q15 -37 77 -66q27 -12 98 -33q39 -11 66.5 -20.5t58 -27t47.5 -37.5t25.5 -51.5t2.5 -69.5q-17 -107 -93.5 -158.5t-188.5 -51.5z" />
    <glyph glyph-name="T" unicode="T" horiz-adv-x="575" 
d="M259 0l113 711h-248l8 50v2l553 -1q1 0 1 -1l-8 -49q0 -1 -1 -1h-248l-113 -711h-57z" />
    <glyph glyph-name="U" unicode="U" horiz-adv-x="721" 
d="M360 -10q-133 0 -186.5 83.5t-31.5 222.5l74 466l58 -1l-74 -466q-18 -109 22 -179t147 -70t167.5 69.5t77.5 179.5l74 466q0 1 1 1h58l-74 -467q-22 -139 -101.5 -222t-211.5 -83z" />
    <glyph glyph-name="V" unicode="V" horiz-adv-x="692" 
d="M317 0q-5 0 -5 4l-99 400q-76 298 -87 357h64q2 0 3 -1l162 -703l383 703q2 1 4 1h65q-59 -105 -200 -357l-225 -400q-4 -4 -8 -4h-57z" />
    <glyph glyph-name="W" unicode="W" horiz-adv-x="937" 
d="M235 0q-4 0 -4 2l-56 401q-43 303 -49 359h57q2 0 2 -2l85 -678l283 678q2 2 3 2h62l4 -2l69 -683l303 685h59q-1 -3 -164 -359l-184 -401l-2 -2h-51q-2 0 -2 2l-69 710l-297 -710q0 -2 -3 -2h-46z" />
    <glyph glyph-name="X" unicode="X" horiz-adv-x="609" 
d="M5 0l5 7q15 16 35 41l106 124l175 201l5 6l-3 6l-106 203q-24 46 -64 126l-20 42q-1 1 -2 3t-2 3h74q1 0 1 -1l164 -333l278 331q2 2 7 2h68q-7 -8 -29 -33.5t-56 -65t-64 -73.5l-176 -202l-5 -6l3 -6l106 -202l66 -125l20 -41l2 -4t1 -3h-69q-5 0 -5 2l-165 329
l-279 -329q0 -2 -5 -2h-66z" />
    <glyph glyph-name="Y" unicode="Y" horiz-adv-x="602" 
d="M273 0q-1 0 -1 1l47 303v3l-104 242q-67 154 -89 212h65q4 0 5 -4l161 -404l289 404q1 4 8 4h64q-20 -26 -157 -212l-180 -242l-2 -3l-48 -303l-1 -1h-57z" />
    <glyph glyph-name="Z" unicode="Z" horiz-adv-x="599" 
d="M26 0v1l1 1l541 709h-415l-2 1l9 49v2l514 -1h4l-3 -3l-540 -707h441q1 0 1 -1l-8 -50q0 -1 -1 -1h-542z" />
    <glyph glyph-name="bracketleft" unicode="[" horiz-adv-x="349" 
d="M258 -182h-203l151 943v2l201 -1q1 0 1 -1l-7 -43l-2 -2h-149l-134 -851h149v-1l-7 -45v-1z" />
    <glyph glyph-name="backslash" unicode="\" horiz-adv-x="385" 
d="M344 0l-3 1l-1 1l-113 418q-72 263 -100 374h52q2 0 2 -2l113 -418l70 -261l22 -86q3 -9 6 -24l1 -3h-49z" />
    <glyph glyph-name="bracketright" unicode="]" horiz-adv-x="348" 
d="M235 -183l-200 1q-1 1 -1 2l8 45q1 1 2 1h147l134 850h-148v2l7 43v2l201 -1l-150 -943v-2z" />
    <glyph glyph-name="asciicircum" unicode="^" 
d="M110 292q1 2 22 37l51 85t58 97l150 246l1 3q2 1 5 1h70q6 0 6 -4l71 -247l44 -153l13 -51l4 -14h-58l-2 1l-118 435l-256 -435q-2 -1 -3 -1h-58z" />
    <glyph glyph-name="underscore" unicode="_" horiz-adv-x="627" 
d="M39 -151l7 43v1h501q1 0 1 -1l-7 -42q0 -1 -1 -1h-501z" />
    <glyph glyph-name="a" unicode="a" 
d="M280 -11q-109 0 -163 70t-37 181t94 181t186 70q130 0 175 -100l14 -31l18 113q0 6 14 7q7 1 19 0l12 -1q6 0 6 -6l-74 -466q0 -6 -14 -8q-7 -1 -19 0t-14 1q-6 0 -5 7l18 112l-24 -30q-78 -100 -206 -100zM295 41q87 0 153.5 55.5t80.5 143.5q14 89 -34 145t-136 56
q-87 0 -151 -56t-78 -145t31.5 -144t133.5 -55z" />
    <glyph glyph-name="b" unicode="b" 
d="M339 -11q-129 0 -175 100l-13 30l-18 -112q0 -5 -14 -8q-6 -1 -18.5 0t-14.5 1q-8 0 -6 7l119 749q0 6 14 7q7 1 19 0l12 -1q7 0 7 -6l-63 -396l23 31q77 100 208 100q109 0 162.5 -69.5t36.5 -181.5q-17 -111 -93.5 -181t-185.5 -70zM340 41q88 0 151 55t77 144t-31 145
t-133 56q-87 0 -153.5 -56.5t-80.5 -144.5t34.5 -143.5t135.5 -55.5z" />
    <glyph glyph-name="c" unicode="c" horiz-adv-x="535" 
d="M287 -11q-111 0 -168 69.5t-39 181.5t98.5 182t191.5 70q62 0 112 -26.5t75 -76.5l-1 -1q-1 -2 -4 -5q-13 -11 -18 -14l-18 -13q-3 -3 -4 -3l-1 1q-44 86 -152 86q-88 0 -151.5 -55.5t-77.5 -144.5t31.5 -144t133.5 -55q110 0 180 84l1 2h2q2 -4 20 -20l10 -12q2 -2 2 -3
q-87 -103 -223 -103z" />
    <glyph glyph-name="d" unicode="d" 
d="M282 -12q-109 0 -163.5 70t-37.5 181q17 112 94 181.5t187 69.5q129 0 174 -100l14 -31l63 396q0 6 14 7q7 1 19 0l12 -1q5 0 5 -6l-119 -749q-1 -7 -7 -7h-39q-7 0 -5 7l18 111l-24 -30q-78 -99 -205 -99zM296 40q87 0 153.5 55.5t80.5 143.5t-34.5 144.5t-135.5 56.5
t-151 -56t-78 -145t31.5 -144t133.5 -55z" />
    <glyph glyph-name="e" unicode="e" horiz-adv-x="577" 
d="M299 -11q-115 0 -176 68.5t-43 182.5q18 113 97 182t190 69q120 0 171.5 -73.5t32.5 -198.5q0 -1 -1 -1h-442v-12q-1 -78 49 -121.5t130 -43.5q95 0 163 59l3 2q1 0 17.5 -17.5t15.5 -18.5l-1 -1q-82 -76 -206 -76zM135 263h391v11q1 77 -44.5 122t-122.5 45t-137.5 -45
t-83.5 -122z" />
    <glyph glyph-name="f" unicode="f" horiz-adv-x="312" 
d="M103 0l-1 1l68 434h-94l-1 1l7 42q0 1 1 1h94l25 157q11 73 52 122t107 49q61 0 102 -34h1q-8 -17 -34 -44v1q-35 25 -74 25q-47 0 -76 -47q-19 -32 -27 -80l-23 -149h137l-7 -43q0 -1 -1 -1h-136l-69 -434l-1 -1h-50z" />
    <glyph glyph-name="g" unicode="g" 
d="M248 -267q-108 0 -180 50l-2 1q0 3 12.5 20t20.5 26q65 -47 157 -47q91 0 154.5 51.5t78.5 143.5l15 106l6 35l-24 -30q-78 -100 -206 -100q-109 0 -163 70t-37 181t94 181t186 70q130 0 175 -100l14 -31l18 113q0 6 14 7q7 1 19 0l12 -1q6 0 6 -6l-78 -489
q-18 -115 -98.5 -183t-193.5 -68zM295 41q87 0 153.5 55.5t80.5 143.5q14 89 -34 145t-136 56q-87 0 -151 -56t-78 -145t31.5 -144t133.5 -55z" />
    <glyph glyph-name="h" unicode="h" horiz-adv-x="585" 
d="M80 0l-1 1l118 755q0 6 13 7q7 1 19 0t13 -1q6 0 6 -6l-63 -409l25 39q68 105 187 105q95 0 133 -56.5t22 -156.5l-44 -278h-53l44 278q25 163 -118 163q-78 0 -139 -65t-73 -145l-37 -230q0 -1 -1 -1h-51z" />
    <glyph glyph-name="i" unicode="i" horiz-adv-x="219" 
d="M213 636q-22 0 -33 12.5t-8 34.5q8 45 55 45q20 0 30.5 -12t6.5 -33q-3 -22 -17 -34.5t-34 -12.5zM84 0l76 479h52l-76 -479h-52z" />
    <glyph glyph-name="j" unicode="j" horiz-adv-x="248" 
d="M237 636q-21 0 -31.5 12.5t-7.5 33.5t17.5 33.5t35.5 12.5t31.5 -12.5t7.5 -33.5q-8 -46 -53 -46zM-12 -269q-47 0 -89 26l-8 4q-4 1 -5 4q1 4 15 21.5t19 22.5l4 -3l18 -9q28 -14 54 -14q44 0 74 48q18 31 27 80l90 567q1 1 2 1h50q-15 -96 -46 -288.5t-46 -288.5
q-11 -73 -52 -122t-107 -49z" />
    <glyph glyph-name="k" unicode="k" horiz-adv-x="479" 
d="M80 0l-1 1l126 793h52l-125 -794h-52zM406 0q-5 0 -8 3l-211 253l251 221q2 2 7 2h71l-260 -218l220 -261h-70z" />
    <glyph glyph-name="l" unicode="l" horiz-adv-x="219" 
d="M84 0l121 761h52l-121 -761h-52z" />
    <glyph glyph-name="m" unicode="m" horiz-adv-x="901" 
d="M81 0l75 473q0 5 11 7h15l13 -1q5 0 5 -6l-20 -128l26 41q66 105 174 105q118 0 143 -102l4 -20l13 18q75 104 185 104q90 0 122.5 -57.5t17.5 -155.5q-7 -46 -21 -138.5t-22 -138.5q0 -1 -1 -1h-50q-1 0 -1 1l44 277q12 73 -11.5 118t-94.5 45q-56 0 -100.5 -36.5
t-70.5 -93.5q-1 -2 -11 -25q-7 -19 -8 -26l-41 -260h-47l-1 1l48 301q2 15 0 44q-10 95 -112 95q-76 0 -131.5 -66.5t-67.5 -143.5l-37 -230l-1 -1h-47z" />
    <glyph glyph-name="n" unicode="n" horiz-adv-x="585" 
d="M80 0l-1 1l75 472q0 5 14 7q6 1 18 0t13 -1q6 0 6 -6l-20 -126l25 39q68 105 187 105q95 0 133 -56.5t22 -156.5l-44 -278h-53l44 278q25 163 -118 163q-78 0 -139 -65t-73 -145l-37 -230q0 -1 -1 -1h-51z" />
    <glyph glyph-name="o" unicode="o" horiz-adv-x="577" 
d="M287 -11q-111 0 -168 69.5t-39 181.5q18 113 97 182t190 69t168 -69t39 -182q-18 -112 -97 -181.5t-190 -69.5zM295 41q88 0 151 55t77 144t-31.5 145t-132.5 56t-151 -56t-78 -145t31.5 -144t133.5 -55z" />
    <glyph glyph-name="p" unicode="p" 
d="M59 -283l-16 1q-6 0 -6 7l119 749q0 6 14 7q7 1 20 0l12 -1q7 0 7 -6l-18 -114l23 31q76 101 206 101q109 0 162.5 -70t36.5 -182q-17 -111 -93.5 -180.5t-185.5 -69.5q-131 0 -176 99l-13 30l-63 -394q0 -5 -13 -8h-16zM341 41q88 0 151 55t77 144t-31 145t-133 56
t-153.5 -56t-79.5 -145t33.5 -144t135.5 -55z" />
    <glyph glyph-name="q" unicode="q" 
d="M470 -283l-16 1q-5 0 -5 7l63 394l-24 -30q-77 -99 -206 -99q-109 0 -163.5 69.5t-37.5 180.5t94.5 181.5t186.5 70.5q128 0 173 -101l14 -31l18 114q0 6 14 7q7 1 19 0l13 -1q7 0 5 -6l-119 -749q0 -7 -12 -8h-17zM296 41q88 0 154 55t80 144q14 88 -34.5 144.5
t-135.5 56.5t-151 -56t-78 -145t31.5 -144t133.5 -55z" />
    <glyph glyph-name="r" unicode="r" horiz-adv-x="347" 
d="M80 0l-1 1l75 472q0 6 8 6h37q6 0 6 -6l-20 -126l25 39q68 105 188 105l5 -9q0 -6 -10 -26q-1 -2 -3 -7t-4 -7l-1 -1h-4q-78 0 -139 -65t-73 -145l-37 -230q0 -1 -1 -1h-51z" />
    <glyph glyph-name="s" unicode="s" horiz-adv-x="420" 
d="M206 -10h-3q-83 0 -141 38l-11 6l-8 7l1 2q1 7 29 42q56 -45 142 -45q46 0 80 15q49 21 56 66q8 44 -39 69q-22 10 -44 17l-51 16q-62 20 -93 49.5t-21 88.5q10 63 65 97t123 34h3q88 0 133 -44q-2 -11 -11 -22q-3 -5 -16 -23q-49 38 -118 38q-24 0 -48 -5.5t-48 -24
t-29 -47.5q-8 -46 39 -70q13 -8 44 -18l49 -16q62 -20 92.5 -49.5t20.5 -88.5q-10 -65 -67 -98.5t-129 -33.5z" />
    <glyph glyph-name="t" unicode="t" horiz-adv-x="327" 
d="M221 -11q-116 0 -89 174l43 272h-94l-1 1l7 42q0 1 1 1h95l29 184v2l52 -1l-29 -185h137q1 0 1 -1l-7 -43h-1h-137l-42 -265q-8 -54 -4 -78q4 -51 50 -51q22 0 48 15l15 10l4 2q0 -1 5.5 -9.5t8.5 -14.5l7 -14q1 -1 1 -4q-52 -37 -100 -37z" />
    <glyph glyph-name="u" unicode="u" horiz-adv-x="585" 
d="M266 -11q-96 0 -133.5 56t-21.5 157l44 277h53l-44 -279q-25 -160 117 -160q78 0 139.5 64.5t73.5 143.5l37 230v2l52 -1h1l-75 -472q0 -6 -14 -7h-32q-6 0 -5 7l20 126l-25 -38q-68 -106 -187 -106z" />
    <glyph glyph-name="v" unicode="v" horiz-adv-x="480" 
d="M214 0q-3 0 -5 1t-1 3l-67 252q-54 209 -57 223h61l2 -2l100 -431l236 430q3 3 7 3h58l-275 -475q-3 -4 -6 -4h-53z" />
    <glyph glyph-name="w" unicode="w" horiz-adv-x="681" 
d="M152 0q-2 0 -2 2l-35 254q-7 46 -14 96.5t-11.5 85.5t-5.5 41h59l1 -2l44 -439l197 438q1 3 4 3h54q3 0 2 -3l59 -440l184 441l2 2h58l-101 -223l-116 -254q0 -2 -3 -2h-60q-2 0 -3 2l-54 437l-193 -436l-2 -2q-2 0 -3 -1h-61z" />
    <glyph glyph-name="x" unicode="x" horiz-adv-x="479" 
d="M27 0l1 1l23 26q4 4 29 32t40 44l116 125l6 6l-146 245h66q7 0 9 -5l111 -195l179 195q5 5 11 5h63l-228 -239l143 -240h-63q-7 0 -10 5l-110 189l-166 -189q-7 -5 -12 -5h-62z" />
    <glyph glyph-name="y" unicode="y" horiz-adv-x="486" 
d="M73 -258q60 108 64 115l75 131l2 4l-1 4l-68 256q-52 198 -58 227h58q5 0 5 -3l98 -424l238 423q3 4 7 4h58l-198 -346l-221 -387q-4 -4 -6 -4h-53z" />
    <glyph glyph-name="z" unicode="z" horiz-adv-x="476" 
d="M426 0h-376v2l352 433h-271l-1 1l7 42v2l361 -1l-3 -3l-350 -432h289l-8 -43v-1z" />
    <glyph glyph-name="braceleft" unicode="{" horiz-adv-x="381" 
d="M241 -184q-101 0 -80 142l30 185q6 44 -9.5 78t-55.5 45l9 47l9 3q4 2 12 3q33 16 54 48t27 68l29 185q23 141 125 141h48q1 0 0 -1l-7 -47l-1 -1h-45q-33 0 -52 -37q-8 -17 -16 -55l-28 -179q-16 -97 -98 -143l-15 -9l14 -8q66 -45 51 -143l-29 -180q-5 -36 -1 -55
q6 -38 40 -38h45v-1l-7 -47q0 -1 -1 -1h-48z" />
    <glyph glyph-name="braceright" unicode="}" horiz-adv-x="381" 
d="M34 -184l8 49q0 1 1 1h45q32 0 50 37q10 19 15 55q5 30 14 90t14 90q14 95 99 143l16 8l-14 9q-69 47 -53 143q4 28 14 88t15 91q5 36 2 55q-6 37 -38 37h-45q-1 0 -1 1l7 47l1 2l49 -1q101 0 78 -141l-29 -185q-6 -36 5 -68.5t41 -47.5l10 -3l9 -3h1l-9 -48
q-43 -10 -69.5 -43.5t-33.5 -78.5l-30 -185q-9 -63 -39 -102.5t-84 -39.5h-49z" />
    <glyph glyph-name="asciitilde" unicode="~" horiz-adv-x="605" 
d="M443 179q-38 0 -62.5 14t-50.5 41l-18 22q-14 14 -21 19q-25 20 -55 20q-45 0 -79 -39q-11 -11 -27 -35q-8 -12 -22 -36q-3 5 -17 23q-7 10 -9 13l-2 4q29 56 72.5 93.5t93.5 37.5q41 0 66 -14.5t49 -41.5l18 -21q14 -14 21 -20q23 -20 55 -20q43 0 78 39q14 14 28 35
q14 24 21 35l11 -12l18 -22v-2v-2v-2q-29 -55 -73.5 -92t-94.5 -37z" />
    <glyph glyph-name="cent" unicode="&#xa2;" horiz-adv-x="655" 
d="M311 -123q-2 0 -4.5 2.5t-1.5 5.5l16 104l-8 2q-101 18 -155.5 90.5t-38.5 177.5q16 103 94 176t184 91l9 1l17 104q0 7 8 7h54q6 0 6 -7l-16 -103l9 -1q107 -5 158 -68q2 -4 2 -5q-1 -4 -21 -21.5t-25 -17.5q-2 0 -6 2q-3 3 -9.5 9t-9.5 9q-49 38 -125 38
q-96 0 -168.5 -59t-87.5 -155q-15 -97 38.5 -156.5t149.5 -59.5q89 0 166 57q3 3 7 3t19 -17.5t14 -21.5q0 -2 -4 -5q-73 -64 -183 -71l-10 -1l-16 -102q-3 -8 -8 -8h-54z" />
    <glyph glyph-name="sterling" unicode="&#xa3;" horiz-adv-x="707" 
d="M67 0q-6 0 -5 7l8 48q0 7 7 7h94l43 272h-94q-7 0 -5 6l8 49q0 3 2.5 5.5t4.5 2.5h94l16 102q17 112 106 179t203 67q56 0 110 -20t81 -57q1 -2 1 -5t-5 -6l-31 -19q-15 -9 -19 -10l-5 -3q-3 0 -6 2l-9 10l-11 9q-45 35 -116 35q-82 0 -146 -49.5t-77 -132.5l-16 -102
h306q6 0 6 -8l-8 -49q0 -6 -8 -6h-306l-43 -272h400q6 0 6 -7l-8 -48q-2 -7 -8 -7h-570z" />
    <glyph glyph-name="yen" unicode="&#xa5;" horiz-adv-x="806" 
d="M373 0q-8 0 -6 7l25 157h-228q-6 0 -5 7l6 39q2 7 7 7h228l13 82l-26 44h-195q-5 0 -5 7l7 39q0 3 2.5 5.5t4.5 2.5h156l-182 313q-2 6 -1 8q2 12 15 12h67l2 -1l202 -366l318 366l5 1h66q7 0 10 -3t2 -8q0 -5 -6 -9l-281 -313h159q6 0 6 -8l-7 -39q0 -7 -8 -7h-195
l-41 -44l-13 -82h229q8 0 6 -7l-6 -39q-1 -7 -8 -7h-229l-25 -157q-2 -7 -7 -7h-62z" />
    <glyph glyph-name="copyright" unicode="&#xa9;" horiz-adv-x="1027" 
d="M513 -13q-175 0 -295 103.5t-120 275.5q0 171 120 274t295 103q113 0 206.5 -44t151 -131t57.5 -202q0 -173 -120 -276t-295 -103zM513 31q153 0 256.5 91t103.5 244q0 152 -104 242.5t-256 90.5t-256 -90.5t-104 -242.5q0 -154 103 -244.5t257 -90.5zM514 143
q-98 0 -158.5 62t-60.5 161t62.5 160.5t160.5 61.5q53 0 101.5 -24.5t75.5 -67.5l1 -2q-31 -28 -34 -28l-1 2q-53 75 -147 75q-79 0 -127.5 -49t-48.5 -128q0 -80 48.5 -129.5t127.5 -49.5q94 0 147 75l2 2q3 0 18 -14t15 -15l-1 -2q-27 -43 -76.5 -66.5t-104.5 -23.5z" />
    <glyph glyph-name="registered" unicode="&#xae;" horiz-adv-x="1027" 
d="M513 -13q-175 0 -295 103.5t-120 275.5q0 171 120 274t295 103q113 0 206.5 -44t151 -131t57.5 -202q0 -173 -120 -276t-295 -103zM513 31q153 0 256.5 91t103.5 244q0 152 -104 242.5t-256 90.5t-256 -90.5t-104 -242.5q0 -154 103 -244.5t257 -90.5zM389 147l-1 445h1
l1 1h128q63 0 101 -32t38 -93q0 -51 -28 -82.5t-79 -39.5l-16 -2l8 -13l64 -100l38 -60l12 -21q1 -1 1 -3h-41q-1 0 -3 2l-116 194h-73v-195l-1 -1h-34zM424 376h95q46 0 75 22.5t29 69.5t-29 70t-75 23h-95v-185z" />
    <glyph glyph-name="multiply" unicode="&#xd7;" horiz-adv-x="496" 
d="M124 131l-35 41l170 150l-121 144v2l43 37h1h2l119 -146l169 147l1 1l34 -41l1 -1l-171 -148l122 -144v-2l-43 -38l-121 146l-170 -147z" />
    <glyph glyph-name="divide" unicode="&#xf7;" horiz-adv-x="591" 
d="M364 417q-22 0 -33 13t-8 34q4 21 19 33.5t37 12.5q20 0 30 -12.5t6 -33.5q-3 -21 -17 -34t-34 -13zM109 292q-1 0 -1 1l9 52q0 1 1 1h466l1 -1l-9 -52l-1 -1h-466zM319 131q-22 0 -33 12.5t-8 33.5t18 33.5t37 12.5q20 0 30 -12.5t7 -33.5t-17 -33.5t-34 -12.5z" />
    <glyph glyph-name="endash" unicode="&#x2013;" horiz-adv-x="624" 
d="M131 292q-1 0 -1 1l9 52q0 1 1 1h455l1 -1l-9 -52l-1 -1h-455z" />
    <glyph glyph-name="emdash" unicode="&#x2014;" horiz-adv-x="921" 
d="M883 291h-753l8 53q1 1 2 1h751q1 0 0 -1l-8 -52v-1z" />
    <glyph glyph-name="quoteleft" unicode="&#x2018;" horiz-adv-x="211" 
d="M230 498h-1q-43 28 -65 87t-13 117q13 83 70 83q24 0 35.5 -15t7.5 -40q-4 -24 -20.5 -38t-39.5 -14h-11v-11q-4 -46 11.5 -77t49.5 -67q-1 -3 -11.5 -14t-12.5 -11z" />
    <glyph glyph-name="quoteright" unicode="&#x2019;" horiz-adv-x="212" 
d="M140 498q-2 0 -9.5 10.5t-6.5 13.5q45 36 70.5 67t37.5 77l3 12h-11q-24 0 -36 14t-8 38q4 25 20 40t40 15q56 0 43 -82q-9 -57 -49.5 -118t-92.5 -86z" />
    <glyph glyph-name="quotedblleft" unicode="&#x201c;" horiz-adv-x="381" 
d="M231 498h-1q-43 28 -65 87t-13 117q13 83 70 83q24 0 35 -15t7 -40q-4 -24 -20.5 -38t-39.5 -14h-12v-12q-3 -46 13 -76.5t50 -66.5q-1 -3 -11.5 -14t-12.5 -11zM401 498l-2 1q-42 23 -63.5 86t-12.5 119q11 81 68 81q24 0 36 -15.5t8 -39.5q-4 -23 -21 -37.5t-40 -14.5
h-11l-1 -12q-4 -79 62 -143l1 -2q-1 -2 -11.5 -12.5t-12.5 -10.5z" />
    <glyph glyph-name="quotedblright" unicode="&#x201d;" horiz-adv-x="381" 
d="M140 498q-2 0 -9.5 10.5t-6.5 13.5q45 36 70.5 67.5t37.5 77.5l2 11h-11q-23 0 -35 14t-8 38q4 25 20 40t40 15q56 0 43 -82q-9 -57 -49.5 -118t-92.5 -86zM309 498q-1 0 -8.5 10.5t-6.5 13.5q44 36 69.5 68t37.5 76l3 12h-11q-24 0 -35.5 14t-7.5 38q4 25 20 40t40 15
q56 0 43 -82q-9 -57 -50 -117.5t-92 -86.5z" />
    <glyph glyph-name="Euro" unicode="&#x20ac;" horiz-adv-x="856" 
d="M509 -13q-125 0 -210.5 68t-103.5 187l-1 7h-99q-4 0 -4 14q1 7 3.5 18.5t2.5 13.5q2 8 7 8h90v12q0 28 4 51q6 34 12 51l4 12h-90q-6 0 -5 13q1 7 3.5 18.5t2.5 14.5q1 6 7 6h99l3 8q55 119 163 186.5t234 67.5t206 -69q21 -21 30 -33l1 -1v-3l-5 -7l-14 -14
q-5 -4 -16.5 -13t-14.5 -12q-1 0 -3 -1t-3 -1q-6 0 -6 3q-3 2 -5.5 4.5t-5 5.5t-4.5 5q-7 10 -15 17q-61 57 -157 57q-93 0 -172.5 -49t-125.5 -137l-7 -14h351q7 0 6 -6l-6 -40q-2 -6 -8 -6h-366l-2 -9q-7 -27 -12 -54t-6 -55v-8h366q6 0 6 -14q-1 -7 -3.5 -19t-2.5 -14
q-2 -7 -9 -7h-352l3 -13q19 -88 83 -136.5t157 -48.5q120 0 220 84q5 3 8 3l4 -3q6 -5 12 -12q5 -5 12.5 -13t9.5 -9q3 -2 3 -6q0 -1 -3 -4q-55 -51 -128 -77.5t-148 -26.5z" />
    <glyph glyph-name="trademark" unicode="&#x2122;" horiz-adv-x="562" 
d="M473 770l2 -3v-258l-2 -3q-2 0 -3 1q0 -1 1 -1l-8 1h-2h-7v219l-92 -217l-3 -2h-2h-12h-5l-1 -2l-2 1l-92 219v-218h-4h-7h-8q-4 0 -4 4v258l5 1h9h8l7 -2l98 -235l98 235q4 2 11 2h15zM4 768h191q1 -1 1 -9v-2l-1 -9h-84v-243h-5v-1l-8 1h-3h-4l-3 3v240h-84q-1 1 -1 8
l1 1v2v9z" />
    <glyph glyph-name="minus" unicode="&#x2212;" horiz-adv-x="591" 
d="M109 292q-1 0 -1 1l9 52q0 1 1 1h466l1 -1l-9 -52l-1 -1h-466z" />
    <glyph glyph-name="_FSHallmark" horiz-adv-x="980" 
d="M92 688v96h819v-96h-819zM735 228q-39 0 -67 9q-26 7 -57 27q-25 18 -42 47q-15 27 -15 64l95 -2q0 -5 4 -14q2 -15 14 -26q11 -11 25 -17q17 -9 46 -9q32 0 52 12q20 9 20 25q0 30 -78 46q-74 18 -120 43q-49 26 -49 82q0 48 32 74q31 25 72 39q34 8 68 8q48 0 93 -18
q44 -18 65 -65q11 -27 11 -48h-99q0 10 -7 22q-9 10 -18 17q-16 8 -23 10q-3 0 -11.5 1.5t-12.5 1.5q-25 0 -47 -12q-20 -13 -20 -29q0 -30 18 -40q25 -13 44 -17l65 -15q17 -6 29 -7q5 -1 24 -6q3 -2 10.5 -5.5t10.5 -5.5q21 -13 31 -27q11 -18 12 -43q1 -26 -10 -49
q-25 -41 -72 -58q-48 -15 -93 -15zM92 228v407h345v-93h-237v-91h197v-91h-197v-132h-108zM477 230q-19 0 -34 15q-15 13 -15 32q0 21 14 35q13 13 35 13q20 0 39 -14q16 -13 16 -34q0 -19 -16 -34q-17 -13 -39 -13zM90 80v97h820v-97h-820z" />
    <glyph glyph-name="_Fontastica" horiz-adv-x="980" 
d="M170 147q-1 2 -1 5v664h497v-102h-383v-273h384v-103h-384v-191h-113zM355 149v101h385v273h-385v103h385v190h113v-667h-498zM750 41q-10 0 -21 6q-6 7 -9 21q-1 13 8 22q10 10 22 10q14 0 24 -10l-6 -8q-1 1 -3 2.5t-3 2.5q-1 2 -9 2h-3q-9 -4 -10 -7q-7 -4 -7 -10
q0 -9 5 -14q4 -6 12 -6q9 0 18 6l6 -6q-9 -11 -24 -11zM170 42v57h42v-10h-27v-16h26v-9h-26v-22h-15zM263 38q-8 0 -12 4q-18 8 -18 25q0 15 9 23q6 9 22 9q18 0 29 -15q8 -11 2 -26q-6 -16 -25 -17zM367 41q-5 0 -9 6l-6 8q0 2 -2 4.5t-3 3.5l-12 14v-35h-13v57h11
q4 -1 6 -8q9 -9 13 -14q1 -2 5 -8l6 -9v39h11v-57h-3q-2 -1 -4 -1zM417 42v47h-18v10h48v-10h-18v-47h-12zM568 41q-19 0 -27 9q1 1 1 2l1 2q0 2 2 4l18 -6h8q4 6 4 3q0 9 -13 12q-2 0 -3 1t-5 1q-9 3 -9 13q-3 9 8 15q6 2 13 2q14 0 23 -5l-5 -10q-2 1 -4 1q-1 0 -3 1
q-1 1 -4 1q-1 0 -2 2h-8q-4 0 -4 -4q-2 -2 4 -8q6 -1 14 -5q12 -2 12 -13q1 -12 -10 -17q-2 -1 -11 -1zM627 42v47h-19v10h50v-10h-18v-47h-13zM681 42v57h15v-57h-15zM793 42q15 29 23 57h16l12 -27q0 -2 6 -16q4 -10 7 -14h-13l-5 12h-28l-5 -12h-13zM460 42l24 55h13
q2 -6 6 -13q2 -2 4 -7t3 -6q0 -2 2 -7t3 -8t3 -7.5t2 -6.5h-13q-1 1 -1 5l-1 2q-1 1 -1.5 2t-0.5 3h-26q-1 -2 -1 -7q-1 -1 -1 -2l-3 -3h-12zM264 51q4 0 5 1q12 3 12 17v2q0 8 -4 13q-7 5 -14 5q-2 -2 -4 -2q-6 -1 -11 -9q-6 -7 -1 -14q4 -13 17 -13zM480 64h19q-1 0 -1 2
t-1 3t-2 3l-1 2q-1 2 -1 6q-1 1 -2 3l-1 2zM815 64h18q-1 1 -1 5q-2 5 -3 5q-1 1 -1 3t-1 3l-1 2q-1 2 -2 3z" />
    </font>
</defs>
</svg>
